<?xml version="1.0" encoding="UTF-8" standalone="no"?>
<svg
   xmlns:dc="http://purl.org/dc/elements/1.1/"
   xmlns:cc="http://creativecommons.org/ns#"
   xmlns:rdf="http://www.w3.org/1999/02/22-rdf-syntax-ns#"
   xmlns:svg="http://www.w3.org/2000/svg"
   xmlns="http://www.w3.org/2000/svg"
   viewBox="0 0 661.33331 298.66666"
   height="298.66666"
   width="661.33331"
   xml:space="preserve"
   id="svg2"
   version="1.1"><metadata
     id="metadata8"><rdf:RDF><cc:Work
         rdf:about=""><dc:format>image/svg+xml</dc:format><dc:type
           rdf:resource="http://purl.org/dc/dcmitype/StillImage" /></cc:Work></rdf:RDF></metadata><defs
     id="defs6" /><g
     transform="matrix(1.3333333,0,0,-1.3333333,0,298.66667)"
     id="g10"><g
       transform="scale(0.1)"
       id="g12"><path
         id="path14"
         style="fill:none;stroke:#231f20;stroke-width:10.00629997;stroke-linecap:butt;stroke-linejoin:miter;stroke-miterlimit:10;stroke-dasharray:none;stroke-opacity:1"
         d="M 220.762,853.879 105.199,464.719 857.238,277.52 1883.6,378.32 2462.12,724.281 2057.12,1070.24 987.199,695.48 Z" /><path
         id="path16"
         style="fill:#7264b8;fill-opacity:1;fill-rule:evenodd;stroke:none"
         d="M 1001.6,2223.32 220.762,839.48 l 766.437,-144 z" /><path
         id="path18"
         style="fill:none;stroke:#231f20;stroke-width:10.00629997;stroke-linecap:butt;stroke-linejoin:miter;stroke-miterlimit:10;stroke-dasharray:none;stroke-opacity:1"
         d="M 1001.6,2223.32 220.762,839.48 l 766.437,-144 z" /><path
         id="path20"
         style="fill:#f89a83;fill-opacity:1;fill-rule:evenodd;stroke:none"
         d="M 1001.6,2223.32 987.199,681.082 2057.12,1055.84 Z" /><path
         id="path22"
         style="fill:none;stroke:#231f20;stroke-width:10.00629997;stroke-linecap:butt;stroke-linejoin:miter;stroke-miterlimit:10;stroke-dasharray:none;stroke-opacity:1"
         d="M 1001.6,2223.32 987.199,681.082 2057.12,1055.84 Z" /><path
         id="path24"
         style="fill:none;stroke:#231f20;stroke-width:10.00629997;stroke-linecap:butt;stroke-linejoin:miter;stroke-miterlimit:10;stroke-dasharray:none;stroke-opacity:1"
         d="m 857.238,277.52 129.961,417.96 -882,-230.761" /><path
         id="path26"
         style="fill:none;stroke:#231f20;stroke-width:10.00629997;stroke-linecap:butt;stroke-linejoin:miter;stroke-miterlimit:10;stroke-dasharray:none;stroke-opacity:1"
         d="M 2462.12,724.281 972.801,695.48 1883.6,378.32" /><path
         id="path28"
         style="fill:#ffffff;fill-opacity:1;fill-rule:evenodd;stroke:none"
         d="M 44,971.961 H 155.602 V 747.68 H 44 v 224.281" /><path
         id="path30"
         style="fill:#ffffff;fill-opacity:1;fill-rule:nonzero;stroke:none"
         d="m 44.3594,748.039 h 111.242 V 971.602 H 44.3594 Z" /><g
         transform="scale(10)"
         id="g32"><text
           id="text36"
           style="font-variant:normal;font-weight:normal;font-size:20.08805847px;font-family:Arial;-inkscape-font-specification:Arial;writing-mode:lr-tb;fill:#231f20;fill-opacity:1;fill-rule:nonzero;stroke:none"
           transform="matrix(1,0,0,-0.99641291,4.43594,79.0522)"><tspan
             id="tspan34"
             y="0"
             x="0">2</tspan></text>
</g><path
         id="path38"
         style="fill:#ffffff;fill-opacity:1;fill-rule:evenodd;stroke:none"
         d="M 0.800781,482 H 112.398 V 257.359 H 0.800781 V 482" /><path
         id="path40"
         style="fill:#ffffff;fill-opacity:1;fill-rule:nonzero;stroke:none"
         d="M 0.800781,258.082 H 112.03878 V 481.641 H 0.800781 Z" /><g
         transform="scale(10)"
         id="g42"><text
           id="text46"
           style="font-variant:normal;font-weight:normal;font-size:20.08805847px;font-family:Arial;-inkscape-font-specification:Arial;writing-mode:lr-tb;fill:#231f20;fill-opacity:1;fill-rule:nonzero;stroke:none"
           transform="matrix(1,0,0,-0.99641291,0.0800781,30.0561)"><tspan
             id="tspan44"
             y="0"
             x="0">3</tspan></text>
</g><path
         id="path48"
         style="fill:#ffffff;fill-opacity:1;fill-rule:evenodd;stroke:none"
         d="M 752.48,240.441 H 864.078 V 16.1602 H 752.48 V 240.441" /><path
         id="path50"
         style="fill:#ffffff;fill-opacity:1;fill-rule:nonzero;stroke:none"
         d="m 752.84,16.8789 h 111.238 v 223.563 H 752.84 Z" /><g
         transform="scale(10)"
         id="g52"><text
           id="text56"
           style="font-variant:normal;font-weight:normal;font-size:20.08805847px;font-family:Arial;-inkscape-font-specification:Arial;writing-mode:lr-tb;fill:#231f20;fill-opacity:1;fill-rule:nonzero;stroke:none"
           transform="matrix(1,0,0,-0.99641291,75.284,5.93614)"><tspan
             id="tspan54"
             y="0"
             x="0">4</tspan></text>
</g><path
         id="path58"
         style="fill:#ffffff;fill-opacity:1;fill-rule:evenodd;stroke:none"
         d="m 1905.92,356 h 111.6 V 131.359 h -111.6 V 356" /><path
         id="path60"
         style="fill:#ffffff;fill-opacity:1;fill-rule:nonzero;stroke:none"
         d="m 1906.28,132.082 h 111.238 V 355.641 H 1906.28 Z" /><g
         transform="scale(10)"
         id="g62"><text
           id="text66"
           style="font-variant:normal;font-weight:normal;font-size:20.08805847px;font-family:Arial;-inkscape-font-specification:Arial;writing-mode:lr-tb;fill:#231f20;fill-opacity:1;fill-rule:nonzero;stroke:none"
           transform="matrix(1,0,0,-0.99641291,190.628,17.4561)"><tspan
             id="tspan64"
             y="0"
             x="0">7</tspan></text>
</g><path
         id="path68"
         style="fill:#ffffff;fill-opacity:1;fill-rule:evenodd;stroke:none"
         d="m 2386.88,647.961 h 111.96 V 423.68 h -111.96 v 224.281" /><path
         id="path70"
         style="fill:#ffffff;fill-opacity:1;fill-rule:nonzero;stroke:none"
         d="m 2387.24,424.402 h 111.242 V 647.961 H 2387.24 Z" /><g
         transform="scale(10)"
         id="g72"><text
           id="text76"
           style="font-variant:normal;font-weight:normal;font-size:20.08805847px;font-family:Arial;-inkscape-font-specification:Arial;writing-mode:lr-tb;fill:#231f20;fill-opacity:1;fill-rule:nonzero;stroke:none"
           transform="matrix(1,0,0,-0.99641291,238.724,46.6881)"><tspan
             id="tspan74"
             y="0"
             x="0">8</tspan></text>
</g><path
         id="path78"
         style="fill:#ffffff;fill-opacity:1;fill-rule:evenodd;stroke:none"
         d="m 3249.44,1171.4 h 112.32 V 942.441 H 3249.44 V 1171.4" /><path
         id="path80"
         style="fill:#ffffff;fill-opacity:1;fill-rule:nonzero;stroke:none"
         d="m 3249.44,942.441 h 112.32 v 228.961 h -112.32 z" /><g
         transform="scale(10)"
         id="g82"><text
           id="text86"
           style="font-variant:normal;font-weight:normal;font-size:20.48399925px;font-family:Arial;-inkscape-font-specification:Arial;writing-mode:lr-tb;fill:#231f20;fill-opacity:1;fill-rule:nonzero;stroke:none"
           transform="matrix(0.987698,0,0,-1,324.944,98.6002)"><tspan
             id="tspan84"
             y="0"
             x="0">5</tspan></text>
</g><path
         id="path88"
         style="fill:#231f20;fill-opacity:1;fill-rule:evenodd;stroke:none"
         d="M 3329.36,1972.76 2736.44,1101.2 2646.8,756.32 Z" /><path
         id="path90"
         style="fill:none;stroke:#231f20;stroke-width:10.00629997;stroke-linecap:butt;stroke-linejoin:miter;stroke-miterlimit:10;stroke-dasharray:none;stroke-opacity:1"
         d="M 3329.36,1972.76 2736.44,1101.2 2646.8,756.32 Z" /><path
         id="path92"
         style="fill:#7264b8;fill-opacity:1;fill-rule:evenodd;stroke:none"
         d="M 3324.32,1968.8 2646.8,756.32 3329.36,538.16 Z" /><path
         id="path94"
         style="fill:none;stroke:#231f20;stroke-width:10.00629997;stroke-linecap:butt;stroke-linejoin:miter;stroke-miterlimit:10;stroke-dasharray:none;stroke-opacity:1"
         d="M 3324.32,1968.8 2646.8,756.32 3329.36,538.16 Z" /><path
         id="path96"
         style="fill:#9c8dce;fill-opacity:1;fill-rule:evenodd;stroke:none"
         d="M 3329.36,1972.76 V 556.52 l 933.84,90.722 z" /><path
         id="path98"
         style="fill:none;stroke:#231f20;stroke-width:10.00629997;stroke-linecap:butt;stroke-linejoin:miter;stroke-miterlimit:10;stroke-dasharray:none;stroke-opacity:1"
         d="M 3329.36,1972.76 V 556.52 l 933.84,90.722 z" /><path
         id="path100"
         style="fill:#cbc1e6;fill-opacity:1;fill-rule:evenodd;stroke:none"
         d="M 3329.36,1972.76 4281.2,647.242 4784.12,974.121 Z" /><path
         id="path102"
         style="fill:none;stroke:#231f20;stroke-width:10.00629997;stroke-linecap:butt;stroke-linejoin:miter;stroke-miterlimit:10;stroke-dasharray:none;stroke-opacity:1"
         d="M 3329.36,1972.76 4281.2,647.242 4784.12,974.121 Z" /><path
         id="path104"
         style="fill:#66c430;fill-opacity:1;fill-rule:evenodd;stroke:none"
         d="M 4766.12,992.121 4460.84,1282.64 3347.36,1972.76 Z" /><path
         id="path106"
         style="fill:none;stroke:#231f20;stroke-width:10.00629997;stroke-linecap:butt;stroke-linejoin:miter;stroke-miterlimit:10;stroke-dasharray:none;stroke-opacity:1"
         d="M 4766.12,992.121 4460.84,1282.64 3347.36,1972.76 Z" /><path
         id="path108"
         style="fill:#ffffff;fill-opacity:1;fill-rule:evenodd;stroke:none"
         d="m 2599.64,713.121 h 111.6 V 488.84 h -111.6 v 224.281" /><path
         id="path110"
         style="fill:#ffffff;fill-opacity:1;fill-rule:nonzero;stroke:none"
         d="m 2600,489.199 h 111.238 V 712.762 H 2600 Z" /><g
         transform="scale(10)"
         id="g112"><text
           id="text116"
           style="font-variant:normal;font-weight:normal;font-size:20.08805847px;font-family:Arial;-inkscape-font-specification:Arial;writing-mode:lr-tb;fill:#231f20;fill-opacity:1;fill-rule:nonzero;stroke:none"
           transform="matrix(1,0,0,-0.99641291,260,53.1682)"><tspan
             id="tspan114"
             y="0"
             x="0">3</tspan></text>
</g><path
         id="path118"
         style="fill:#ffffff;fill-opacity:1;fill-rule:evenodd;stroke:none"
         d="m 3255.2,488.84 h 111.6 V 264.199 H 3255.2 V 488.84" /><path
         id="path120"
         style="fill:#ffffff;fill-opacity:1;fill-rule:nonzero;stroke:none"
         d="m 3255.56,264.922 h 111.242 V 488.481 H 3255.56 Z" /><g
         transform="scale(10)"
         id="g122"><text
           id="text126"
           style="font-variant:normal;font-weight:normal;font-size:20.08805847px;font-family:Arial;-inkscape-font-specification:Arial;writing-mode:lr-tb;fill:#231f20;fill-opacity:1;fill-rule:nonzero;stroke:none"
           transform="matrix(1,0,0,-0.99641291,325.556,30.74)"><tspan
             id="tspan124"
             y="0"
             x="0">4</tspan></text>
</g><path
         id="path128"
         style="fill:#ffffff;fill-opacity:1;fill-rule:evenodd;stroke:none"
         d="m 4849.64,1037.84 h 111.6 V 813.199 h -111.6 v 224.641" /><path
         id="path130"
         style="fill:#ffffff;fill-opacity:1;fill-rule:nonzero;stroke:none"
         d="m 4850,813.922 h 111.238 v 223.559 H 4850 Z" /><g
         transform="scale(10)"
         id="g132"><text
           id="text136"
           style="font-variant:normal;font-weight:normal;font-size:20.08805847px;font-family:Arial;-inkscape-font-specification:Arial;writing-mode:lr-tb;fill:#231f20;fill-opacity:1;fill-rule:nonzero;stroke:none"
           transform="matrix(1,0,0,-0.99641291,485,85.6401)"><tspan
             id="tspan134"
             y="0"
             x="0">8</tspan></text>
</g><path
         id="path138"
         style="fill:#ffffff;fill-opacity:1;fill-rule:evenodd;stroke:none"
         d="M 4270.4,612.68 H 4382 V 388.039 H 4270.4 V 612.68" /><path
         id="path140"
         style="fill:#ffffff;fill-opacity:1;fill-rule:nonzero;stroke:none"
         d="m 4270.76,388.762 h 111.238 V 612.321 H 4270.76 Z" /><g
         transform="scale(10)"
         id="g142"><text
           id="text146"
           style="font-variant:normal;font-weight:normal;font-size:20.08805847px;font-family:Arial;-inkscape-font-specification:Arial;writing-mode:lr-tb;fill:#231f20;fill-opacity:1;fill-rule:nonzero;stroke:none"
           transform="matrix(1,0,0,-0.99641291,427.076,43.124)"><tspan
             id="tspan144"
             y="0"
             x="0">7</tspan></text>
</g></g></g></svg>