<?xml version="1.0" encoding="UTF-8" standalone="no"?>
<svg
   xmlns:dc="http://purl.org/dc/elements/1.1/"
   xmlns:cc="http://creativecommons.org/ns#"
   xmlns:rdf="http://www.w3.org/1999/02/22-rdf-syntax-ns#"
   xmlns:svg="http://www.w3.org/2000/svg"
   xmlns="http://www.w3.org/2000/svg"
   viewBox="0 0 382.66666 405.33334"
   height="405.33334"
   width="382.66666"
   xml:space="preserve"
   id="svg2"
   version="1.1"><metadata
     id="metadata8"><rdf:RDF><cc:Work
         rdf:about=""><dc:format>image/svg+xml</dc:format><dc:type
           rdf:resource="http://purl.org/dc/dcmitype/StillImage" /></cc:Work></rdf:RDF></metadata><defs
     id="defs6" /><g
     transform="matrix(1.3333333,0,0,-1.3333333,0,405.33333)"
     id="g10"><g
       transform="scale(0.1)"
       id="g12"><path
         id="path14"
         style="fill:none;stroke:#231f20;stroke-width:2.9763701;stroke-linecap:butt;stroke-linejoin:miter;stroke-miterlimit:10;stroke-dasharray:none;stroke-opacity:1"
         d="m 1079.24,1501.44 h 1585.8 l -488.16,1017 -1097.64,-1017" /><path
         id="path16"
         style="fill:none;stroke:#231f20;stroke-width:2.9763701;stroke-linecap:butt;stroke-linejoin:miter;stroke-miterlimit:10;stroke-dasharray:none;stroke-opacity:1"
         d="M 1079.24,236.398 V 1501.44 l 1097.64,1017 -1097.64,249.12 V 1501.44 L 197.238,938.039 1079.24,236.398" /><path
         id="path18"
         style="fill:none;stroke:#231f20;stroke-width:2.9763701;stroke-linecap:butt;stroke-linejoin:miter;stroke-miterlimit:10;stroke-dasharray:none;stroke-opacity:1"
         d="m 197.238,938.039 882.002,563.401 -882.002,565.2 V 938.039" /><path
         id="path20"
         style="fill:none;stroke:#231f20;stroke-width:2.9763701;stroke-linecap:butt;stroke-linejoin:miter;stroke-miterlimit:10;stroke-dasharray:none;stroke-opacity:1"
         d="M 1079.24,236.398 2176.88,486.602 1079.24,1501.44 V 236.398" /><path
         id="path22"
         style="fill:none;stroke:#231f20;stroke-width:10.00629997;stroke-linecap:square;stroke-linejoin:bevel;stroke-miterlimit:10;stroke-dasharray:none;stroke-opacity:1"
         d="M 2665.04,1501.44 H 1079.24 V 2767.56 L 197.238,2066.64 1079.24,1501.44 2176.88,486.602 2665.04,1501.44" /><path
         id="path24"
         style="fill:none;stroke:#231f20;stroke-width:13.49289989;stroke-linecap:butt;stroke-linejoin:miter;stroke-miterlimit:10;stroke-dasharray:none;stroke-opacity:1"
         d="m 2176.88,486.602 488.16,1014.838 -488.16,1017 -1097.64,249.12 -882.002,-700.92 V 938.039 L 1079.24,236.398 2176.88,486.602" /><path
         id="path26"
         style="fill:#ffffff;fill-opacity:1;fill-rule:evenodd;stroke:none"
         d="m 1028.12,3038.64 h 110.52 V 2817.6 h -110.52 v 221.04" /><path
         id="path28"
         style="fill:#ffffff;fill-opacity:1;fill-rule:nonzero;stroke:none"
         d="m 1027.04,2814 h 110.879 v 223.559 H 1027.04 Z" /><g
         transform="scale(10)"
         id="g30"><text
           id="text34"
           style="font-variant:normal;font-weight:normal;font-size:20.01600075px;font-family:Arial;-inkscape-font-specification:Arial;writing-mode:lr-tb;fill:#231f20;fill-opacity:1;fill-rule:nonzero;stroke:none"
           transform="matrix(1,0,0,-1,102.704,285.648)"><tspan
             id="tspan32"
             y="0"
             x="0">1</tspan></text>
</g><path
         id="path36"
         style="fill:#ffffff;fill-opacity:1;fill-rule:evenodd;stroke:none"
         d="m 2161.04,2797.8 h 110.88 v -223.2 h -110.88 v 223.2" /><path
         id="path38"
         style="fill:#ffffff;fill-opacity:1;fill-rule:nonzero;stroke:none"
         d="m 2161.04,2574.24 h 110.879 v 223.563 H 2161.04 Z" /><g
         transform="scale(10)"
         id="g40"><text
           id="text44"
           style="font-variant:normal;font-weight:normal;font-size:20.01600075px;font-family:Arial;-inkscape-font-specification:Arial;writing-mode:lr-tb;fill:#231f20;fill-opacity:1;fill-rule:nonzero;stroke:none"
           transform="matrix(1,0,0,-1,216.104,261.672)"><tspan
             id="tspan42"
             y="0"
             x="0">5</tspan></text>
</g><path
         id="path46"
         style="fill:#ffffff;fill-opacity:1;fill-rule:evenodd;stroke:none"
         d="M 2763.32,1664.16 H 2874.2 V 1440.6 h -110.88 v 223.56" /><path
         id="path48"
         style="fill:#ffffff;fill-opacity:1;fill-rule:nonzero;stroke:none"
         d="m 2763.32,1440.6 h 110.879 v 223.559 H 2763.32 Z" /><g
         transform="scale(10)"
         id="g50"><text
           id="text54"
           style="font-variant:normal;font-weight:normal;font-size:20.01600075px;font-family:Arial;-inkscape-font-specification:Arial;writing-mode:lr-tb;fill:#231f20;fill-opacity:1;fill-rule:nonzero;stroke:none"
           transform="matrix(1,0,0,-1,276.332,148.308)"><tspan
             id="tspan52"
             y="0"
             x="0">8</tspan></text>
</g><path
         id="path56"
         style="fill:#ffffff;fill-opacity:1;fill-rule:evenodd;stroke:none"
         d="m 2253.56,486.602 h 110.88 V 263.039 h -110.88 v 223.563" /><path
         id="path58"
         style="fill:#ffffff;fill-opacity:1;fill-rule:nonzero;stroke:none"
         d="m 2253.56,263.039 h 110.883 V 486.602 H 2253.56 Z" /><g
         transform="scale(10)"
         id="g60"><text
           id="text64"
           style="font-variant:normal;font-weight:normal;font-size:20.01600075px;font-family:Arial;-inkscape-font-specification:Arial;writing-mode:lr-tb;fill:#231f20;fill-opacity:1;fill-rule:nonzero;stroke:none"
           transform="matrix(1,0,0,-1,225.356,30.5522)"><tspan
             id="tspan62"
             y="0"
             x="0">7</tspan></text>
</g><path
         id="path66"
         style="fill:#ffffff;fill-opacity:1;fill-rule:evenodd;stroke:none"
         d="M 995.719,220.922 H 1106.6 V -2.64063 H 995.719 V 220.922" /><path
         id="path68"
         style="fill:#ffffff;fill-opacity:1;fill-rule:nonzero;stroke:none"
         d="m 995.719,0 h 110.883 V 220.922 H 995.719 Z" /><g
         transform="scale(10)"
         id="g70"><text
           id="text74"
           style="font-variant:normal;font-weight:normal;font-size:20.01600075px;font-family:Arial;-inkscape-font-specification:Arial;writing-mode:lr-tb;fill:#231f20;fill-opacity:1;fill-rule:nonzero;stroke:none"
           transform="matrix(1,0,0,-1,99.5719,3.98419)"><tspan
             id="tspan72"
             y="0"
             x="0">4</tspan></text>
</g><path
         id="path76"
         style="fill:#ffffff;fill-opacity:1;fill-rule:evenodd;stroke:none"
         d="M 54.6797,1004.28 H 165.559 V 781.078 H 54.6797 v 223.202" /><path
         id="path78"
         style="fill:#ffffff;fill-opacity:1;fill-rule:nonzero;stroke:none"
         d="m 54.6797,780.719 h 110.879 v 223.563 H 54.6797 Z" /><g
         transform="scale(10)"
         id="g80"><text
           id="text84"
           style="font-variant:normal;font-weight:normal;font-size:20.01600075px;font-family:Arial;-inkscape-font-specification:Arial;writing-mode:lr-tb;fill:#231f20;fill-opacity:1;fill-rule:nonzero;stroke:none"
           transform="matrix(1,0,0,-1,5.46797,82.3201)"><tspan
             id="tspan82"
             y="0"
             x="0">3</tspan></text>
</g><path
         id="path86"
         style="fill:#ffffff;fill-opacity:1;fill-rule:evenodd;stroke:none"
         d="M 3.55859,2240.52 H 114.441 V 2016.96 H 3.55859 v 223.56" /><path
         id="path88"
         style="fill:#ffffff;fill-opacity:1;fill-rule:nonzero;stroke:none"
         d="m 3.55859,2016.96 h 110.883 v 223.559 H 3.55859 Z" /><g
         transform="scale(10)"
         id="g90"><text
           id="text94"
           style="font-variant:normal;font-weight:normal;font-size:20.01600075px;font-family:Arial;-inkscape-font-specification:Arial;writing-mode:lr-tb;fill:#231f20;fill-opacity:1;fill-rule:nonzero;stroke:none"
           transform="matrix(1,0,0,-1,0.355859,205.944)"><tspan
             id="tspan92"
             y="0"
             x="0">2</tspan></text>
</g><path
         id="path96"
         style="fill:#ffffff;fill-opacity:1;fill-rule:evenodd;stroke:none"
         d="m 1133.24,1327.2 h 110.88 V 1104 h -110.88 v 223.2" /><path
         id="path98"
         style="fill:#ffffff;fill-opacity:1;fill-rule:nonzero;stroke:none"
         d="m 1133.24,1103.64 h 110.883 v 223.559 H 1133.24 Z" /><g
         transform="scale(10)"
         id="g100"><text
           id="text104"
           style="font-variant:normal;font-weight:normal;font-size:20.01600075px;font-family:Arial;-inkscape-font-specification:Arial;writing-mode:lr-tb;fill:#231f20;fill-opacity:1;fill-rule:nonzero;stroke:none"
           transform="matrix(1,0,0,-1,113.324,114.612)"><tspan
             id="tspan102"
             y="0"
             x="0">6</tspan></text>
</g><path
         id="path106"
         style="fill:#ffffff;fill-opacity:1;fill-rule:evenodd;stroke:none"
         d="m 676.762,2159.88 h 110.879 v -223.2 H 676.762 v 223.2" /><path
         id="path108"
         style="fill:#ffffff;fill-opacity:1;fill-rule:nonzero;stroke:none"
         d="m 676.762,1936.32 h 110.879 v 223.559 H 676.762 Z" /><g
         transform="scale(10)"
         id="g110"><text
           id="text114"
           style="font-variant:normal;font-weight:normal;font-size:20.01600075px;font-family:Arial;-inkscape-font-specification:Arial;writing-mode:lr-tb;fill:#231f20;fill-opacity:1;fill-rule:nonzero;stroke:none"
           transform="matrix(1,0,0,-1,67.6762,197.88)"><tspan
             id="tspan112"
             y="0"
             x="0">6</tspan></text>
</g><path
         id="path116"
         style="fill:none;stroke:#231f20;stroke-width:10.00629997;stroke-linecap:butt;stroke-linejoin:miter;stroke-miterlimit:10;stroke-dasharray:none;stroke-opacity:1"
         d="m 748.398,2187.96 c 68.395,0 123.84,-59.48 123.84,-132.84 0,-73.36 -55.445,-132.84 -123.84,-132.84 -68.394,0 -123.839,59.48 -123.839,132.84 0,73.36 55.445,132.84 123.839,132.84" /><path
         id="path118"
         style="fill:#ffffff;fill-opacity:1;fill-rule:evenodd;stroke:none"
         d="m 1274.36,2253.48 h 110.52 v -223.2 h -110.52 v 223.2" /><path
         id="path120"
         style="fill:#ffffff;fill-opacity:1;fill-rule:nonzero;stroke:none"
         d="m 1274.36,2029.92 h 110.879 v 223.559 H 1274.36 Z" /><g
         transform="scale(10)"
         id="g122"><text
           id="text126"
           style="font-variant:normal;font-weight:normal;font-size:20.01600075px;font-family:Arial;-inkscape-font-specification:Arial;writing-mode:lr-tb;fill:#231f20;fill-opacity:1;fill-rule:nonzero;stroke:none"
           transform="matrix(1,0,0,-1,127.436,207.24)"><tspan
             id="tspan124"
             y="0"
             x="0">2</tspan></text>
</g><path
         id="path128"
         style="fill:none;stroke:#231f20;stroke-width:10.00629997;stroke-linecap:butt;stroke-linejoin:miter;stroke-miterlimit:10;stroke-dasharray:none;stroke-opacity:1"
         d="m 1346,2281.56 c 68.39,0 123.84,-59.48 123.84,-132.84 0,-73.36 -55.45,-132.84 -123.84,-132.84 -68.39,0 -123.84,59.48 -123.84,132.84 0,73.36 55.45,132.84 123.84,132.84" /><path
         id="path130"
         style="fill:#ffffff;fill-opacity:1;fill-rule:evenodd;stroke:none"
         d="m 1833.44,1987.8 h 110.88 v -223.2 h -110.88 v 223.2" /><path
         id="path132"
         style="fill:#ffffff;fill-opacity:1;fill-rule:nonzero;stroke:none"
         d="m 1833.44,1764.24 h 110.879 v 223.563 H 1833.44 Z" /><g
         transform="scale(10)"
         id="g134"><text
           id="text138"
           style="font-variant:normal;font-weight:normal;font-size:20.01600075px;font-family:Arial;-inkscape-font-specification:Arial;writing-mode:lr-tb;fill:#231f20;fill-opacity:1;fill-rule:nonzero;stroke:none"
           transform="matrix(1,0,0,-1,183.344,180.672)"><tspan
             id="tspan136"
             y="0"
             x="0">1</tspan></text>
</g><path
         id="path140"
         style="fill:none;stroke:#231f20;stroke-width:10.00629997;stroke-linecap:butt;stroke-linejoin:miter;stroke-miterlimit:10;stroke-dasharray:none;stroke-opacity:1"
         d="m 1905.08,2015.88 c 68.39,0 123.84,-59.48 123.84,-132.84 0,-73.36 -55.45,-132.84 -123.84,-132.84 -68.4,0 -123.84,59.48 -123.84,132.84 0,73.36 55.44,132.84 123.84,132.84" /><path
         id="path142"
         style="fill:#ffffff;fill-opacity:1;fill-rule:evenodd;stroke:none"
         d="m 1899.32,1247.64 h 110.88 v -223.56 h -110.88 v 223.56" /><path
         id="path144"
         style="fill:#ffffff;fill-opacity:1;fill-rule:nonzero;stroke:none"
         d="m 1899.32,1024.08 h 110.879 v 223.559 H 1899.32 Z" /><g
         transform="scale(10)"
         id="g146"><text
           id="text150"
           style="font-variant:normal;font-weight:normal;font-size:20.01600075px;font-family:Arial;-inkscape-font-specification:Arial;writing-mode:lr-tb;fill:#231f20;fill-opacity:1;fill-rule:nonzero;stroke:none"
           transform="matrix(1,0,0,-1,189.932,106.656)"><tspan
             id="tspan148"
             y="0"
             x="0">7</tspan></text>
</g><path
         id="path152"
         style="fill:none;stroke:#231f20;stroke-width:10.00629997;stroke-linecap:butt;stroke-linejoin:miter;stroke-miterlimit:10;stroke-dasharray:none;stroke-opacity:1"
         d="m 1970.96,1275.72 c 68.4,0 123.84,-59.48 123.84,-132.84 0,-73.36 -55.44,-132.84 -123.84,-132.84 -68.39,0 -123.84,59.48 -123.84,132.84 0,73.36 55.45,132.84 123.84,132.84" /><path
         id="path154"
         style="fill:#ffffff;fill-opacity:1;fill-rule:evenodd;stroke:none"
         d="m 1390.64,773.16 h 110.88 V 549.602 H 1390.64 V 773.16" /><path
         id="path156"
         style="fill:#ffffff;fill-opacity:1;fill-rule:nonzero;stroke:none"
         d="m 1390.64,549.602 h 110.879 V 773.161 H 1390.64 Z" /><g
         transform="scale(10)"
         id="g158"><text
           id="text162"
           style="font-variant:normal;font-weight:normal;font-size:20.01600075px;font-family:Arial;-inkscape-font-specification:Arial;writing-mode:lr-tb;fill:#231f20;fill-opacity:1;fill-rule:nonzero;stroke:none"
           transform="matrix(1,0,0,-1,139.064,59.208)"><tspan
             id="tspan160"
             y="0"
             x="0">5</tspan></text>
</g><path
         id="path164"
         style="fill:none;stroke:#231f20;stroke-width:10.00629997;stroke-linecap:butt;stroke-linejoin:miter;stroke-miterlimit:10;stroke-dasharray:none;stroke-opacity:1"
         d="m 1462.28,801.238 c 68.4,0 123.84,-59.476 123.84,-132.84 0,-73.363 -55.44,-132.839 -123.84,-132.839 -68.39,0 -123.84,59.476 -123.84,132.839 0,73.364 55.45,132.84 123.84,132.84" /><path
         id="path166"
         style="fill:#ffffff;fill-opacity:1;fill-rule:evenodd;stroke:none"
         d="M 676.762,1017.24 H 787.641 V 794.039 H 676.762 v 223.201" /><path
         id="path168"
         style="fill:#ffffff;fill-opacity:1;fill-rule:nonzero;stroke:none"
         d="m 676.762,793.68 h 110.879 v 223.559 H 676.762 Z" /><g
         transform="scale(10)"
         id="g170"><text
           id="text174"
           style="font-variant:normal;font-weight:normal;font-size:20.01600075px;font-family:Arial;-inkscape-font-specification:Arial;writing-mode:lr-tb;fill:#231f20;fill-opacity:1;fill-rule:nonzero;stroke:none"
           transform="matrix(1,0,0,-1,67.6762,83.6158)"><tspan
             id="tspan172"
             y="0"
             x="0">3</tspan></text>
</g><path
         id="path176"
         style="fill:none;stroke:#231f20;stroke-width:10.00629997;stroke-linecap:butt;stroke-linejoin:miter;stroke-miterlimit:10;stroke-dasharray:none;stroke-opacity:1"
         d="m 748.398,1045.32 c 68.395,0 123.84,-59.476 123.84,-132.84 0,-73.363 -55.445,-132.839 -123.84,-132.839 -68.394,0 -123.839,59.476 -123.839,132.839 0,73.364 55.445,132.84 123.839,132.84" /><path
         id="path178"
         style="fill:#ffffff;fill-opacity:1;fill-rule:evenodd;stroke:none"
         d="m 428.719,1619.52 h 110.883 v -223.2 H 428.719 v 223.2" /><path
         id="path180"
         style="fill:#ffffff;fill-opacity:1;fill-rule:nonzero;stroke:none"
         d="m 428.719,1395.96 h 110.883 v 223.559 H 428.719 Z" /><g
         transform="scale(10)"
         id="g182"><text
           id="text186"
           style="font-variant:normal;font-weight:normal;font-size:20.01600075px;font-family:Arial;-inkscape-font-specification:Arial;writing-mode:lr-tb;fill:#231f20;fill-opacity:1;fill-rule:nonzero;stroke:none"
           transform="matrix(1,0,0,-1,42.8719,143.844)"><tspan
             id="tspan184"
             y="0"
             x="0">4</tspan></text>
</g><path
         id="path188"
         style="fill:none;stroke:#231f20;stroke-width:10.00629997;stroke-linecap:butt;stroke-linejoin:miter;stroke-miterlimit:10;stroke-dasharray:none;stroke-opacity:1"
         d="m 500.359,1647.6 c 68.395,0 123.84,-59.47 123.84,-132.84 0,-73.36 -55.445,-132.84 -123.84,-132.84 -68.394,0 -123.839,59.48 -123.839,132.84 0,73.37 55.445,132.84 123.839,132.84" /></g></g></svg>