<?xml version="1.0" encoding="UTF-8" standalone="no"?>
<svg
   xmlns:dc="http://purl.org/dc/elements/1.1/"
   xmlns:cc="http://creativecommons.org/ns#"
   xmlns:rdf="http://www.w3.org/1999/02/22-rdf-syntax-ns#"
   xmlns:svg="http://www.w3.org/2000/svg"
   xmlns="http://www.w3.org/2000/svg"
   viewBox="0 0 334.66666 281.33334"
   height="281.33334"
   width="334.66666"
   xml:space="preserve"
   id="svg2"
   version="1.1"><metadata
     id="metadata8"><rdf:RDF><cc:Work
         rdf:about=""><dc:format>image/svg+xml</dc:format><dc:type
           rdf:resource="http://purl.org/dc/dcmitype/StillImage" /></cc:Work></rdf:RDF></metadata><defs
     id="defs6" /><g
     transform="matrix(1.3333333,0,0,-1.3333333,0,281.33333)"
     id="g10"><g
       transform="scale(0.1)"
       id="g12"><path
         id="path14"
         style="fill:none;stroke:#231f20;stroke-width:2.9763701;stroke-linecap:butt;stroke-linejoin:miter;stroke-miterlimit:10;stroke-dasharray:none;stroke-opacity:1"
         d="M 450.281,379.199 V 215.762 L 613.719,379.199 450.281,215.762 H 613.719 V 379.199 H 450.281" /><path
         id="path16"
         style="fill:none;stroke:#231f20;stroke-width:2.9763701;stroke-linecap:butt;stroke-linejoin:miter;stroke-miterlimit:10;stroke-dasharray:none;stroke-opacity:1"
         d="M 613.719,379.199 V 215.762 L 778.602,379.199 613.719,215.762 H 778.602 V 379.199 H 613.719" /><path
         id="path18"
         style="fill:none;stroke:#231f20;stroke-width:2.9763701;stroke-linecap:butt;stroke-linejoin:miter;stroke-miterlimit:10;stroke-dasharray:none;stroke-opacity:1"
         d="M 778.602,379.199 V 215.762 L 945.281,379.199 778.602,215.762 H 945.281 V 379.199 H 778.602" /><path
         id="path20"
         style="fill:none;stroke:#231f20;stroke-width:2.9763701;stroke-linecap:butt;stroke-linejoin:miter;stroke-miterlimit:10;stroke-dasharray:none;stroke-opacity:1"
         d="M 945.281,379.199 V 215.762 L 1108.72,379.199 945.281,215.762 H 1108.72 V 379.199 H 945.281" /><path
         id="path22"
         style="fill:none;stroke:#231f20;stroke-width:2.9763701;stroke-linecap:butt;stroke-linejoin:miter;stroke-miterlimit:10;stroke-dasharray:none;stroke-opacity:1"
         d="M 1108.72,379.199 V 215.762 L 1273.6,379.199 1108.72,215.762 h 164.88 v 163.437 h -164.88" /><path
         id="path24"
         style="fill:none;stroke:#231f20;stroke-width:2.9763701;stroke-linecap:butt;stroke-linejoin:miter;stroke-miterlimit:10;stroke-dasharray:none;stroke-opacity:1"
         d="M 1273.6,379.199 V 215.762 L 1443.16,379.199 1273.6,215.762 h 169.56 V 379.199 H 1273.6" /><path
         id="path26"
         style="fill:none;stroke:#231f20;stroke-width:2.9763701;stroke-linecap:butt;stroke-linejoin:miter;stroke-miterlimit:10;stroke-dasharray:none;stroke-opacity:1"
         d="M 1443.16,379.199 V 215.762 L 1608.4,379.199 1443.16,215.762 h 165.24 v 163.437 h -165.24" /><path
         id="path28"
         style="fill:none;stroke:#231f20;stroke-width:2.9763701;stroke-linecap:butt;stroke-linejoin:miter;stroke-miterlimit:10;stroke-dasharray:none;stroke-opacity:1"
         d="M 1608.4,379.199 V 215.762 L 1774.72,379.199 1608.4,215.762 h 166.32 V 379.199 H 1608.4" /><path
         id="path30"
         style="fill:none;stroke:#231f20;stroke-width:2.9763701;stroke-linecap:butt;stroke-linejoin:miter;stroke-miterlimit:10;stroke-dasharray:none;stroke-opacity:1"
         d="M 1774.72,379.199 V 215.762 l 163.44,163.437 -163.44,-163.437 h 163.44 v 163.437 h -163.44" /><path
         id="path32"
         style="fill:none;stroke:#231f20;stroke-width:2.9763701;stroke-linecap:butt;stroke-linejoin:miter;stroke-miterlimit:10;stroke-dasharray:none;stroke-opacity:1"
         d="M 1938.16,379.199 V 215.762 L 2103.4,379.199 1938.16,215.762 h 165.24 v 163.437 h -165.24" /><path
         id="path34"
         style="fill:none;stroke:#231f20;stroke-width:2.9763701;stroke-linecap:butt;stroke-linejoin:miter;stroke-miterlimit:10;stroke-dasharray:none;stroke-opacity:1"
         d="M 450.281,544.441 V 379.199 L 613.719,544.441 450.281,379.199 H 613.719 V 544.441 H 450.281" /><path
         id="path36"
         style="fill:none;stroke:#231f20;stroke-width:2.9763701;stroke-linecap:butt;stroke-linejoin:miter;stroke-miterlimit:10;stroke-dasharray:none;stroke-opacity:1"
         d="M 613.719,544.441 V 379.199 L 778.602,544.441 613.719,379.199 H 778.602 V 544.441 H 613.719" /><path
         id="path38"
         style="fill:none;stroke:#231f20;stroke-width:2.9763701;stroke-linecap:butt;stroke-linejoin:miter;stroke-miterlimit:10;stroke-dasharray:none;stroke-opacity:1"
         d="M 778.602,544.441 V 379.199 L 945.281,544.441 778.602,379.199 H 945.281 V 544.441 H 778.602" /><path
         id="path40"
         style="fill:none;stroke:#231f20;stroke-width:2.9763701;stroke-linecap:butt;stroke-linejoin:miter;stroke-miterlimit:10;stroke-dasharray:none;stroke-opacity:1"
         d="M 945.281,544.441 V 379.199 L 1108.72,544.441 945.281,379.199 H 1108.72 V 544.441 H 945.281" /><path
         id="path42"
         style="fill:none;stroke:#231f20;stroke-width:2.9763701;stroke-linecap:butt;stroke-linejoin:miter;stroke-miterlimit:10;stroke-dasharray:none;stroke-opacity:1"
         d="M 1108.72,544.441 V 379.199 L 1273.6,544.441 1108.72,379.199 h 164.88 v 165.242 h -164.88" /><path
         id="path44"
         style="fill:none;stroke:#231f20;stroke-width:2.9763701;stroke-linecap:butt;stroke-linejoin:miter;stroke-miterlimit:10;stroke-dasharray:none;stroke-opacity:1"
         d="M 1273.6,544.441 V 379.199 L 1443.16,544.441 1273.6,379.199 h 169.56 V 544.441 H 1273.6" /><path
         id="path46"
         style="fill:none;stroke:#231f20;stroke-width:2.9763701;stroke-linecap:butt;stroke-linejoin:miter;stroke-miterlimit:10;stroke-dasharray:none;stroke-opacity:1"
         d="M 1443.16,544.441 V 379.199 L 1608.4,544.441 1443.16,379.199 h 165.24 v 165.242 h -165.24" /><path
         id="path48"
         style="fill:none;stroke:#231f20;stroke-width:2.9763701;stroke-linecap:butt;stroke-linejoin:miter;stroke-miterlimit:10;stroke-dasharray:none;stroke-opacity:1"
         d="M 1608.4,544.441 V 379.199 L 1774.72,544.441 1608.4,379.199 h 166.32 V 544.441 H 1608.4" /><path
         id="path50"
         style="fill:none;stroke:#231f20;stroke-width:2.9763701;stroke-linecap:butt;stroke-linejoin:miter;stroke-miterlimit:10;stroke-dasharray:none;stroke-opacity:1"
         d="M 1774.72,544.441 V 379.199 l 163.44,165.242 -163.44,-165.242 h 163.44 v 165.242 h -163.44" /><path
         id="path52"
         style="fill:none;stroke:#231f20;stroke-width:2.9763701;stroke-linecap:butt;stroke-linejoin:miter;stroke-miterlimit:10;stroke-dasharray:none;stroke-opacity:1"
         d="M 1938.16,544.441 V 379.199 L 2103.4,544.441 1938.16,379.199 h 165.24 v 165.242 h -165.24" /><path
         id="path54"
         style="fill:none;stroke:#231f20;stroke-width:2.9763701;stroke-linecap:butt;stroke-linejoin:miter;stroke-miterlimit:10;stroke-dasharray:none;stroke-opacity:1"
         d="m 450.281,713.641 v -169.2 l 163.438,169.2 -163.438,-169.2 h 163.438 v 169.2 H 450.281" /><path
         id="path56"
         style="fill:none;stroke:#231f20;stroke-width:2.9763701;stroke-linecap:butt;stroke-linejoin:miter;stroke-miterlimit:10;stroke-dasharray:none;stroke-opacity:1"
         d="m 613.719,713.641 v -169.2 l 164.883,169.2 -164.883,-169.2 h 164.883 v 169.2 H 613.719" /><path
         id="path58"
         style="fill:none;stroke:#231f20;stroke-width:2.9763701;stroke-linecap:butt;stroke-linejoin:miter;stroke-miterlimit:10;stroke-dasharray:none;stroke-opacity:1"
         d="m 778.602,713.641 v -169.2 l 166.679,169.2 -166.679,-169.2 h 166.679 v 169.2 H 778.602" /><path
         id="path60"
         style="fill:none;stroke:#231f20;stroke-width:2.9763701;stroke-linecap:butt;stroke-linejoin:miter;stroke-miterlimit:10;stroke-dasharray:none;stroke-opacity:1"
         d="m 945.281,713.641 v -169.2 l 163.439,169.2 -163.439,-169.2 h 163.439 v 169.2 H 945.281" /><path
         id="path62"
         style="fill:none;stroke:#231f20;stroke-width:2.9763701;stroke-linecap:butt;stroke-linejoin:miter;stroke-miterlimit:10;stroke-dasharray:none;stroke-opacity:1"
         d="m 1108.72,713.641 v -169.2 l 164.88,169.2 -164.88,-169.2 h 164.88 v 169.2 h -164.88" /><path
         id="path64"
         style="fill:none;stroke:#231f20;stroke-width:2.9763701;stroke-linecap:butt;stroke-linejoin:miter;stroke-miterlimit:10;stroke-dasharray:none;stroke-opacity:1"
         d="m 1273.6,713.641 v -169.2 l 169.56,169.2 -169.56,-169.2 h 169.56 v 169.2 H 1273.6" /><path
         id="path66"
         style="fill:none;stroke:#231f20;stroke-width:2.9763701;stroke-linecap:butt;stroke-linejoin:miter;stroke-miterlimit:10;stroke-dasharray:none;stroke-opacity:1"
         d="m 1443.16,713.641 v -169.2 l 165.24,169.2 -165.24,-169.2 h 165.24 v 169.2 h -165.24" /><path
         id="path68"
         style="fill:none;stroke:#231f20;stroke-width:2.9763701;stroke-linecap:butt;stroke-linejoin:miter;stroke-miterlimit:10;stroke-dasharray:none;stroke-opacity:1"
         d="m 1608.4,713.641 v -169.2 l 166.32,169.2 -166.32,-169.2 h 166.32 v 169.2 H 1608.4" /><path
         id="path70"
         style="fill:none;stroke:#231f20;stroke-width:2.9763701;stroke-linecap:butt;stroke-linejoin:miter;stroke-miterlimit:10;stroke-dasharray:none;stroke-opacity:1"
         d="m 1774.72,713.641 v -169.2 l 163.44,169.2 -163.44,-169.2 h 163.44 v 169.2 h -163.44" /><path
         id="path72"
         style="fill:none;stroke:#231f20;stroke-width:2.9763701;stroke-linecap:butt;stroke-linejoin:miter;stroke-miterlimit:10;stroke-dasharray:none;stroke-opacity:1"
         d="m 1938.16,713.641 v -169.2 l 165.24,169.2 -165.24,-169.2 h 165.24 v 169.2 h -165.24" /><path
         id="path74"
         style="fill:none;stroke:#231f20;stroke-width:2.9763701;stroke-linecap:butt;stroke-linejoin:miter;stroke-miterlimit:10;stroke-dasharray:none;stroke-opacity:1"
         d="M 450.281,878.879 V 714 L 613.719,878.879 450.281,714 H 613.719 V 878.879 H 450.281" /><path
         id="path76"
         style="fill:none;stroke:#231f20;stroke-width:2.9763701;stroke-linecap:butt;stroke-linejoin:miter;stroke-miterlimit:10;stroke-dasharray:none;stroke-opacity:1"
         d="M 613.719,878.879 V 714 L 778.602,878.879 613.719,714 H 778.602 V 878.879 H 613.719" /><path
         id="path78"
         style="fill:none;stroke:#231f20;stroke-width:2.9763701;stroke-linecap:butt;stroke-linejoin:miter;stroke-miterlimit:10;stroke-dasharray:none;stroke-opacity:1"
         d="M 778.602,878.879 V 714 L 945.281,878.879 778.602,714 H 945.281 V 878.879 H 778.602" /><path
         id="path80"
         style="fill:none;stroke:#231f20;stroke-width:2.9763701;stroke-linecap:butt;stroke-linejoin:miter;stroke-miterlimit:10;stroke-dasharray:none;stroke-opacity:1"
         d="M 945.281,878.879 V 714 L 1108.72,878.879 945.281,714 H 1108.72 V 878.879 H 945.281" /><path
         id="path82"
         style="fill:none;stroke:#231f20;stroke-width:2.9763701;stroke-linecap:butt;stroke-linejoin:miter;stroke-miterlimit:10;stroke-dasharray:none;stroke-opacity:1"
         d="M 1108.72,878.879 V 714 L 1273.6,878.879 1108.72,714 h 164.88 v 164.879 h -164.88" /><path
         id="path84"
         style="fill:none;stroke:#231f20;stroke-width:2.9763701;stroke-linecap:butt;stroke-linejoin:miter;stroke-miterlimit:10;stroke-dasharray:none;stroke-opacity:1"
         d="M 1273.6,878.879 V 714 L 1443.16,878.879 1273.6,714 h 169.56 V 878.879 H 1273.6" /><path
         id="path86"
         style="fill:none;stroke:#231f20;stroke-width:2.9763701;stroke-linecap:butt;stroke-linejoin:miter;stroke-miterlimit:10;stroke-dasharray:none;stroke-opacity:1"
         d="M 1443.16,878.879 V 714 L 1608.4,878.879 1443.16,714 h 165.24 v 164.879 h -165.24" /><path
         id="path88"
         style="fill:none;stroke:#231f20;stroke-width:2.9763701;stroke-linecap:butt;stroke-linejoin:miter;stroke-miterlimit:10;stroke-dasharray:none;stroke-opacity:1"
         d="M 1608.4,878.879 V 714 L 1774.72,878.879 1608.4,714 h 166.32 V 878.879 H 1608.4" /><path
         id="path90"
         style="fill:none;stroke:#231f20;stroke-width:2.9763701;stroke-linecap:butt;stroke-linejoin:miter;stroke-miterlimit:10;stroke-dasharray:none;stroke-opacity:1"
         d="M 1774.72,878.879 V 714 L 1938.16,878.879 1774.72,714 h 163.44 v 164.879 h -163.44" /><path
         id="path92"
         style="fill:none;stroke:#231f20;stroke-width:2.9763701;stroke-linecap:butt;stroke-linejoin:miter;stroke-miterlimit:10;stroke-dasharray:none;stroke-opacity:1"
         d="M 1938.16,878.879 V 714 L 2103.4,878.879 1938.16,714 h 165.24 v 164.879 h -165.24" /><path
         id="path94"
         style="fill:none;stroke:#231f20;stroke-width:2.9763701;stroke-linecap:butt;stroke-linejoin:miter;stroke-miterlimit:10;stroke-dasharray:none;stroke-opacity:1"
         d="M 450.281,1045.2 V 878.879 L 613.719,1045.2 450.281,878.879 H 613.719 V 1045.2 H 450.281" /><path
         id="path96"
         style="fill:none;stroke:#231f20;stroke-width:2.9763701;stroke-linecap:butt;stroke-linejoin:miter;stroke-miterlimit:10;stroke-dasharray:none;stroke-opacity:1"
         d="M 613.719,1045.2 V 878.879 L 778.602,1045.2 613.719,878.879 H 778.602 V 1045.2 H 613.719" /><path
         id="path98"
         style="fill:none;stroke:#231f20;stroke-width:2.9763701;stroke-linecap:butt;stroke-linejoin:miter;stroke-miterlimit:10;stroke-dasharray:none;stroke-opacity:1"
         d="M 778.602,1045.2 V 878.879 L 945.281,1045.2 778.602,878.879 H 945.281 V 1045.2 H 778.602" /><path
         id="path100"
         style="fill:none;stroke:#231f20;stroke-width:2.9763701;stroke-linecap:butt;stroke-linejoin:miter;stroke-miterlimit:10;stroke-dasharray:none;stroke-opacity:1"
         d="M 945.281,1045.2 V 878.879 L 1108.72,1045.2 945.281,878.879 H 1108.72 V 1045.2 H 945.281" /><path
         id="path102"
         style="fill:none;stroke:#231f20;stroke-width:2.9763701;stroke-linecap:butt;stroke-linejoin:miter;stroke-miterlimit:10;stroke-dasharray:none;stroke-opacity:1"
         d="M 1108.72,1045.2 V 878.879 L 1273.6,1045.2 1108.72,878.879 H 1273.6 V 1045.2 h -164.88" /><path
         id="path104"
         style="fill:none;stroke:#231f20;stroke-width:2.9763701;stroke-linecap:butt;stroke-linejoin:miter;stroke-miterlimit:10;stroke-dasharray:none;stroke-opacity:1"
         d="M 1273.6,1045.2 V 878.879 L 1443.16,1045.2 1273.6,878.879 h 169.56 V 1045.2 H 1273.6" /><path
         id="path106"
         style="fill:none;stroke:#231f20;stroke-width:2.9763701;stroke-linecap:butt;stroke-linejoin:miter;stroke-miterlimit:10;stroke-dasharray:none;stroke-opacity:1"
         d="M 1443.16,1045.2 V 878.879 L 1608.4,1045.2 1443.16,878.879 H 1608.4 V 1045.2 h -165.24" /><path
         id="path108"
         style="fill:none;stroke:#231f20;stroke-width:2.9763701;stroke-linecap:butt;stroke-linejoin:miter;stroke-miterlimit:10;stroke-dasharray:none;stroke-opacity:1"
         d="M 1608.4,1045.2 V 878.879 L 1774.72,1045.2 1608.4,878.879 h 166.32 V 1045.2 H 1608.4" /><path
         id="path110"
         style="fill:none;stroke:#231f20;stroke-width:2.9763701;stroke-linecap:butt;stroke-linejoin:miter;stroke-miterlimit:10;stroke-dasharray:none;stroke-opacity:1"
         d="M 1774.72,1045.2 V 878.879 L 1938.16,1045.2 1774.72,878.879 h 163.44 V 1045.2 h -163.44" /><path
         id="path112"
         style="fill:none;stroke:#231f20;stroke-width:2.9763701;stroke-linecap:butt;stroke-linejoin:miter;stroke-miterlimit:10;stroke-dasharray:none;stroke-opacity:1"
         d="M 1938.16,1045.2 V 878.879 L 2103.4,1045.2 1938.16,878.879 H 2103.4 V 1045.2 h -165.24" /><path
         id="path114"
         style="fill:none;stroke:#231f20;stroke-width:2.9763701;stroke-linecap:butt;stroke-linejoin:miter;stroke-miterlimit:10;stroke-dasharray:none;stroke-opacity:1"
         d="M 450.281,1208.64 V 1045.2 L 613.719,1208.64 450.281,1045.2 h 163.438 v 163.44 H 450.281" /><path
         id="path116"
         style="fill:none;stroke:#231f20;stroke-width:2.9763701;stroke-linecap:butt;stroke-linejoin:miter;stroke-miterlimit:10;stroke-dasharray:none;stroke-opacity:1"
         d="M 613.719,1208.64 V 1045.2 L 778.602,1208.64 613.719,1045.2 h 164.883 v 163.44 H 613.719" /><path
         id="path118"
         style="fill:none;stroke:#231f20;stroke-width:2.9763701;stroke-linecap:butt;stroke-linejoin:miter;stroke-miterlimit:10;stroke-dasharray:none;stroke-opacity:1"
         d="M 778.602,1208.64 V 1045.2 L 945.281,1208.64 778.602,1045.2 h 166.679 v 163.44 H 778.602" /><path
         id="path120"
         style="fill:none;stroke:#231f20;stroke-width:2.9763701;stroke-linecap:butt;stroke-linejoin:miter;stroke-miterlimit:10;stroke-dasharray:none;stroke-opacity:1"
         d="M 945.281,1208.64 V 1045.2 L 1108.72,1208.64 945.281,1045.2 h 163.439 v 163.44 H 945.281" /><path
         id="path122"
         style="fill:none;stroke:#231f20;stroke-width:2.9763701;stroke-linecap:butt;stroke-linejoin:miter;stroke-miterlimit:10;stroke-dasharray:none;stroke-opacity:1"
         d="M 1108.72,1208.64 V 1045.2 l 164.88,163.44 -164.88,-163.44 h 164.88 v 163.44 h -164.88" /><path
         id="path124"
         style="fill:none;stroke:#231f20;stroke-width:2.9763701;stroke-linecap:butt;stroke-linejoin:miter;stroke-miterlimit:10;stroke-dasharray:none;stroke-opacity:1"
         d="M 1273.6,1208.64 V 1045.2 l 169.56,163.44 -169.56,-163.44 h 169.56 v 163.44 H 1273.6" /><path
         id="path126"
         style="fill:none;stroke:#231f20;stroke-width:2.9763701;stroke-linecap:butt;stroke-linejoin:miter;stroke-miterlimit:10;stroke-dasharray:none;stroke-opacity:1"
         d="M 1443.16,1208.64 V 1045.2 l 165.24,163.44 -165.24,-163.44 h 165.24 v 163.44 h -165.24" /><path
         id="path128"
         style="fill:none;stroke:#231f20;stroke-width:2.9763701;stroke-linecap:butt;stroke-linejoin:miter;stroke-miterlimit:10;stroke-dasharray:none;stroke-opacity:1"
         d="M 1608.4,1208.64 V 1045.2 l 166.32,163.44 -166.32,-163.44 h 166.32 v 163.44 H 1608.4" /><path
         id="path130"
         style="fill:none;stroke:#231f20;stroke-width:2.9763701;stroke-linecap:butt;stroke-linejoin:miter;stroke-miterlimit:10;stroke-dasharray:none;stroke-opacity:1"
         d="M 1774.72,1208.64 V 1045.2 l 163.44,163.44 -163.44,-163.44 h 163.44 v 163.44 h -163.44" /><path
         id="path132"
         style="fill:none;stroke:#231f20;stroke-width:2.9763701;stroke-linecap:butt;stroke-linejoin:miter;stroke-miterlimit:10;stroke-dasharray:none;stroke-opacity:1"
         d="M 1938.16,1208.64 V 1045.2 l 165.24,163.44 -165.24,-163.44 h 165.24 v 163.44 h -165.24" /><path
         id="path134"
         style="fill:none;stroke:#231f20;stroke-width:2.9763701;stroke-linecap:butt;stroke-linejoin:miter;stroke-miterlimit:10;stroke-dasharray:none;stroke-opacity:1"
         d="M 450.281,1373.88 V 1209 L 613.719,1373.88 450.281,1209 h 163.438 v 164.88 H 450.281" /><path
         id="path136"
         style="fill:none;stroke:#231f20;stroke-width:2.9763701;stroke-linecap:butt;stroke-linejoin:miter;stroke-miterlimit:10;stroke-dasharray:none;stroke-opacity:1"
         d="M 613.719,1373.88 V 1209 L 778.602,1373.88 613.719,1209 h 164.883 v 164.88 H 613.719" /><path
         id="path138"
         style="fill:none;stroke:#231f20;stroke-width:2.9763701;stroke-linecap:butt;stroke-linejoin:miter;stroke-miterlimit:10;stroke-dasharray:none;stroke-opacity:1"
         d="M 778.602,1373.88 V 1209 L 945.281,1373.88 778.602,1209 h 166.679 v 164.88 H 778.602" /><path
         id="path140"
         style="fill:none;stroke:#231f20;stroke-width:2.9763701;stroke-linecap:butt;stroke-linejoin:miter;stroke-miterlimit:10;stroke-dasharray:none;stroke-opacity:1"
         d="M 945.281,1373.88 V 1209 L 1108.72,1373.88 945.281,1209 h 163.439 v 164.88 H 945.281" /><path
         id="path142"
         style="fill:none;stroke:#231f20;stroke-width:2.9763701;stroke-linecap:butt;stroke-linejoin:miter;stroke-miterlimit:10;stroke-dasharray:none;stroke-opacity:1"
         d="M 1108.72,1373.88 V 1209 L 1273.6,1373.88 1108.72,1209 h 164.88 v 164.88 h -164.88" /><path
         id="path144"
         style="fill:none;stroke:#231f20;stroke-width:2.9763701;stroke-linecap:butt;stroke-linejoin:miter;stroke-miterlimit:10;stroke-dasharray:none;stroke-opacity:1"
         d="M 1273.6,1373.88 V 1209 L 1443.16,1373.88 1273.6,1209 h 169.56 v 164.88 H 1273.6" /><path
         id="path146"
         style="fill:none;stroke:#231f20;stroke-width:2.9763701;stroke-linecap:butt;stroke-linejoin:miter;stroke-miterlimit:10;stroke-dasharray:none;stroke-opacity:1"
         d="M 1443.16,1373.88 V 1209 L 1608.4,1373.88 1443.16,1209 h 165.24 v 164.88 h -165.24" /><path
         id="path148"
         style="fill:none;stroke:#231f20;stroke-width:2.9763701;stroke-linecap:butt;stroke-linejoin:miter;stroke-miterlimit:10;stroke-dasharray:none;stroke-opacity:1"
         d="M 1608.4,1373.88 V 1209 L 1774.72,1373.88 1608.4,1209 h 166.32 v 164.88 H 1608.4" /><path
         id="path150"
         style="fill:none;stroke:#231f20;stroke-width:2.9763701;stroke-linecap:butt;stroke-linejoin:miter;stroke-miterlimit:10;stroke-dasharray:none;stroke-opacity:1"
         d="M 1774.72,1373.88 V 1209 L 1938.16,1373.88 1774.72,1209 h 163.44 v 164.88 h -163.44" /><path
         id="path152"
         style="fill:none;stroke:#231f20;stroke-width:2.9763701;stroke-linecap:butt;stroke-linejoin:miter;stroke-miterlimit:10;stroke-dasharray:none;stroke-opacity:1"
         d="M 1938.16,1373.88 V 1209 L 2103.4,1373.88 1938.16,1209 h 165.24 v 164.88 h -165.24" /><path
         id="path154"
         style="fill:none;stroke:#231f20;stroke-width:2.9763701;stroke-linecap:butt;stroke-linejoin:miter;stroke-miterlimit:10;stroke-dasharray:none;stroke-opacity:1"
         d="m 450.281,1538.76 v -164.88 l 163.438,164.88 -163.438,-164.88 h 163.438 v 164.88 H 450.281" /><path
         id="path156"
         style="fill:none;stroke:#231f20;stroke-width:2.9763701;stroke-linecap:butt;stroke-linejoin:miter;stroke-miterlimit:10;stroke-dasharray:none;stroke-opacity:1"
         d="m 613.719,1538.76 v -164.88 l 164.883,164.88 -164.883,-164.88 h 164.883 v 164.88 H 613.719" /><path
         id="path158"
         style="fill:none;stroke:#231f20;stroke-width:2.9763701;stroke-linecap:butt;stroke-linejoin:miter;stroke-miterlimit:10;stroke-dasharray:none;stroke-opacity:1"
         d="m 778.602,1538.76 v -164.88 l 166.679,164.88 -166.679,-164.88 h 166.679 v 164.88 H 778.602" /><path
         id="path160"
         style="fill:none;stroke:#231f20;stroke-width:2.9763701;stroke-linecap:butt;stroke-linejoin:miter;stroke-miterlimit:10;stroke-dasharray:none;stroke-opacity:1"
         d="m 945.281,1538.76 v -164.88 l 163.439,164.88 -163.439,-164.88 h 163.439 v 164.88 H 945.281" /><path
         id="path162"
         style="fill:none;stroke:#231f20;stroke-width:2.9763701;stroke-linecap:butt;stroke-linejoin:miter;stroke-miterlimit:10;stroke-dasharray:none;stroke-opacity:1"
         d="m 1108.72,1538.76 v -164.88 l 164.88,164.88 -164.88,-164.88 h 164.88 v 164.88 h -164.88" /><path
         id="path164"
         style="fill:none;stroke:#231f20;stroke-width:2.9763701;stroke-linecap:butt;stroke-linejoin:miter;stroke-miterlimit:10;stroke-dasharray:none;stroke-opacity:1"
         d="m 1273.6,1538.76 v -164.88 l 169.56,164.88 -169.56,-164.88 h 169.56 v 164.88 H 1273.6" /><path
         id="path166"
         style="fill:none;stroke:#231f20;stroke-width:2.9763701;stroke-linecap:butt;stroke-linejoin:miter;stroke-miterlimit:10;stroke-dasharray:none;stroke-opacity:1"
         d="m 1443.16,1538.76 v -164.88 l 165.24,164.88 -165.24,-164.88 h 165.24 v 164.88 h -165.24" /><path
         id="path168"
         style="fill:none;stroke:#231f20;stroke-width:2.9763701;stroke-linecap:butt;stroke-linejoin:miter;stroke-miterlimit:10;stroke-dasharray:none;stroke-opacity:1"
         d="m 1608.4,1538.76 v -164.88 l 166.32,164.88 -166.32,-164.88 h 166.32 v 164.88 H 1608.4" /><path
         id="path170"
         style="fill:none;stroke:#231f20;stroke-width:2.9763701;stroke-linecap:butt;stroke-linejoin:miter;stroke-miterlimit:10;stroke-dasharray:none;stroke-opacity:1"
         d="m 1774.72,1538.76 v -164.88 l 163.44,164.88 -163.44,-164.88 h 163.44 v 164.88 h -163.44" /><path
         id="path172"
         style="fill:none;stroke:#231f20;stroke-width:2.9763701;stroke-linecap:butt;stroke-linejoin:miter;stroke-miterlimit:10;stroke-dasharray:none;stroke-opacity:1"
         d="m 1938.16,1538.76 v -164.88 l 165.24,164.88 -165.24,-164.88 h 165.24 v 164.88 h -165.24" /><path
         id="path174"
         style="fill:none;stroke:#231f20;stroke-width:2.9763701;stroke-linecap:butt;stroke-linejoin:miter;stroke-miterlimit:10;stroke-dasharray:none;stroke-opacity:1"
         d="m 450.281,1708.32 v -169.56 l 163.438,169.56 -163.438,-169.56 h 163.438 v 169.56 H 450.281" /><path
         id="path176"
         style="fill:none;stroke:#231f20;stroke-width:2.9763701;stroke-linecap:butt;stroke-linejoin:miter;stroke-miterlimit:10;stroke-dasharray:none;stroke-opacity:1"
         d="m 613.719,1708.32 v -169.56 l 164.883,169.56 -164.883,-169.56 h 164.883 v 169.56 H 613.719" /><path
         id="path178"
         style="fill:none;stroke:#231f20;stroke-width:2.9763701;stroke-linecap:butt;stroke-linejoin:miter;stroke-miterlimit:10;stroke-dasharray:none;stroke-opacity:1"
         d="m 778.602,1708.32 v -169.56 l 166.679,169.56 -166.679,-169.56 h 166.679 v 169.56 H 778.602" /><path
         id="path180"
         style="fill:none;stroke:#231f20;stroke-width:2.9763701;stroke-linecap:butt;stroke-linejoin:miter;stroke-miterlimit:10;stroke-dasharray:none;stroke-opacity:1"
         d="m 945.281,1708.32 v -169.56 l 163.439,169.56 -163.439,-169.56 h 163.439 v 169.56 H 945.281" /><path
         id="path182"
         style="fill:none;stroke:#231f20;stroke-width:2.9763701;stroke-linecap:butt;stroke-linejoin:miter;stroke-miterlimit:10;stroke-dasharray:none;stroke-opacity:1"
         d="m 1108.72,1708.32 v -169.56 l 164.88,169.56 -164.88,-169.56 h 164.88 v 169.56 h -164.88" /><path
         id="path184"
         style="fill:none;stroke:#231f20;stroke-width:2.9763701;stroke-linecap:butt;stroke-linejoin:miter;stroke-miterlimit:10;stroke-dasharray:none;stroke-opacity:1"
         d="m 1273.6,1708.32 v -169.56 l 169.56,169.56 -169.56,-169.56 h 169.56 v 169.56 H 1273.6" /><path
         id="path186"
         style="fill:none;stroke:#231f20;stroke-width:2.9763701;stroke-linecap:butt;stroke-linejoin:miter;stroke-miterlimit:10;stroke-dasharray:none;stroke-opacity:1"
         d="m 1443.16,1708.32 v -169.56 l 165.24,169.56 -165.24,-169.56 h 165.24 v 169.56 h -165.24" /><path
         id="path188"
         style="fill:none;stroke:#231f20;stroke-width:2.9763701;stroke-linecap:butt;stroke-linejoin:miter;stroke-miterlimit:10;stroke-dasharray:none;stroke-opacity:1"
         d="m 1608.4,1708.32 v -169.56 l 166.32,169.56 -166.32,-169.56 h 166.32 v 169.56 H 1608.4" /><path
         id="path190"
         style="fill:none;stroke:#231f20;stroke-width:2.9763701;stroke-linecap:butt;stroke-linejoin:miter;stroke-miterlimit:10;stroke-dasharray:none;stroke-opacity:1"
         d="m 1774.72,1708.32 v -169.56 l 163.44,169.56 -163.44,-169.56 h 163.44 v 169.56 h -163.44" /><path
         id="path192"
         style="fill:none;stroke:#231f20;stroke-width:2.9763701;stroke-linecap:butt;stroke-linejoin:miter;stroke-miterlimit:10;stroke-dasharray:none;stroke-opacity:1"
         d="m 1938.16,1708.32 v -169.56 l 165.24,169.56 -165.24,-169.56 h 165.24 v 169.56 h -165.24" /><path
         id="path194"
         style="fill:none;stroke:#231f20;stroke-width:2.9763701;stroke-linecap:butt;stroke-linejoin:miter;stroke-miterlimit:10;stroke-dasharray:none;stroke-opacity:1"
         d="M 450.281,1873.2 V 1708.32 L 613.719,1873.2 450.281,1708.32 H 613.719 V 1873.2 H 450.281" /><path
         id="path196"
         style="fill:none;stroke:#231f20;stroke-width:2.9763701;stroke-linecap:butt;stroke-linejoin:miter;stroke-miterlimit:10;stroke-dasharray:none;stroke-opacity:1"
         d="M 613.719,1873.2 V 1708.32 L 778.602,1873.2 613.719,1708.32 H 778.602 V 1873.2 H 613.719" /><path
         id="path198"
         style="fill:none;stroke:#231f20;stroke-width:2.9763701;stroke-linecap:butt;stroke-linejoin:miter;stroke-miterlimit:10;stroke-dasharray:none;stroke-opacity:1"
         d="M 778.602,1873.2 V 1708.32 L 945.281,1873.2 778.602,1708.32 H 945.281 V 1873.2 H 778.602" /><path
         id="path200"
         style="fill:none;stroke:#231f20;stroke-width:2.9763701;stroke-linecap:butt;stroke-linejoin:miter;stroke-miterlimit:10;stroke-dasharray:none;stroke-opacity:1"
         d="M 945.281,1873.2 V 1708.32 L 1108.72,1873.2 945.281,1708.32 H 1108.72 V 1873.2 H 945.281" /><path
         id="path202"
         style="fill:none;stroke:#231f20;stroke-width:2.9763701;stroke-linecap:butt;stroke-linejoin:miter;stroke-miterlimit:10;stroke-dasharray:none;stroke-opacity:1"
         d="M 1108.72,1873.2 V 1708.32 L 1273.6,1873.2 1108.72,1708.32 H 1273.6 V 1873.2 H 1108.72" /><path
         id="path204"
         style="fill:none;stroke:#231f20;stroke-width:2.9763701;stroke-linecap:butt;stroke-linejoin:miter;stroke-miterlimit:10;stroke-dasharray:none;stroke-opacity:1"
         d="m 1273.6,1873.2 v -164.88 l 169.56,164.88 -169.56,-164.88 h 169.56 V 1873.2 H 1273.6" /><path
         id="path206"
         style="fill:none;stroke:#231f20;stroke-width:2.9763701;stroke-linecap:butt;stroke-linejoin:miter;stroke-miterlimit:10;stroke-dasharray:none;stroke-opacity:1"
         d="M 1443.16,1873.2 V 1708.32 L 1608.4,1873.2 1443.16,1708.32 H 1608.4 V 1873.2 H 1443.16" /><path
         id="path208"
         style="fill:none;stroke:#231f20;stroke-width:2.9763701;stroke-linecap:butt;stroke-linejoin:miter;stroke-miterlimit:10;stroke-dasharray:none;stroke-opacity:1"
         d="m 1608.4,1873.2 v -164.88 l 166.32,164.88 -166.32,-164.88 h 166.32 V 1873.2 H 1608.4" /><path
         id="path210"
         style="fill:none;stroke:#231f20;stroke-width:2.9763701;stroke-linecap:butt;stroke-linejoin:miter;stroke-miterlimit:10;stroke-dasharray:none;stroke-opacity:1"
         d="m 1774.72,1873.2 v -164.88 l 163.44,164.88 -163.44,-164.88 h 163.44 v 164.88 h -163.44" /><path
         id="path212"
         style="fill:none;stroke:#231f20;stroke-width:2.9763701;stroke-linecap:butt;stroke-linejoin:miter;stroke-miterlimit:10;stroke-dasharray:none;stroke-opacity:1"
         d="M 1938.16,1873.2 V 1708.32 L 2103.4,1873.2 1938.16,1708.32 H 2103.4 V 1873.2 H 1938.16" /><path
         id="path214"
         style="fill:none;stroke:#f36318;stroke-width:13.49289989;stroke-linecap:butt;stroke-linejoin:miter;stroke-miterlimit:10;stroke-dasharray:none;stroke-opacity:1"
         d="M 450.281,215.762 H 2103.4" /><path
         id="path216"
         style="fill:none;stroke:#f9ab0c;stroke-width:13.49289989;stroke-linecap:butt;stroke-linejoin:miter;stroke-miterlimit:10;stroke-dasharray:none;stroke-opacity:1"
         d="M 2103.4,215.762 V 1873.2" /><path
         id="path218"
         style="fill:none;stroke:#fff200;stroke-width:13.49289989;stroke-linecap:butt;stroke-linejoin:miter;stroke-miterlimit:10;stroke-dasharray:none;stroke-opacity:1"
         d="M 450.281,1873.2 H 2103.4" /><path
         id="path220"
         style="fill:none;stroke:#fff200;stroke-width:13.49289989;stroke-linecap:butt;stroke-linejoin:miter;stroke-miterlimit:10;stroke-dasharray:none;stroke-opacity:1"
         d="M 450.281,215.762 V 1873.2" /><path
         id="path222"
         style="fill:none;stroke:#fff200;stroke-width:13.49289989;stroke-linecap:butt;stroke-linejoin:miter;stroke-miterlimit:10;stroke-dasharray:none;stroke-opacity:1"
         d="M 450.281,215.762 424.719,190.199" /><path
         id="path224"
         style="fill:none;stroke:#fff200;stroke-width:13.49289989;stroke-linecap:butt;stroke-linejoin:miter;stroke-miterlimit:10;stroke-dasharray:none;stroke-opacity:1"
         d="m 613.719,215.762 v -36" /><path
         id="path226"
         style="fill:none;stroke:#fff200;stroke-width:13.49289989;stroke-linecap:butt;stroke-linejoin:miter;stroke-miterlimit:10;stroke-dasharray:none;stroke-opacity:1"
         d="m 778.602,215.762 v -36" /><path
         id="path228"
         style="fill:none;stroke:#fff200;stroke-width:13.49289989;stroke-linecap:butt;stroke-linejoin:miter;stroke-miterlimit:10;stroke-dasharray:none;stroke-opacity:1"
         d="m 945.281,215.762 v -36" /><path
         id="path230"
         style="fill:none;stroke:#fff200;stroke-width:13.49289989;stroke-linecap:butt;stroke-linejoin:miter;stroke-miterlimit:10;stroke-dasharray:none;stroke-opacity:1"
         d="m 1108.72,215.762 v -36" /><path
         id="path232"
         style="fill:none;stroke:#fff200;stroke-width:13.49289989;stroke-linecap:butt;stroke-linejoin:miter;stroke-miterlimit:10;stroke-dasharray:none;stroke-opacity:1"
         d="m 1273.6,215.762 v -36" /><path
         id="path234"
         style="fill:none;stroke:#fff200;stroke-width:13.49289989;stroke-linecap:butt;stroke-linejoin:miter;stroke-miterlimit:10;stroke-dasharray:none;stroke-opacity:1"
         d="m 1443.16,215.762 v -36" /><path
         id="path236"
         style="fill:none;stroke:#fff200;stroke-width:13.49289989;stroke-linecap:butt;stroke-linejoin:miter;stroke-miterlimit:10;stroke-dasharray:none;stroke-opacity:1"
         d="m 1608.4,215.762 v -36" /><path
         id="path238"
         style="fill:none;stroke:#fff200;stroke-width:13.49289989;stroke-linecap:butt;stroke-linejoin:miter;stroke-miterlimit:10;stroke-dasharray:none;stroke-opacity:1"
         d="m 1774.72,215.762 v -36" /><path
         id="path240"
         style="fill:none;stroke:#fff200;stroke-width:13.49289989;stroke-linecap:butt;stroke-linejoin:miter;stroke-miterlimit:10;stroke-dasharray:none;stroke-opacity:1"
         d="m 1938.16,215.762 v -36" /><path
         id="path242"
         style="fill:none;stroke:#fff200;stroke-width:13.49289989;stroke-linecap:butt;stroke-linejoin:miter;stroke-miterlimit:10;stroke-dasharray:none;stroke-opacity:1"
         d="m 2103.4,215.762 25.2,-25.563" /><path
         id="path244"
         style="fill:none;stroke:#fff200;stroke-width:13.49289989;stroke-linecap:butt;stroke-linejoin:miter;stroke-miterlimit:10;stroke-dasharray:none;stroke-opacity:1"
         d="m 450.281,379.199 h -36" /><path
         id="path246"
         style="fill:none;stroke:#fff200;stroke-width:13.49289989;stroke-linecap:butt;stroke-linejoin:miter;stroke-miterlimit:10;stroke-dasharray:none;stroke-opacity:1"
         d="m 2103.4,379.199 h 34.2" /><path
         id="path248"
         style="fill:none;stroke:#fff200;stroke-width:13.49289989;stroke-linecap:butt;stroke-linejoin:miter;stroke-miterlimit:10;stroke-dasharray:none;stroke-opacity:1"
         d="m 450.281,544.441 h -36" /><path
         id="path250"
         style="fill:none;stroke:#fff200;stroke-width:13.49289989;stroke-linecap:butt;stroke-linejoin:miter;stroke-miterlimit:10;stroke-dasharray:none;stroke-opacity:1"
         d="m 2103.4,544.441 h 34.2" /><path
         id="path252"
         style="fill:none;stroke:#fff200;stroke-width:13.49289989;stroke-linecap:butt;stroke-linejoin:miter;stroke-miterlimit:10;stroke-dasharray:none;stroke-opacity:1"
         d="m 450.281,713.641 h -36" /><path
         id="path254"
         style="fill:none;stroke:#fff200;stroke-width:13.49289989;stroke-linecap:butt;stroke-linejoin:miter;stroke-miterlimit:10;stroke-dasharray:none;stroke-opacity:1"
         d="m 2103.4,713.641 h 34.2" /><path
         id="path256"
         style="fill:none;stroke:#fff200;stroke-width:13.49289989;stroke-linecap:butt;stroke-linejoin:miter;stroke-miterlimit:10;stroke-dasharray:none;stroke-opacity:1"
         d="m 450.281,878.879 h -36" /><path
         id="path258"
         style="fill:none;stroke:#fff200;stroke-width:13.49289989;stroke-linecap:butt;stroke-linejoin:miter;stroke-miterlimit:10;stroke-dasharray:none;stroke-opacity:1"
         d="m 2103.4,878.879 h 34.2" /><path
         id="path260"
         style="fill:none;stroke:#fff200;stroke-width:13.49289989;stroke-linecap:butt;stroke-linejoin:miter;stroke-miterlimit:10;stroke-dasharray:none;stroke-opacity:1"
         d="m 450.281,1045.2 h -36" /><path
         id="path262"
         style="fill:none;stroke:#fff200;stroke-width:13.49289989;stroke-linecap:butt;stroke-linejoin:miter;stroke-miterlimit:10;stroke-dasharray:none;stroke-opacity:1"
         d="m 2103.4,1045.2 h 34.2" /><path
         id="path264"
         style="fill:none;stroke:#fff200;stroke-width:13.49289989;stroke-linecap:butt;stroke-linejoin:miter;stroke-miterlimit:10;stroke-dasharray:none;stroke-opacity:1"
         d="m 450.281,1208.64 h -36" /><path
         id="path266"
         style="fill:none;stroke:#fff200;stroke-width:13.49289989;stroke-linecap:butt;stroke-linejoin:miter;stroke-miterlimit:10;stroke-dasharray:none;stroke-opacity:1"
         d="m 2103.4,1208.64 h 34.2" /><path
         id="path268"
         style="fill:none;stroke:#fff200;stroke-width:13.49289989;stroke-linecap:butt;stroke-linejoin:miter;stroke-miterlimit:10;stroke-dasharray:none;stroke-opacity:1"
         d="m 450.281,1373.88 h -36" /><path
         id="path270"
         style="fill:none;stroke:#fff200;stroke-width:13.49289989;stroke-linecap:butt;stroke-linejoin:miter;stroke-miterlimit:10;stroke-dasharray:none;stroke-opacity:1"
         d="m 2103.4,1373.88 h 34.2" /><path
         id="path272"
         style="fill:none;stroke:#fff200;stroke-width:13.49289989;stroke-linecap:butt;stroke-linejoin:miter;stroke-miterlimit:10;stroke-dasharray:none;stroke-opacity:1"
         d="m 450.281,1538.76 h -36" /><path
         id="path274"
         style="fill:none;stroke:#fff200;stroke-width:13.49289989;stroke-linecap:butt;stroke-linejoin:miter;stroke-miterlimit:10;stroke-dasharray:none;stroke-opacity:1"
         d="m 2103.4,1538.76 h 34.2" /><path
         id="path276"
         style="fill:none;stroke:#fff200;stroke-width:13.49289989;stroke-linecap:butt;stroke-linejoin:miter;stroke-miterlimit:10;stroke-dasharray:none;stroke-opacity:1"
         d="m 450.281,1708.32 h -36" /><path
         id="path278"
         style="fill:none;stroke:#fff200;stroke-width:13.49289989;stroke-linecap:butt;stroke-linejoin:miter;stroke-miterlimit:10;stroke-dasharray:none;stroke-opacity:1"
         d="m 2103.4,1708.32 h 34.2" /><path
         id="path280"
         style="fill:none;stroke:#fff200;stroke-width:13.49289989;stroke-linecap:butt;stroke-linejoin:miter;stroke-miterlimit:10;stroke-dasharray:none;stroke-opacity:1"
         d="m 450.281,1873.2 -25.562,21.24" /><path
         id="path282"
         style="fill:none;stroke:#fff200;stroke-width:13.49289989;stroke-linecap:butt;stroke-linejoin:miter;stroke-miterlimit:10;stroke-dasharray:none;stroke-opacity:1"
         d="m 613.719,1873.2 v 30.24" /><path
         id="path284"
         style="fill:none;stroke:#fff200;stroke-width:13.49289989;stroke-linecap:butt;stroke-linejoin:miter;stroke-miterlimit:10;stroke-dasharray:none;stroke-opacity:1"
         d="m 778.602,1873.2 v 30.24" /><path
         id="path286"
         style="fill:none;stroke:#fff200;stroke-width:13.49289989;stroke-linecap:butt;stroke-linejoin:miter;stroke-miterlimit:10;stroke-dasharray:none;stroke-opacity:1"
         d="m 945.281,1873.2 v 30.24" /><path
         id="path288"
         style="fill:none;stroke:#fff200;stroke-width:13.49289989;stroke-linecap:butt;stroke-linejoin:miter;stroke-miterlimit:10;stroke-dasharray:none;stroke-opacity:1"
         d="m 1108.72,1873.2 v 30.24" /><path
         id="path290"
         style="fill:none;stroke:#fff200;stroke-width:13.49289989;stroke-linecap:butt;stroke-linejoin:miter;stroke-miterlimit:10;stroke-dasharray:none;stroke-opacity:1"
         d="m 1273.6,1873.2 v 30.24" /><path
         id="path292"
         style="fill:none;stroke:#fff200;stroke-width:13.49289989;stroke-linecap:butt;stroke-linejoin:miter;stroke-miterlimit:10;stroke-dasharray:none;stroke-opacity:1"
         d="m 1443.16,1873.2 v 30.24" /><path
         id="path294"
         style="fill:none;stroke:#fff200;stroke-width:13.49289989;stroke-linecap:butt;stroke-linejoin:miter;stroke-miterlimit:10;stroke-dasharray:none;stroke-opacity:1"
         d="m 1608.4,1873.2 v 30.24" /><path
         id="path296"
         style="fill:none;stroke:#fff200;stroke-width:13.49289989;stroke-linecap:butt;stroke-linejoin:miter;stroke-miterlimit:10;stroke-dasharray:none;stroke-opacity:1"
         d="m 1774.72,1873.2 v 30.24" /><path
         id="path298"
         style="fill:none;stroke:#fff200;stroke-width:13.49289989;stroke-linecap:butt;stroke-linejoin:miter;stroke-miterlimit:10;stroke-dasharray:none;stroke-opacity:1"
         d="m 1938.16,1873.2 v 30.24" /><path
         id="path300"
         style="fill:none;stroke:#fff200;stroke-width:13.49289989;stroke-linecap:butt;stroke-linejoin:miter;stroke-miterlimit:10;stroke-dasharray:none;stroke-opacity:1"
         d="m 2103.4,1873.2 25.2,21.24" /><g
         transform="scale(10)"
         id="g302"><text
           id="text306"
           style="font-variant:normal;font-weight:normal;font-size:14.00399971px;font-family:Arial;-inkscape-font-specification:Arial;writing-mode:lr-tb;fill:#231f20;fill-opacity:1;fill-rule:nonzero;stroke:none"
           transform="matrix(0.994859,0,0,-1,-0.260156,95.0882)"><tspan
             id="tspan304"
             y="0"
             x="0">l</tspan></text>
<text
           id="text320"
           style="font-variant:normal;font-weight:normal;font-size:14.00399971px;font-family:Arial;-inkscape-font-specification:Arial;writing-mode:lr-tb;fill:#231f20;fill-opacity:1;fill-rule:nonzero;stroke:none"
           transform="matrix(0.994859,0,0,-1,2.8359347,95.0882)"><tspan
             id="tspan308"
             y="0"
             x="0 7.8163605 15.632329 23.44869">abel</tspan><tspan
             id="tspan310"
             y="16.128099"
             x="-3.1120901 5.1024041">=4</tspan><tspan
             id="tspan312"
             y="89.928101"
             x="102.80491 105.91661 113.73297 121.54933 129.3653 132.4774 140.6915">label=1</tspan><tspan
             id="tspan314"
             y="-103.9319"
             x="95.748711 98.860413 106.67677 114.49274 122.3091 125.4212 133.6353">label=3</tspan><tspan
             id="tspan316"
             y="-4.2115998"
             x="218.6367 221.74881 229.56477 237.38113 245.1971">label</tspan><tspan
             id="tspan318"
             y="11.8802"
             x="218.6367 226.85081">=2</tspan></text>
</g></g></g></svg>