<?xml version="1.0" encoding="UTF-8" standalone="no"?>
<svg
   xmlns:dc="http://purl.org/dc/elements/1.1/"
   xmlns:cc="http://creativecommons.org/ns#"
   xmlns:rdf="http://www.w3.org/1999/02/22-rdf-syntax-ns#"
   xmlns:svg="http://www.w3.org/2000/svg"
   xmlns="http://www.w3.org/2000/svg"
   viewBox="0 0 349.33334 269.33334"
   height="269.33334"
   width="349.33334"
   xml:space="preserve"
   id="svg2"
   version="1.1"><metadata
     id="metadata8"><rdf:RDF><cc:Work
         rdf:about=""><dc:format>image/svg+xml</dc:format><dc:type
           rdf:resource="http://purl.org/dc/dcmitype/StillImage" /></cc:Work></rdf:RDF></metadata><defs
     id="defs6" /><g
     transform="matrix(1.3333333,0,0,-1.3333333,0,269.33333)"
     id="g10"><g
       transform="scale(0.1)"
       id="g12"><path
         id="path14"
         style="fill:none;stroke:#231f20;stroke-width:2.9763701;stroke-linecap:butt;stroke-linejoin:miter;stroke-miterlimit:10;stroke-dasharray:none;stroke-opacity:1"
         d="m 1834.72,1831.04 45,-240.12 283.68,240.12 h -328.68" /><path
         id="path16"
         style="fill:none;stroke:#231f20;stroke-width:2.9763701;stroke-linecap:butt;stroke-linejoin:miter;stroke-miterlimit:10;stroke-dasharray:none;stroke-opacity:1"
         d="m 510.281,1430.72 169.559,205.2 -169.559,195.12 v -400.32" /><path
         id="path18"
         style="fill:none;stroke:#231f20;stroke-width:2.9763701;stroke-linecap:butt;stroke-linejoin:miter;stroke-miterlimit:10;stroke-dasharray:none;stroke-opacity:1"
         d="M 709.719,1081.16 624.398,1221.92 510.281,1081.16 H 709.719" /><path
         id="path20"
         style="fill:none;stroke:#231f20;stroke-width:2.9763701;stroke-linecap:butt;stroke-linejoin:miter;stroke-miterlimit:10;stroke-dasharray:none;stroke-opacity:1"
         d="m 709.719,1081.16 160.562,194.76 -245.883,-54 85.321,-140.76" /><path
         id="path22"
         style="fill:none;stroke:#231f20;stroke-width:2.9763701;stroke-linecap:butt;stroke-linejoin:miter;stroke-miterlimit:10;stroke-dasharray:none;stroke-opacity:1"
         d="m 624.398,1221.92 -114.117,208.8 v -349.56 l 114.117,140.76" /><path
         id="path24"
         style="fill:none;stroke:#231f20;stroke-width:2.9763701;stroke-linecap:butt;stroke-linejoin:miter;stroke-miterlimit:10;stroke-dasharray:none;stroke-opacity:1"
         d="M 709.719,1081.16 H 873.16 l -2.879,194.76 -160.562,-194.76" /><path
         id="path26"
         style="fill:none;stroke:#231f20;stroke-width:2.9763701;stroke-linecap:butt;stroke-linejoin:miter;stroke-miterlimit:10;stroke-dasharray:none;stroke-opacity:1"
         d="M 1173.4,1831.04 928.602,1522.16 H 1117.6 l 55.8,308.88" /><path
         id="path28"
         style="fill:none;stroke:#231f20;stroke-width:2.9763701;stroke-linecap:butt;stroke-linejoin:miter;stroke-miterlimit:10;stroke-dasharray:none;stroke-opacity:1"
         d="m 679.84,1635.92 190.441,-360 58.321,246.24 -248.762,113.76" /><path
         id="path30"
         style="fill:none;stroke:#231f20;stroke-width:2.9763701;stroke-linecap:butt;stroke-linejoin:miter;stroke-miterlimit:10;stroke-dasharray:none;stroke-opacity:1"
         d="M 928.602,1522.16 870.281,1275.92 H 1078.72 L 928.602,1522.16" /><path
         id="path32"
         style="fill:none;stroke:#231f20;stroke-width:2.9763701;stroke-linecap:butt;stroke-linejoin:miter;stroke-miterlimit:10;stroke-dasharray:none;stroke-opacity:1"
         d="m 679.84,1635.92 -169.559,-205.2 360,-154.8 -190.441,360" /><path
         id="path34"
         style="fill:none;stroke:#231f20;stroke-width:2.9763701;stroke-linecap:butt;stroke-linejoin:miter;stroke-miterlimit:10;stroke-dasharray:none;stroke-opacity:1"
         d="m 870.281,1275.92 2.879,-194.76 h 171 l -173.879,194.76" /><path
         id="path36"
         style="fill:none;stroke:#231f20;stroke-width:2.9763701;stroke-linecap:butt;stroke-linejoin:miter;stroke-miterlimit:10;stroke-dasharray:none;stroke-opacity:1"
         d="m 870.281,1275.92 173.879,-194.76 34.56,194.76 H 870.281" /><path
         id="path38"
         style="fill:none;stroke:#231f20;stroke-width:2.9763701;stroke-linecap:butt;stroke-linejoin:miter;stroke-miterlimit:10;stroke-dasharray:none;stroke-opacity:1"
         d="M 510.281,1831.04 679.84,1635.92 847.602,1831.04 H 510.281" /><path
         id="path40"
         style="fill:none;stroke:#231f20;stroke-width:2.9763701;stroke-linecap:butt;stroke-linejoin:miter;stroke-miterlimit:10;stroke-dasharray:none;stroke-opacity:1"
         d="m 510.281,1430.72 114.117,-208.8 245.883,54 -360,154.8" /><path
         id="path42"
         style="fill:none;stroke:#231f20;stroke-width:2.9763701;stroke-linecap:butt;stroke-linejoin:miter;stroke-miterlimit:10;stroke-dasharray:none;stroke-opacity:1"
         d="m 679.84,1635.92 248.762,-113.76 -81,308.88 -167.762,-195.12" /><path
         id="path44"
         style="fill:none;stroke:#231f20;stroke-width:2.9763701;stroke-linecap:butt;stroke-linejoin:miter;stroke-miterlimit:10;stroke-dasharray:none;stroke-opacity:1"
         d="m 1239.28,1316.6 -34.56,-235.44 103.68,121.32 -69.12,114.12" /><path
         id="path46"
         style="fill:none;stroke:#231f20;stroke-width:2.9763701;stroke-linecap:butt;stroke-linejoin:miter;stroke-miterlimit:10;stroke-dasharray:none;stroke-opacity:1"
         d="M 928.602,1522.16 1173.4,1831.04 H 847.961 l 80.641,-308.88" /><path
         id="path48"
         style="fill:none;stroke:#231f20;stroke-width:2.9763701;stroke-linecap:butt;stroke-linejoin:miter;stroke-miterlimit:10;stroke-dasharray:none;stroke-opacity:1"
         d="m 1398.4,1356.92 -159.12,-40.32 69.12,-114.12 90,154.44" /><path
         id="path50"
         style="fill:none;stroke:#231f20;stroke-width:2.9763701;stroke-linecap:butt;stroke-linejoin:miter;stroke-miterlimit:10;stroke-dasharray:none;stroke-opacity:1"
         d="m 1398.4,1356.92 -280.8,165.24 121.68,-205.56 159.12,40.32" /><path
         id="path52"
         style="fill:none;stroke:#231f20;stroke-width:2.9763701;stroke-linecap:butt;stroke-linejoin:miter;stroke-miterlimit:10;stroke-dasharray:none;stroke-opacity:1"
         d="m 1239.28,1316.6 -160.56,-40.68 126,-194.76 34.56,235.44" /><path
         id="path54"
         style="fill:none;stroke:#231f20;stroke-width:2.9763701;stroke-linecap:butt;stroke-linejoin:miter;stroke-miterlimit:10;stroke-dasharray:none;stroke-opacity:1"
         d="M 1117.6,1522.16 H 928.602 l 150.118,-246.24 38.88,246.24" /><path
         id="path56"
         style="fill:none;stroke:#231f20;stroke-width:2.9763701;stroke-linecap:butt;stroke-linejoin:miter;stroke-miterlimit:10;stroke-dasharray:none;stroke-opacity:1"
         d="m 1078.72,1275.92 -34.56,-194.76 h 160.56 l -126,194.76" /><path
         id="path58"
         style="fill:none;stroke:#231f20;stroke-width:2.9763701;stroke-linecap:butt;stroke-linejoin:miter;stroke-miterlimit:10;stroke-dasharray:none;stroke-opacity:1"
         d="m 1398.4,1356.92 -90,-154.44 31.32,-121.32 73.44,121.32 h -104.76 104.76 l -14.76,154.44" /><path
         id="path60"
         style="fill:none;stroke:#231f20;stroke-width:2.9763701;stroke-linecap:butt;stroke-linejoin:miter;stroke-miterlimit:10;stroke-dasharray:none;stroke-opacity:1"
         d="m 1239.28,1316.6 -121.68,205.56 -38.88,-246.24 160.56,40.68" /><path
         id="path62"
         style="fill:none;stroke:#231f20;stroke-width:2.9763701;stroke-linecap:butt;stroke-linejoin:miter;stroke-miterlimit:10;stroke-dasharray:none;stroke-opacity:1"
         d="m 1308.4,1202.48 -103.68,-121.32 h 135 l -31.32,121.32" /><path
         id="path64"
         style="fill:none;stroke:#231f20;stroke-width:2.9763701;stroke-linecap:butt;stroke-linejoin:miter;stroke-miterlimit:10;stroke-dasharray:none;stroke-opacity:1"
         d="m 1173.4,1831.04 -55.8,-308.88 325.8,40.32 -270,268.56" /><path
         id="path66"
         style="fill:none;stroke:#231f20;stroke-width:2.9763701;stroke-linecap:butt;stroke-linejoin:miter;stroke-miterlimit:10;stroke-dasharray:none;stroke-opacity:1"
         d="M 1654.72,1562.48 H 1443.4 l -45,-205.56 256.32,205.56" /><path
         id="path68"
         style="fill:none;stroke:#231f20;stroke-width:2.9763701;stroke-linecap:butt;stroke-linejoin:miter;stroke-miterlimit:10;stroke-dasharray:none;stroke-opacity:1"
         d="M 1503.16,1831.04 H 1173.4 l 270,-268.56 59.76,268.56" /><path
         id="path70"
         style="fill:none;stroke:#231f20;stroke-width:2.9763701;stroke-linecap:butt;stroke-linejoin:miter;stroke-miterlimit:10;stroke-dasharray:none;stroke-opacity:1"
         d="m 1443.4,1562.48 -325.8,-40.32 280.8,-165.24 45,205.56" /><path
         id="path72"
         style="fill:none;stroke:#231f20;stroke-width:2.9763701;stroke-linecap:butt;stroke-linejoin:miter;stroke-miterlimit:10;stroke-dasharray:none;stroke-opacity:1"
         d="m 1339.72,1003.04 67.68,13.68 -67.68,64.44 v -78.12" /><path
         id="path74"
         style="fill:none;stroke:#231f20;stroke-width:2.9763701;stroke-linecap:butt;stroke-linejoin:miter;stroke-miterlimit:10;stroke-dasharray:none;stroke-opacity:1"
         d="m 1468.6,1095.92 -61.2,-79.2 61.2,-109.798 v 188.998" /><path
         id="path76"
         style="fill:none;stroke:#231f20;stroke-width:2.9763701;stroke-linecap:butt;stroke-linejoin:miter;stroke-miterlimit:10;stroke-dasharray:none;stroke-opacity:1"
         d="m 1468.6,1095.92 -128.88,-14.76 67.68,-64.44 61.2,79.2" /><path
         id="path78"
         style="fill:none;stroke:#231f20;stroke-width:2.9763701;stroke-linecap:butt;stroke-linejoin:miter;stroke-miterlimit:10;stroke-dasharray:none;stroke-opacity:1"
         d="m 1407.4,1016.72 -67.68,-13.68 v -87.118 l 67.68,100.798" /><path
         id="path80"
         style="fill:none;stroke:#231f20;stroke-width:2.9763701;stroke-linecap:butt;stroke-linejoin:miter;stroke-miterlimit:10;stroke-dasharray:none;stroke-opacity:1"
         d="m 1398.4,1356.92 325.44,-81 -69.12,286.56 -256.32,-205.56" /><path
         id="path82"
         style="fill:none;stroke:#231f20;stroke-width:2.9763701;stroke-linecap:butt;stroke-linejoin:miter;stroke-miterlimit:10;stroke-dasharray:none;stroke-opacity:1"
         d="m 1918.6,1376.72 -263.88,185.76 69.12,-286.56 194.76,100.8" /><path
         id="path84"
         style="fill:none;stroke:#231f20;stroke-width:2.9763701;stroke-linecap:butt;stroke-linejoin:miter;stroke-miterlimit:10;stroke-dasharray:none;stroke-opacity:1"
         d="m 1834.72,1831.04 h -331.56 l 151.56,-268.56 180,268.56" /><path
         id="path86"
         style="fill:none;stroke:#231f20;stroke-width:2.9763701;stroke-linecap:butt;stroke-linejoin:miter;stroke-miterlimit:10;stroke-dasharray:none;stroke-opacity:1"
         d="m 1654.72,1562.48 -151.56,268.56 -59.76,-268.56 h 211.32" /><path
         id="path88"
         style="fill:none;stroke:#231f20;stroke-width:2.9763701;stroke-linecap:butt;stroke-linejoin:miter;stroke-miterlimit:10;stroke-dasharray:none;stroke-opacity:1"
         d="m 2163.4,1496.6 -283.68,94.32 38.88,-214.2 244.8,119.88" /><path
         id="path90"
         style="fill:none;stroke:#231f20;stroke-width:2.9763701;stroke-linecap:butt;stroke-linejoin:miter;stroke-miterlimit:10;stroke-dasharray:none;stroke-opacity:1"
         d="m 1834.72,1831.04 -180,-268.56 225,28.44 -45,240.12" /><path
         id="path92"
         style="fill:none;stroke:#231f20;stroke-width:2.9763701;stroke-linecap:butt;stroke-linejoin:miter;stroke-miterlimit:10;stroke-dasharray:none;stroke-opacity:1"
         d="m 1879.72,1590.92 -225,-28.44 263.88,-185.76 -38.88,214.2" /><path
         id="path94"
         style="fill:none;stroke:#231f20;stroke-width:2.9763701;stroke-linecap:butt;stroke-linejoin:miter;stroke-miterlimit:10;stroke-dasharray:none;stroke-opacity:1"
         d="m 1398.4,1356.92 14.76,-154.44 151.56,-5.76 -166.32,160.2" /><path
         id="path96"
         style="fill:none;stroke:#231f20;stroke-width:2.9763701;stroke-linecap:butt;stroke-linejoin:miter;stroke-miterlimit:10;stroke-dasharray:none;stroke-opacity:1"
         d="m 2163.4,1831.04 -283.68,-240.12 283.68,-94.32 v 334.44" /><path
         id="path98"
         style="fill:none;stroke:#231f20;stroke-width:2.9763701;stroke-linecap:butt;stroke-linejoin:miter;stroke-miterlimit:10;stroke-dasharray:none;stroke-opacity:1"
         d="m 1723.84,1275.92 144,-137.88 50.76,238.68 -194.76,-100.8" /><path
         id="path100"
         style="fill:none;stroke:#231f20;stroke-width:2.9763701;stroke-linecap:butt;stroke-linejoin:miter;stroke-miterlimit:10;stroke-dasharray:none;stroke-opacity:1"
         d="m 1918.6,1376.72 -50.76,-238.68 295.56,28.44 -244.8,210.24" /><path
         id="path102"
         style="fill:none;stroke:#231f20;stroke-width:2.9763701;stroke-linecap:butt;stroke-linejoin:miter;stroke-miterlimit:10;stroke-dasharray:none;stroke-opacity:1"
         d="m 1308.4,803.602 h 104.76 l -73.44,112.32 -31.32,-112.32" /><path
         id="path104"
         style="fill:none;stroke:#231f20;stroke-width:2.9763701;stroke-linecap:butt;stroke-linejoin:miter;stroke-miterlimit:10;stroke-dasharray:none;stroke-opacity:1"
         d="m 1468.6,906.922 189,30.238 v 130.32 l -189,-160.558" /><path
         id="path106"
         style="fill:none;stroke:#231f20;stroke-width:2.9763701;stroke-linecap:butt;stroke-linejoin:miter;stroke-miterlimit:10;stroke-dasharray:none;stroke-opacity:1"
         d="m 1564.72,803.602 159.12,-76.68 -66.24,210.238 -92.88,-133.558" /><path
         id="path108"
         style="fill:none;stroke:#231f20;stroke-width:2.9763701;stroke-linecap:butt;stroke-linejoin:miter;stroke-miterlimit:10;stroke-dasharray:none;stroke-opacity:1"
         d="m 1657.6,937.16 210.24,-69.121 V 1138.04 L 1657.6,937.16" /><path
         id="path110"
         style="fill:none;stroke:#231f20;stroke-width:2.9763701;stroke-linecap:butt;stroke-linejoin:miter;stroke-miterlimit:10;stroke-dasharray:none;stroke-opacity:1"
         d="m 1468.6,906.922 -61.2,109.798 -67.68,-100.798 128.88,-9" /><path
         id="path112"
         style="fill:none;stroke:#231f20;stroke-width:2.9763701;stroke-linecap:butt;stroke-linejoin:miter;stroke-miterlimit:10;stroke-dasharray:none;stroke-opacity:1"
         d="m 2163.4,1496.6 -244.8,-119.88 244.8,-210.24 v 330.12" /><path
         id="path114"
         style="fill:none;stroke:#231f20;stroke-width:2.9763701;stroke-linecap:butt;stroke-linejoin:miter;stroke-miterlimit:10;stroke-dasharray:none;stroke-opacity:1"
         d="m 1657.6,1067.48 -189,28.44 V 906.922 l 189,160.558" /><path
         id="path116"
         style="fill:none;stroke:#231f20;stroke-width:2.9763701;stroke-linecap:butt;stroke-linejoin:miter;stroke-miterlimit:10;stroke-dasharray:none;stroke-opacity:1"
         d="m 1657.6,1067.48 66.24,208.44 -159.12,-79.2 92.88,-129.24" /><path
         id="path118"
         style="fill:none;stroke:#231f20;stroke-width:2.9763701;stroke-linecap:butt;stroke-linejoin:miter;stroke-miterlimit:10;stroke-dasharray:none;stroke-opacity:1"
         d="m 1468.6,1095.92 -55.44,106.56 -73.44,-121.32 128.88,14.76" /><path
         id="path120"
         style="fill:none;stroke:#231f20;stroke-width:2.9763701;stroke-linecap:butt;stroke-linejoin:miter;stroke-miterlimit:10;stroke-dasharray:none;stroke-opacity:1"
         d="m 1723.84,1275.92 -66.24,-208.44 210.24,70.56 V 868.039 l 295.56,298.441 -295.56,-28.44 -144,137.88" /><path
         id="path122"
         style="fill:none;stroke:#231f20;stroke-width:2.9763701;stroke-linecap:butt;stroke-linejoin:miter;stroke-miterlimit:10;stroke-dasharray:none;stroke-opacity:1"
         d="m 1657.6,1067.48 -92.88,129.24 -95.76,-100.8 188.64,-28.44" /><path
         id="path124"
         style="fill:none;stroke:#231f20;stroke-width:2.9763701;stroke-linecap:butt;stroke-linejoin:miter;stroke-miterlimit:10;stroke-dasharray:none;stroke-opacity:1"
         d="m 1723.84,1275.92 -325.44,81 166.32,-160.2 159.12,79.2" /><path
         id="path126"
         style="fill:none;stroke:#231f20;stroke-width:2.9763701;stroke-linecap:butt;stroke-linejoin:miter;stroke-miterlimit:10;stroke-dasharray:none;stroke-opacity:1"
         d="m 1564.72,1196.72 -151.56,5.76 55.44,-106.56 96.12,100.8" /><path
         id="path128"
         style="fill:none;stroke:#231f20;stroke-width:2.9763701;stroke-linecap:butt;stroke-linejoin:miter;stroke-miterlimit:10;stroke-dasharray:none;stroke-opacity:1"
         d="m 1657.6,937.16 -189,-30.238 96.12,-103.32 92.88,133.558" /><path
         id="path130"
         style="fill:none;stroke:#231f20;stroke-width:2.9763701;stroke-linecap:butt;stroke-linejoin:miter;stroke-miterlimit:10;stroke-dasharray:none;stroke-opacity:1"
         d="m 1564.72,803.602 h -151.56 l -14.76,-157.68 166.32,157.68" /><path
         id="path132"
         style="fill:none;stroke:#231f20;stroke-width:2.9763701;stroke-linecap:butt;stroke-linejoin:miter;stroke-miterlimit:10;stroke-dasharray:none;stroke-opacity:1"
         d="m 1564.72,803.602 -96.12,103.32 -55.44,-103.32 h 151.56" /><path
         id="path134"
         style="fill:none;stroke:#231f20;stroke-width:2.9763701;stroke-linecap:butt;stroke-linejoin:miter;stroke-miterlimit:10;stroke-dasharray:none;stroke-opacity:1"
         d="M 1413.16,803.602 H 1308.4 l 90,-157.68 14.76,157.68" /><path
         id="path136"
         style="fill:none;stroke:#231f20;stroke-width:2.9763701;stroke-linecap:butt;stroke-linejoin:miter;stroke-miterlimit:10;stroke-dasharray:none;stroke-opacity:1"
         d="m 1867.84,868.039 295.56,-31.32 V 1166.48 L 1867.84,868.039" /><path
         id="path138"
         style="fill:none;stroke:#231f20;stroke-width:2.9763701;stroke-linecap:butt;stroke-linejoin:miter;stroke-miterlimit:10;stroke-dasharray:none;stroke-opacity:1"
         d="m 1867.84,868.039 -144,-141.117 194.76,-100.442 -50.76,241.559" /><path
         id="path140"
         style="fill:none;stroke:#231f20;stroke-width:2.9763701;stroke-linecap:butt;stroke-linejoin:miter;stroke-miterlimit:10;stroke-dasharray:none;stroke-opacity:1"
         d="m 1867.84,868.039 -210.24,69.121 66.24,-210.238 144,141.117" /><path
         id="path142"
         style="fill:none;stroke:#231f20;stroke-width:2.9763701;stroke-linecap:butt;stroke-linejoin:miter;stroke-miterlimit:10;stroke-dasharray:none;stroke-opacity:1"
         d="m 1723.84,726.922 -159.12,76.68 -166.32,-157.68 325.44,81" /><path
         id="path144"
         style="fill:none;stroke:#231f20;stroke-width:2.9763701;stroke-linecap:butt;stroke-linejoin:miter;stroke-miterlimit:10;stroke-dasharray:none;stroke-opacity:1"
         d="m 1308.4,803.602 -114.12,-76.68 204.12,-81 -90,157.68" /><path
         id="path146"
         style="fill:none;stroke:#231f20;stroke-width:2.9763701;stroke-linecap:butt;stroke-linejoin:miter;stroke-miterlimit:10;stroke-dasharray:none;stroke-opacity:1"
         d="M 1723.84,726.922 1654.72,443.602 1918.6,626.48 1723.84,726.922" /><path
         id="path148"
         style="fill:none;stroke:#231f20;stroke-width:2.9763701;stroke-linecap:butt;stroke-linejoin:miter;stroke-miterlimit:10;stroke-dasharray:none;stroke-opacity:1"
         d="m 1398.4,645.922 -210.24,-157.32 255.24,-45 -45,202.32" /><path
         id="path150"
         style="fill:none;stroke:#231f20;stroke-width:2.9763701;stroke-linecap:butt;stroke-linejoin:miter;stroke-miterlimit:10;stroke-dasharray:none;stroke-opacity:1"
         d="m 1654.72,443.602 -151.56,-270 h 331.56 l -180,270" /><path
         id="path152"
         style="fill:none;stroke:#231f20;stroke-width:2.9763701;stroke-linecap:butt;stroke-linejoin:miter;stroke-miterlimit:10;stroke-dasharray:none;stroke-opacity:1"
         d="m 1918.6,626.48 244.8,210.239 -295.56,31.32 50.76,-241.559" /><path
         id="path154"
         style="fill:none;stroke:#231f20;stroke-width:2.9763701;stroke-linecap:butt;stroke-linejoin:miter;stroke-miterlimit:10;stroke-dasharray:none;stroke-opacity:1"
         d="m 2163.4,173.602 -283.68,238.32 -45,-238.32 h 328.68" /><path
         id="path156"
         style="fill:none;stroke:#231f20;stroke-width:2.9763701;stroke-linecap:butt;stroke-linejoin:miter;stroke-miterlimit:10;stroke-dasharray:none;stroke-opacity:1"
         d="m 2163.4,501.922 -244.8,124.558 -38.88,-214.558 283.68,90" /><path
         id="path158"
         style="fill:none;stroke:#231f20;stroke-width:2.9763701;stroke-linecap:butt;stroke-linejoin:miter;stroke-miterlimit:10;stroke-dasharray:none;stroke-opacity:1"
         d="m 1879.72,411.922 38.88,214.558 -263.88,-182.878 225,-31.68" /><path
         id="path160"
         style="fill:none;stroke:#231f20;stroke-width:2.9763701;stroke-linecap:butt;stroke-linejoin:miter;stroke-miterlimit:10;stroke-dasharray:none;stroke-opacity:1"
         d="M 2163.4,501.922 V 836.719 L 1918.96,626.48 2163.4,501.922" /><path
         id="path162"
         style="fill:none;stroke:#231f20;stroke-width:2.9763701;stroke-linecap:butt;stroke-linejoin:miter;stroke-miterlimit:10;stroke-dasharray:none;stroke-opacity:1"
         d="m 1339.72,915.922 73.44,-112.32 55.44,103.32 -128.88,9" /><path
         id="path164"
         style="fill:none;stroke:#231f20;stroke-width:2.9763701;stroke-linecap:butt;stroke-linejoin:miter;stroke-miterlimit:10;stroke-dasharray:none;stroke-opacity:1"
         d="m 1398.4,645.922 256.32,-202.32 69.12,283.32 -325.44,-81" /><path
         id="path166"
         style="fill:none;stroke:#231f20;stroke-width:2.9763701;stroke-linecap:butt;stroke-linejoin:miter;stroke-miterlimit:10;stroke-dasharray:none;stroke-opacity:1"
         d="M 1657.6,1067.48 V 937.16 l 210.24,200.88 -210.24,-70.56" /><path
         id="path168"
         style="fill:none;stroke:#231f20;stroke-width:2.9763701;stroke-linecap:butt;stroke-linejoin:miter;stroke-miterlimit:10;stroke-dasharray:none;stroke-opacity:1"
         d="m 1654.72,443.602 180,-270 45,238.32 -225,31.68" /><path
         id="path170"
         style="fill:none;stroke:#231f20;stroke-width:2.9763701;stroke-linecap:butt;stroke-linejoin:miter;stroke-miterlimit:10;stroke-dasharray:none;stroke-opacity:1"
         d="m 1204.72,915.922 103.68,-112.32 31.32,112.32 h -135" /><path
         id="path172"
         style="fill:none;stroke:#231f20;stroke-width:2.9763701;stroke-linecap:butt;stroke-linejoin:miter;stroke-miterlimit:10;stroke-dasharray:none;stroke-opacity:1"
         d="m 1194.28,726.922 -150.12,189 -55.441,-193.32 205.561,4.32" /><path
         id="path174"
         style="fill:none;stroke:#231f20;stroke-width:2.9763701;stroke-linecap:butt;stroke-linejoin:miter;stroke-miterlimit:10;stroke-dasharray:none;stroke-opacity:1"
         d="M 1654.72,443.602 H 1443.4 l 59.76,-270 151.56,270" /><path
         id="path176"
         style="fill:none;stroke:#231f20;stroke-width:2.9763701;stroke-linecap:butt;stroke-linejoin:miter;stroke-miterlimit:10;stroke-dasharray:none;stroke-opacity:1"
         d="m 1654.72,443.602 -256.32,202.32 45,-202.32 h 211.32" /><path
         id="path178"
         style="fill:none;stroke:#231f20;stroke-width:2.9763701;stroke-linecap:butt;stroke-linejoin:miter;stroke-miterlimit:10;stroke-dasharray:none;stroke-opacity:1"
         d="m 1443.4,443.602 -255.24,45 -14.76,-315 270,270" /><path
         id="path180"
         style="fill:none;stroke:#231f20;stroke-width:2.9763701;stroke-linecap:butt;stroke-linejoin:miter;stroke-miterlimit:10;stroke-dasharray:none;stroke-opacity:1"
         d="M 847.602,173.602 679.84,366.922 510.281,173.602 h 337.321" /><path
         id="path182"
         style="fill:none;stroke:#231f20;stroke-width:2.9763701;stroke-linecap:butt;stroke-linejoin:miter;stroke-miterlimit:10;stroke-dasharray:none;stroke-opacity:1"
         d="M 679.84,366.922 774.16,632.602 510.281,572.48 679.84,366.922" /><path
         id="path184"
         style="fill:none;stroke:#231f20;stroke-width:2.9763701;stroke-linecap:butt;stroke-linejoin:miter;stroke-miterlimit:10;stroke-dasharray:none;stroke-opacity:1"
         d="M 709.719,915.922 H 510.281 l 114.117,-137.883 85.321,137.883" /><path
         id="path186"
         style="fill:none;stroke:#231f20;stroke-width:2.9763701;stroke-linecap:butt;stroke-linejoin:miter;stroke-miterlimit:10;stroke-dasharray:none;stroke-opacity:1"
         d="M 624.398,778.039 510.281,915.922 V 572.48 l 114.117,205.559" /><path
         id="path188"
         style="fill:none;stroke:#231f20;stroke-width:2.9763701;stroke-linecap:butt;stroke-linejoin:miter;stroke-miterlimit:10;stroke-dasharray:none;stroke-opacity:1"
         d="m 774.16,632.602 99,283.32 H 709.719 l 64.441,-283.32" /><path
         id="path190"
         style="fill:none;stroke:#231f20;stroke-width:2.9763701;stroke-linecap:butt;stroke-linejoin:miter;stroke-miterlimit:10;stroke-dasharray:none;stroke-opacity:1"
         d="M 510.281,173.602 679.84,366.922 510.281,572.48 V 173.602" /><path
         id="path192"
         style="fill:none;stroke:#231f20;stroke-width:2.9763701;stroke-linecap:butt;stroke-linejoin:miter;stroke-miterlimit:10;stroke-dasharray:none;stroke-opacity:1"
         d="m 847.602,173.602 81,308.878 L 679.84,366.922 847.602,173.602" /><path
         id="path194"
         style="fill:none;stroke:#231f20;stroke-width:2.9763701;stroke-linecap:butt;stroke-linejoin:miter;stroke-miterlimit:10;stroke-dasharray:none;stroke-opacity:1"
         d="M 510.281,572.48 774.16,632.602 624.398,778.039 510.281,572.48" /><path
         id="path196"
         style="fill:none;stroke:#231f20;stroke-width:2.9763701;stroke-linecap:butt;stroke-linejoin:miter;stroke-miterlimit:10;stroke-dasharray:none;stroke-opacity:1"
         d="M 679.84,366.922 928.602,482.48 774.16,632.602 679.84,366.922" /><path
         id="path198"
         style="fill:none;stroke:#231f20;stroke-width:2.9763701;stroke-linecap:butt;stroke-linejoin:miter;stroke-miterlimit:10;stroke-dasharray:none;stroke-opacity:1"
         d="M 624.398,778.039 774.16,632.602 928.602,482.48 l 60.117,240.122 -214.559,-90 -64.441,283.32 -85.321,-137.883" /><path
         id="path200"
         style="fill:none;stroke:#231f20;stroke-width:2.9763701;stroke-linecap:butt;stroke-linejoin:miter;stroke-miterlimit:10;stroke-dasharray:none;stroke-opacity:1"
         d="m 1503.16,173.602 -59.76,270 -270,-270 h 329.76" /><path
         id="path202"
         style="fill:none;stroke:#231f20;stroke-width:2.9763701;stroke-linecap:butt;stroke-linejoin:miter;stroke-miterlimit:10;stroke-dasharray:none;stroke-opacity:1"
         d="m 1398.4,645.922 -204.12,81 -6.12,-238.32 210.24,157.32" /><path
         id="path204"
         style="fill:none;stroke:#231f20;stroke-width:2.9763701;stroke-linecap:butt;stroke-linejoin:miter;stroke-miterlimit:10;stroke-dasharray:none;stroke-opacity:1"
         d="m 1308.4,803.602 -103.68,112.32 -10.44,-189 114.12,76.68" /><path
         id="path206"
         style="fill:none;stroke:#231f20;stroke-width:2.9763701;stroke-linecap:butt;stroke-linejoin:miter;stroke-miterlimit:10;stroke-dasharray:none;stroke-opacity:1"
         d="m 1194.28,726.922 -205.561,-4.32 199.441,-234 6.12,238.32" /><path
         id="path208"
         style="fill:none;stroke:#231f20;stroke-width:2.9763701;stroke-linecap:butt;stroke-linejoin:miter;stroke-miterlimit:10;stroke-dasharray:none;stroke-opacity:1"
         d="M 1173.4,173.602 928.602,482.48 847.961,173.602 H 1173.4" /><path
         id="path210"
         style="fill:none;stroke:#231f20;stroke-width:2.9763701;stroke-linecap:butt;stroke-linejoin:miter;stroke-miterlimit:10;stroke-dasharray:none;stroke-opacity:1"
         d="m 1188.16,488.602 -199.441,234 -59.758,-240.122 259.199,6.122" /><path
         id="path212"
         style="fill:none;stroke:#231f20;stroke-width:2.9763701;stroke-linecap:butt;stroke-linejoin:miter;stroke-miterlimit:10;stroke-dasharray:none;stroke-opacity:1"
         d="m 774.16,632.602 214.559,90 -115.559,193.32 -99,-283.32" /><path
         id="path214"
         style="fill:none;stroke:#231f20;stroke-width:2.9763701;stroke-linecap:butt;stroke-linejoin:miter;stroke-miterlimit:10;stroke-dasharray:none;stroke-opacity:1"
         d="m 1044.16,915.922 h -171 l 115.559,-193.32 55.441,193.32" /><path
         id="path216"
         style="fill:none;stroke:#231f20;stroke-width:2.9763701;stroke-linecap:butt;stroke-linejoin:miter;stroke-miterlimit:10;stroke-dasharray:none;stroke-opacity:1"
         d="M 1188.16,488.602 928.602,482.48 1173.4,173.602 l 14.76,315" /><path
         id="path218"
         style="fill:none;stroke:#231f20;stroke-width:2.9763701;stroke-linecap:butt;stroke-linejoin:miter;stroke-miterlimit:10;stroke-dasharray:none;stroke-opacity:1"
         d="m 1194.28,726.922 10.44,189 h -160.56 l 150.12,-189" /><path
         id="path220"
         style="fill:none;stroke:#231f20;stroke-width:2.9763701;stroke-linecap:butt;stroke-linejoin:miter;stroke-miterlimit:10;stroke-dasharray:none;stroke-opacity:1"
         d="m 2163.4,501.922 -283.68,-90 283.68,-238.32 v 328.32" /><path
         id="path222"
         style="fill:none;stroke:#231f20;stroke-width:13.49289989;stroke-linecap:butt;stroke-linejoin:miter;stroke-miterlimit:10;stroke-dasharray:none;stroke-opacity:1"
         d="M 2163.4,1831.04 H 510.281" /><path
         id="path224"
         style="fill:none;stroke:#231f20;stroke-width:13.49289989;stroke-linecap:butt;stroke-linejoin:miter;stroke-miterlimit:10;stroke-dasharray:none;stroke-opacity:1"
         d="M 2163.4,173.602 V 1831.04" /><path
         id="path226"
         style="fill:none;stroke:#231f20;stroke-width:13.49289989;stroke-linecap:butt;stroke-linejoin:miter;stroke-miterlimit:10;stroke-dasharray:none;stroke-opacity:1"
         d="M 1339.72,915.922 H 510.281" /><path
         id="path228"
         style="fill:none;stroke:#231f20;stroke-width:13.49289989;stroke-linecap:butt;stroke-linejoin:miter;stroke-miterlimit:10;stroke-dasharray:none;stroke-opacity:1"
         d="M 1339.72,1081.16 V 915.922" /><path
         id="path230"
         style="fill:none;stroke:#231f20;stroke-width:13.49289989;stroke-linecap:butt;stroke-linejoin:miter;stroke-miterlimit:10;stroke-dasharray:none;stroke-opacity:1"
         d="M 510.281,1081.16 H 1339.72" /><path
         id="path232"
         style="fill:none;stroke:#231f20;stroke-width:13.49289989;stroke-linecap:butt;stroke-linejoin:miter;stroke-miterlimit:10;stroke-dasharray:none;stroke-opacity:1"
         d="M 510.281,173.602 H 2163.4" /><path
         id="path234"
         style="fill:none;stroke:#231f20;stroke-width:13.49289989;stroke-linecap:butt;stroke-linejoin:miter;stroke-miterlimit:10;stroke-dasharray:none;stroke-opacity:1"
         d="M 510.281,1831.04 V 1081.16" /><path
         id="path236"
         style="fill:none;stroke:#231f20;stroke-width:13.49289989;stroke-linecap:butt;stroke-linejoin:miter;stroke-miterlimit:10;stroke-dasharray:none;stroke-opacity:1"
         d="M 510.281,915.922 V 173.602 L 493.719,163.16" /><path
         id="path238"
         style="fill:none;stroke:#231f20;stroke-width:13.49289989;stroke-linecap:butt;stroke-linejoin:miter;stroke-miterlimit:10;stroke-dasharray:none;stroke-opacity:1"
         d="M 510.281,915.922 493.719,932.48" /><path
         id="path240"
         style="fill:none;stroke:#231f20;stroke-width:13.49289989;stroke-linecap:butt;stroke-linejoin:miter;stroke-miterlimit:10;stroke-dasharray:none;stroke-opacity:1"
         d="M 510.281,572.48 H 489.398" /><path
         id="path242"
         style="fill:none;stroke:#231f20;stroke-width:13.49289989;stroke-linecap:butt;stroke-linejoin:miter;stroke-miterlimit:10;stroke-dasharray:none;stroke-opacity:1"
         d="M 847.602,173.602 V 157.039" /><path
         id="path244"
         style="fill:none;stroke:#231f20;stroke-width:13.49289989;stroke-linecap:butt;stroke-linejoin:miter;stroke-miterlimit:10;stroke-dasharray:none;stroke-opacity:1"
         d="M 709.719,915.922 V 937.16" /><path
         id="path246"
         style="fill:none;stroke:#231f20;stroke-width:13.49289989;stroke-linecap:butt;stroke-linejoin:miter;stroke-miterlimit:10;stroke-dasharray:none;stroke-opacity:1"
         d="M 1173.4,173.602 V 157.039" /><path
         id="path248"
         style="fill:none;stroke:#231f20;stroke-width:13.49289989;stroke-linecap:butt;stroke-linejoin:miter;stroke-miterlimit:10;stroke-dasharray:none;stroke-opacity:1"
         d="M 1503.16,173.602 V 157.039" /><path
         id="path250"
         style="fill:none;stroke:#231f20;stroke-width:13.49289989;stroke-linecap:butt;stroke-linejoin:miter;stroke-miterlimit:10;stroke-dasharray:none;stroke-opacity:1"
         d="M 1834.72,173.602 V 157.039" /><path
         id="path252"
         style="fill:none;stroke:#231f20;stroke-width:13.49289989;stroke-linecap:butt;stroke-linejoin:miter;stroke-miterlimit:10;stroke-dasharray:none;stroke-opacity:1"
         d="M 873.16,915.922 V 937.16" /><path
         id="path254"
         style="fill:none;stroke:#231f20;stroke-width:13.49289989;stroke-linecap:butt;stroke-linejoin:miter;stroke-miterlimit:10;stroke-dasharray:none;stroke-opacity:1"
         d="m 2163.4,173.602 14.76,-10.442" /><path
         id="path256"
         style="fill:none;stroke:#231f20;stroke-width:13.49289989;stroke-linecap:butt;stroke-linejoin:miter;stroke-miterlimit:10;stroke-dasharray:none;stroke-opacity:1"
         d="M 1044.16,915.922 V 937.16" /><path
         id="path258"
         style="fill:none;stroke:#231f20;stroke-width:13.49289989;stroke-linecap:butt;stroke-linejoin:miter;stroke-miterlimit:10;stroke-dasharray:none;stroke-opacity:1"
         d="m 2163.4,501.922 h 19.44" /><path
         id="path260"
         style="fill:none;stroke:#231f20;stroke-width:13.49289989;stroke-linecap:butt;stroke-linejoin:miter;stroke-miterlimit:10;stroke-dasharray:none;stroke-opacity:1"
         d="M 1204.72,915.922 V 937.16" /><path
         id="path262"
         style="fill:none;stroke:#231f20;stroke-width:13.49289989;stroke-linecap:butt;stroke-linejoin:miter;stroke-miterlimit:10;stroke-dasharray:none;stroke-opacity:1"
         d="m 2163.4,836.719 h 19.44" /><path
         id="path264"
         style="fill:none;stroke:#231f20;stroke-width:13.49289989;stroke-linecap:butt;stroke-linejoin:miter;stroke-miterlimit:10;stroke-dasharray:none;stroke-opacity:1"
         d="m 1339.72,915.922 -16.56,16.558" /><path
         id="path266"
         style="fill:none;stroke:#231f20;stroke-width:13.49289989;stroke-linecap:butt;stroke-linejoin:miter;stroke-miterlimit:10;stroke-dasharray:none;stroke-opacity:1"
         d="m 2163.4,1166.48 h 19.44" /><path
         id="path268"
         style="fill:none;stroke:#231f20;stroke-width:13.49289989;stroke-linecap:butt;stroke-linejoin:miter;stroke-miterlimit:10;stroke-dasharray:none;stroke-opacity:1"
         d="M 1339.72,1003.04 H 1317.4" /><path
         id="path270"
         style="fill:none;stroke:#231f20;stroke-width:13.49289989;stroke-linecap:butt;stroke-linejoin:miter;stroke-miterlimit:10;stroke-dasharray:none;stroke-opacity:1"
         d="m 2163.4,1496.6 h 19.44" /><path
         id="path272"
         style="fill:none;stroke:#231f20;stroke-width:13.49289989;stroke-linecap:butt;stroke-linejoin:miter;stroke-miterlimit:10;stroke-dasharray:none;stroke-opacity:1"
         d="m 1339.72,1081.16 -16.56,-9" /><path
         id="path274"
         style="fill:none;stroke:#231f20;stroke-width:13.49289989;stroke-linecap:butt;stroke-linejoin:miter;stroke-miterlimit:10;stroke-dasharray:none;stroke-opacity:1"
         d="m 2163.4,1831.04 14.76,9" /><path
         id="path276"
         style="fill:none;stroke:#231f20;stroke-width:13.49289989;stroke-linecap:butt;stroke-linejoin:miter;stroke-miterlimit:10;stroke-dasharray:none;stroke-opacity:1"
         d="m 1204.72,1081.16 v -13.68" /><path
         id="path278"
         style="fill:none;stroke:#231f20;stroke-width:13.49289989;stroke-linecap:butt;stroke-linejoin:miter;stroke-miterlimit:10;stroke-dasharray:none;stroke-opacity:1"
         d="m 1834.72,1831.04 v 15.12" /><path
         id="path280"
         style="fill:none;stroke:#231f20;stroke-width:13.49289989;stroke-linecap:butt;stroke-linejoin:miter;stroke-miterlimit:10;stroke-dasharray:none;stroke-opacity:1"
         d="m 1503.16,1831.04 v 15.12" /><path
         id="path282"
         style="fill:none;stroke:#231f20;stroke-width:13.49289989;stroke-linecap:butt;stroke-linejoin:miter;stroke-miterlimit:10;stroke-dasharray:none;stroke-opacity:1"
         d="m 1044.16,1081.16 v -13.68" /><path
         id="path284"
         style="fill:none;stroke:#231f20;stroke-width:13.49289989;stroke-linecap:butt;stroke-linejoin:miter;stroke-miterlimit:10;stroke-dasharray:none;stroke-opacity:1"
         d="m 1173.4,1831.04 v 15.12" /><path
         id="path286"
         style="fill:none;stroke:#231f20;stroke-width:13.49289989;stroke-linecap:butt;stroke-linejoin:miter;stroke-miterlimit:10;stroke-dasharray:none;stroke-opacity:1"
         d="m 873.16,1081.16 v -13.68" /><path
         id="path288"
         style="fill:none;stroke:#231f20;stroke-width:13.49289989;stroke-linecap:butt;stroke-linejoin:miter;stroke-miterlimit:10;stroke-dasharray:none;stroke-opacity:1"
         d="m 847.602,1831.04 v 15.12" /><path
         id="path290"
         style="fill:none;stroke:#231f20;stroke-width:13.49289989;stroke-linecap:butt;stroke-linejoin:miter;stroke-miterlimit:10;stroke-dasharray:none;stroke-opacity:1"
         d="m 709.719,1081.16 v -13.68" /><path
         id="path292"
         style="fill:none;stroke:#231f20;stroke-width:13.49289989;stroke-linecap:butt;stroke-linejoin:miter;stroke-miterlimit:10;stroke-dasharray:none;stroke-opacity:1"
         d="M 510.281,1430.72 H 489.398" /><path
         id="path294"
         style="fill:none;stroke:#231f20;stroke-width:13.49289989;stroke-linecap:butt;stroke-linejoin:miter;stroke-miterlimit:10;stroke-dasharray:none;stroke-opacity:1"
         d="m 510.281,1831.04 -16.562,9" /><path
         id="path296"
         style="fill:none;stroke:#231f20;stroke-width:13.49289989;stroke-linecap:butt;stroke-linejoin:miter;stroke-miterlimit:10;stroke-dasharray:none;stroke-opacity:1"
         d="m 510.281,1081.16 -16.562,-9" /><g
         transform="scale(10)"
         id="g298"><text
           id="text302"
           style="font-variant:normal;font-weight:normal;font-size:14.00399971px;font-family:Arial;-inkscape-font-specification:Arial;writing-mode:lr-tb;fill:#231f20;fill-opacity:1;fill-rule:nonzero;stroke:none"
           transform="matrix(0.994859,0,0,-1,29.752,139.616)"><tspan
             id="tspan300"
             y="0"
             x="0">L</tspan></text>
<text
           id="text306"
           style="font-variant:normal;font-weight:normal;font-size:14.00399971px;font-family:Arial;-inkscape-font-specification:Arial;writing-mode:lr-tb;fill:#231f20;fill-opacity:1;fill-rule:nonzero;stroke:none"
           transform="matrix(0.994859,0,0,-1,37.492242,139.616)"><tspan
             id="tspan304"
             y="0"
             x="0">1</tspan></text>
</g><path
         id="path308"
         style="fill:#ffffff;fill-opacity:1;fill-rule:evenodd;stroke:none"
         d="M 825.641,1277 H 1003.84 V 1120.76 H 825.641 V 1277" /><path
         id="path310"
         style="fill:#ffffff;fill-opacity:1;fill-rule:nonzero;stroke:none"
         d="m 825.641,1120.76 h 178.199 v 156.238 H 825.641 Z" /><g
         transform="scale(10)"
         id="g312"><text
           id="text318"
           style="font-variant:normal;font-weight:normal;font-size:14.00399971px;font-family:Arial;-inkscape-font-specification:Arial;writing-mode:lr-tb;fill:#231f20;fill-opacity:1;fill-rule:nonzero;stroke:none"
           transform="matrix(0.994859,0,0,-1,82.5641,115.028)"><tspan
             id="tspan314"
             y="0"
             x="0 10.132174">C1</tspan><tspan
             id="tspan316"
             y="64.800003"
             x="-53.663799 -45.883961">L2</tspan></text>
</g><path
         id="path320"
         style="fill:#ffffff;fill-opacity:1;fill-rule:evenodd;stroke:none"
         d="m 1377.52,1072.88 h 178.56 V 916.641 h -178.56 v 156.239" /><path
         id="path322"
         style="fill:#ffffff;fill-opacity:1;fill-rule:nonzero;stroke:none"
         d="m 1377.52,916.641 h 178.199 v 156.238 H 1377.52 Z" /><g
         transform="scale(10)"
         id="g324"><text
           id="text328"
           style="font-variant:normal;font-weight:normal;font-size:14.00399971px;font-family:Arial;-inkscape-font-specification:Arial;writing-mode:lr-tb;fill:#231f20;fill-opacity:1;fill-rule:nonzero;stroke:none"
           transform="matrix(0.994859,0,0,-1,137.752,94.6159)"><tspan
             id="tspan326"
             y="0"
             x="0 10.132174">C2</tspan></text>
</g><path
         id="path330"
         style="fill:#ffffff;fill-opacity:1;fill-rule:evenodd;stroke:none"
         d="M 861.641,869.121 H 1039.84 V 712.52 H 861.641 v 156.601" /><path
         id="path332"
         style="fill:#ffffff;fill-opacity:1;fill-rule:nonzero;stroke:none"
         d="M 861.641,712.879 H 1039.84 V 869.121 H 861.641 Z" /><g
         transform="scale(10)"
         id="g334"><text
           id="text348"
           style="font-variant:normal;font-weight:normal;font-size:14.00399971px;font-family:Arial;-inkscape-font-specification:Arial;writing-mode:lr-tb;fill:#231f20;fill-opacity:1;fill-rule:nonzero;stroke:none"
           transform="matrix(0.994859,0,0,-1,86.1641,74.2401)"><tspan
             id="tspan336"
             y="0"
             x="0 10.132174">C3</tspan><tspan
             id="tspan338"
             y="72"
             x="35.570801">B</tspan><tspan
             id="tspan340"
             y="-21.6"
             x="135.6978">R</tspan><tspan
             id="tspan342"
             y="-114.5879"
             x="42.229301">T</tspan><tspan
             id="tspan344"
             y="-108.68399"
             x="-86.810699 -82.142563 -77.474823 -70.454742 -62.674511 -58.766529 -51.746449 -43.96661">(-ca,cb)</tspan><tspan
             id="tspan346"
             y="56.304008"
             x="133.9243 138.59244 145.61252 153.39235 157.30034 164.28429 172.10065">(ca,cb)</tspan></text>
</g><path
         id="path350"
         style="fill:#ffffff;fill-opacity:1;fill-rule:evenodd;stroke:none"
         d="m 1358.8,1254.68 h 357.48 v -158.4 H 1358.8 v 158.4" /><path
         id="path352"
         style="fill:#ffffff;fill-opacity:1;fill-rule:nonzero;stroke:none"
         d="m 1359.88,1097.72 h 356.402 v 156.242 H 1359.88 Z" /><g
         transform="scale(10)"
         id="g354"><text
           id="text358"
           style="font-variant:normal;font-weight:normal;font-size:14.00399971px;font-family:Arial;-inkscape-font-specification:Arial;writing-mode:lr-tb;fill:#231f20;fill-opacity:1;fill-rule:nonzero;stroke:none"
           transform="matrix(0.994859,0,0,-1,135.988,112.724)"><tspan
             id="tspan356"
             y="0"
             x="0 4.6681352 8.5761194 11.688214 19.468052 23.376429 31.156267">(tip,d)</tspan></text>
</g><path
         id="path360"
         style="fill:#ffffff;fill-opacity:1;fill-rule:evenodd;stroke:none"
         d="m 1359.88,929.961 h 403.2 V 773.719 h -403.2 v 156.242" /><path
         id="path362"
         style="fill:#ffffff;fill-opacity:1;fill-rule:nonzero;stroke:none"
         d="m 1359.88,773.719 h 402.84 v 156.242 h -402.84 z" /><g
         transform="scale(10)"
         id="g364"><text
           id="text368"
           style="font-variant:normal;font-weight:normal;font-size:14.00399971px;font-family:Arial;-inkscape-font-specification:Arial;writing-mode:lr-tb;fill:#231f20;fill-opacity:1;fill-rule:nonzero;stroke:none"
           transform="matrix(0.994859,0,0,-1,135.988,80.3241)"><tspan
             id="tspan366"
             y="0"
             x="0 4.6681352 8.5761194 11.688214 19.468052 23.376429 28.044172 35.824402">(tip,-d)</tspan></text>
</g></g></g></svg>