<?xml version="1.0" encoding="UTF-8" standalone="no"?>
<svg
   xmlns:dc="http://purl.org/dc/elements/1.1/"
   xmlns:cc="http://creativecommons.org/ns#"
   xmlns:rdf="http://www.w3.org/1999/02/22-rdf-syntax-ns#"
   xmlns:svg="http://www.w3.org/2000/svg"
   xmlns="http://www.w3.org/2000/svg"
   xmlns:sodipodi="http://sodipodi.sourceforge.net/DTD/sodipodi-0.dtd"
   xmlns:inkscape="http://www.inkscape.org/namespaces/inkscape"
   id="Calque_1"
   data-name="Calque 1"
   viewBox="0 0 380.98 113.39"
   version="1.1"
   sodipodi:docname="Logo.svg"
   inkscape:version="0.92.4 5da689c313, 2019-01-14">
  <metadata
     id="metadata30">
    <rdf:RDF>
      <cc:Work
         rdf:about="">
        <dc:format>image/svg+xml</dc:format>
        <dc:type
           rdf:resource="http://purl.org/dc/dcmitype/StillImage" />
      </cc:Work>
    </rdf:RDF>
  </metadata>
  <sodipodi:namedview
     pagecolor="#ffffff"
     bordercolor="#666666"
     borderopacity="1"
     objecttolerance="10"
     gridtolerance="10"
     guidetolerance="10"
     inkscape:pageopacity="0"
     inkscape:pageshadow="2"
     inkscape:window-width="1920"
     inkscape:window-height="1016"
     id="namedview28"
     showgrid="false"
     inkscape:zoom="1.1312929"
     inkscape:cx="194.02578"
     inkscape:cy="53.159222"
     inkscape:window-x="0"
     inkscape:window-y="27"
     inkscape:window-maximized="1"
     inkscape:current-layer="Calque_1" />
  <defs
     id="defs4">
    <style
       id="style2">.cls-1{fill:blue;}.cls-2{fill:#00007f;}</style>
  </defs>
  <title
     id="title6">Logo</title>
  <path
     class="cls-2"
     d="M397.36,291H381.81v14.22h-11V267.42h27.75v8.44H381.74v6.67H397.3V291Z"
     transform="translate(-230.46 -229.51)"
     id="path13" />
  <path
     class="cls-2"
     d="M417.29,292.68H413v12.51H402V267.42h16.7c4.89,0,8.76,1,11.49,3a9.55,9.55,0,0,1,4.13,8.32,12.59,12.59,0,0,1-1.59,6.73,11.85,11.85,0,0,1-5.33,4.38l8.19,15v.44H423.77ZM413,284.24h5.71c3.18,0,4.76-1.4,4.76-4.25s-1.71-4.13-5.08-4.13H413Z"
     transform="translate(-230.46 -229.51)"
     id="path15" />
  <path
     class="cls-2"
     d="M465.8,289.89H450.94v6.86h17.59v8.44H440V267.42h28.76v8.44H450.94v5.59H465.8Z"
     transform="translate(-230.46 -229.51)"
     id="path17" />
  <path
     class="cls-2"
     d="M497.6,289.89H482.75v6.86h17.58v8.44H471.77V267.42h28.75v8.44H482.75v5.59H497.6Z"
     transform="translate(-230.46 -229.51)"
     id="path19" />
  <path
     class="cls-2"
     d="M530.11,291H514.55v14.22h-11V267.42h27.75v8.44H514.49v6.67h15.56V291Z"
     transform="translate(-230.46 -229.51)"
     id="path21" />
  <path
     class="cls-2"
     d="M560.58,289.89H545.73v6.86h17.58v8.44H534.74V267.42H563.5v8.44H545.73v5.59h14.85Z"
     transform="translate(-230.46 -229.51)"
     id="path23" />
  <path
     class="cls-2"
     d="M581.09,267.42,589,291.54l7.87-24.12h14.6v37.77h-11v-5.84l1.08-20.19-9,26h-7l-9-26,1.14,20.19v5.84h-11V267.42Z"
     transform="translate(-230.46 -229.51)"
     id="path25" />
  <g
     id="g833"
     transform="matrix(0.69996616,0,0,0.69996616,24.36493,-106.39712)">
    <rect
       transform="matrix(1,0,-0.17364818,0.98480775,0,0)"
       rx="3.1896071"
       y="181.58182"
       x="49.328617"
       height="86.368324"
       width="21.264048"
       id="rect1411"
       style="fill:#0000ff;fill-opacity:1;stroke:none;stroke-width:0.8504014;stroke-linecap:round;stroke-linejoin:round;stroke-miterlimit:4;stroke-dasharray:none;stroke-dashoffset:0;stroke-opacity:1" />
    <rect
       transform="matrix(1,0,-0.17364818,0.98480775,0,0)"
       rx="3.1896071"
       y="181.58182"
       x="64.966545"
       height="21.592081"
       width="53.160122"
       id="rect1413"
       style="fill:#0000ff;fill-opacity:1;stroke:none;stroke-width:0.8504014;stroke-linecap:round;stroke-linejoin:round;stroke-miterlimit:4;stroke-dasharray:none;stroke-dashoffset:0;stroke-opacity:1" />
    <rect
       transform="matrix(1,0,-0.17364818,0.98480775,0,0)"
       rx="3.1896071"
       y="218.71571"
       x="72.469795"
       height="16.194061"
       width="21.264048"
       id="rect1415"
       style="fill:#0000ff;fill-opacity:1;stroke:none;stroke-width:0.8504014;stroke-linecap:round;stroke-linejoin:round;stroke-miterlimit:4;stroke-dasharray:none;stroke-dashoffset:0;stroke-opacity:1" />
    <rect
       transform="matrix(1,0,-0.17364818,0.98480775,0,0)"
       rx="3.1896071"
       y="205.23866"
       x="95.834"
       height="86.368324"
       width="21.264048"
       id="rect1411-6"
       style="fill:#0000ff;fill-opacity:1;stroke:none;stroke-width:0.8504014;stroke-linecap:round;stroke-linejoin:round;stroke-miterlimit:4;stroke-dasharray:none;stroke-dashoffset:0;stroke-opacity:1" />
    <rect
       transform="matrix(1,0,-0.17364818,0.98480775,0,0)"
       rx="3.1896071"
       y="205.23866"
       x="111.47193"
       height="21.592081"
       width="53.160122"
       id="rect1413-7"
       style="fill:#0000ff;fill-opacity:1;stroke:none;stroke-width:0.8504014;stroke-linecap:round;stroke-linejoin:round;stroke-miterlimit:4;stroke-dasharray:none;stroke-dashoffset:0;stroke-opacity:1" />
    <rect
       transform="matrix(1,0,-0.17364818,0.98480775,0,0)"
       rx="3.1896071"
       y="242.37254"
       x="118.97518"
       height="16.194061"
       width="21.264048"
       id="rect1415-5"
       style="fill:#0000ff;fill-opacity:1;stroke:none;stroke-width:0.8504014;stroke-linecap:round;stroke-linejoin:round;stroke-miterlimit:4;stroke-dasharray:none;stroke-dashoffset:0;stroke-opacity:1" />
  </g>
</svg>
