<?xml version="1.0" encoding="UTF-8" standalone="no"?>
<svg
   xmlns:dc="http://purl.org/dc/elements/1.1/"
   xmlns:cc="http://creativecommons.org/ns#"
   xmlns:rdf="http://www.w3.org/1999/02/22-rdf-syntax-ns#"
   xmlns:svg="http://www.w3.org/2000/svg"
   xmlns="http://www.w3.org/2000/svg"
   viewBox="0 0 269.33334 154.66667"
   height="154.66667"
   width="269.33334"
   xml:space="preserve"
   id="svg2"
   version="1.1"><metadata
     id="metadata8"><rdf:RDF><cc:Work
         rdf:about=""><dc:format>image/svg+xml</dc:format><dc:type
           rdf:resource="http://purl.org/dc/dcmitype/StillImage" /></cc:Work></rdf:RDF></metadata><defs
     id="defs6" /><g
     transform="matrix(1.3333333,0,0,-1.3333333,0,154.66667)"
     id="g10"><g
       transform="scale(0.1)"
       id="g12"><path
         id="path14"
         style="fill:none;stroke:#231f20;stroke-width:2.9763701;stroke-linecap:butt;stroke-linejoin:miter;stroke-miterlimit:10;stroke-dasharray:none;stroke-opacity:1"
         d="m 1242.44,882.48 19.44,-154.441 160.56,97.563 -180,56.878" /><path
         id="path16"
         style="fill:none;stroke:#231f20;stroke-width:2.9763701;stroke-linecap:butt;stroke-linejoin:miter;stroke-miterlimit:10;stroke-dasharray:none;stroke-opacity:1"
         d="m 1242.44,882.48 -115.56,-65.878 135,-88.563 -19.44,154.441" /><path
         id="path18"
         style="fill:none;stroke:#231f20;stroke-width:2.9763701;stroke-linecap:butt;stroke-linejoin:miter;stroke-miterlimit:10;stroke-dasharray:none;stroke-opacity:1"
         d="m 1452.68,491.16 -169.56,90 65.88,-109.441 103.68,19.441" /><path
         id="path20"
         style="fill:none;stroke:#231f20;stroke-width:2.9763701;stroke-linecap:butt;stroke-linejoin:miter;stroke-miterlimit:10;stroke-dasharray:none;stroke-opacity:1"
         d="m 1432.88,368.039 -83.88,103.68 -36,-148.68 119.88,45" /><path
         id="path22"
         style="fill:none;stroke:#231f20;stroke-width:2.9763701;stroke-linecap:butt;stroke-linejoin:miter;stroke-miterlimit:10;stroke-dasharray:none;stroke-opacity:1"
         d="m 1452.68,491.16 85.32,-78.121 4.68,92.883 -90,-14.762" /><path
         id="path24"
         style="fill:none;stroke:#231f20;stroke-width:2.9763701;stroke-linecap:butt;stroke-linejoin:miter;stroke-miterlimit:10;stroke-dasharray:none;stroke-opacity:1"
         d="M 1349,471.719 1283.12,581.16 1171.88,531.48 1349,471.719" /><path
         id="path26"
         style="fill:none;stroke:#231f20;stroke-width:2.9763701;stroke-linecap:butt;stroke-linejoin:miter;stroke-miterlimit:10;stroke-dasharray:none;stroke-opacity:1"
         d="m 1261.88,728.039 -135,88.563 -28.44,-100.442 163.44,11.879" /><path
         id="path28"
         style="fill:none;stroke:#231f20;stroke-width:2.9763701;stroke-linecap:butt;stroke-linejoin:miter;stroke-miterlimit:10;stroke-dasharray:none;stroke-opacity:1"
         d="m 1242.44,882.48 -128.88,54 13.32,-119.878 115.56,65.878" /><path
         id="path30"
         style="fill:none;stroke:#231f20;stroke-width:2.9763701;stroke-linecap:butt;stroke-linejoin:miter;stroke-miterlimit:10;stroke-dasharray:none;stroke-opacity:1"
         d="m 982.879,896.16 130.681,40.32 -90,36 -40.681,-76.32" /><path
         id="path32"
         style="fill:none;stroke:#231f20;stroke-width:2.9763701;stroke-linecap:butt;stroke-linejoin:miter;stroke-miterlimit:10;stroke-dasharray:none;stroke-opacity:1"
         d="m 1349,471.719 -177.12,-45 141.12,-103.68 36,148.68" /><path
         id="path34"
         style="fill:none;stroke:#231f20;stroke-width:2.9763701;stroke-linecap:butt;stroke-linejoin:miter;stroke-miterlimit:10;stroke-dasharray:none;stroke-opacity:1"
         d="m 892.879,960.602 90,-64.442 40.681,76.32 -130.681,-11.878" /><path
         id="path36"
         style="fill:none;stroke:#231f20;stroke-width:2.9763701;stroke-linecap:butt;stroke-linejoin:miter;stroke-miterlimit:10;stroke-dasharray:none;stroke-opacity:1"
         d="m 933.559,801.48 193.321,15.122 -144.001,79.558 -49.32,-94.68" /><path
         id="path38"
         style="fill:none;stroke:#231f20;stroke-width:2.9763701;stroke-linecap:butt;stroke-linejoin:miter;stroke-miterlimit:10;stroke-dasharray:none;stroke-opacity:1"
         d="M 982.879,896.16 1126.88,816.602 1113.56,936.48 982.879,896.16" /><path
         id="path40"
         style="fill:none;stroke:#231f20;stroke-width:2.9763701;stroke-linecap:butt;stroke-linejoin:miter;stroke-miterlimit:10;stroke-dasharray:none;stroke-opacity:1"
         d="m 933.559,801.48 -6.118,-180 89.999,49.68 -83.881,130.32" /><path
         id="path42"
         style="fill:none;stroke:#231f20;stroke-width:2.9763701;stroke-linecap:butt;stroke-linejoin:miter;stroke-miterlimit:10;stroke-dasharray:none;stroke-opacity:1"
         d="m 1079,486.48 -10.44,-118.441 103.32,58.68 -92.88,59.761" /><path
         id="path44"
         style="fill:none;stroke:#231f20;stroke-width:2.9763701;stroke-linecap:butt;stroke-linejoin:miter;stroke-miterlimit:10;stroke-dasharray:none;stroke-opacity:1"
         d="m 1169,662.16 114.12,-81 -21.24,146.879 L 1169,662.16" /><path
         id="path46"
         style="fill:none;stroke:#231f20;stroke-width:2.9763701;stroke-linecap:butt;stroke-linejoin:miter;stroke-miterlimit:10;stroke-dasharray:none;stroke-opacity:1"
         d="m 892.879,960.602 40.68,-159.122 49.32,94.68 -90,64.442" /><path
         id="path48"
         style="fill:none;stroke:#231f20;stroke-width:2.9763701;stroke-linecap:butt;stroke-linejoin:miter;stroke-miterlimit:10;stroke-dasharray:none;stroke-opacity:1"
         d="m 734.121,721.922 -105.121,-180 128.879,9 -23.758,171" /><path
         id="path50"
         style="fill:none;stroke:#231f20;stroke-width:2.9763701;stroke-linecap:butt;stroke-linejoin:miter;stroke-miterlimit:10;stroke-dasharray:none;stroke-opacity:1"
         d="M 539,438.602 644.121,306.48 667.879,432.48 539,438.602" /><path
         id="path52"
         style="fill:none;stroke:#231f20;stroke-width:2.9763701;stroke-linecap:butt;stroke-linejoin:miter;stroke-miterlimit:10;stroke-dasharray:none;stroke-opacity:1"
         d="m 667.879,432.48 34.562,-83.878 75.239,67.32 -109.801,16.558" /><path
         id="path54"
         style="fill:none;stroke:#231f20;stroke-width:2.9763701;stroke-linecap:butt;stroke-linejoin:miter;stroke-miterlimit:10;stroke-dasharray:none;stroke-opacity:1"
         d="M 854,316.922 963.441,233.039 953,348.602 854,316.922" /><path
         id="path56"
         style="fill:none;stroke:#231f20;stroke-width:2.9763701;stroke-linecap:butt;stroke-linejoin:miter;stroke-miterlimit:10;stroke-dasharray:none;stroke-opacity:1"
         d="M 1088,606.719 937.879,477.48 l 141.121,9 9,120.239" /><path
         id="path58"
         style="fill:none;stroke:#231f20;stroke-width:2.9763701;stroke-linecap:butt;stroke-linejoin:miter;stroke-miterlimit:10;stroke-dasharray:none;stroke-opacity:1"
         d="m 927.441,621.48 -169.562,-70.558 180,-73.442 -10.438,144" /><path
         id="path60"
         style="fill:none;stroke:#231f20;stroke-width:2.9763701;stroke-linecap:butt;stroke-linejoin:miter;stroke-miterlimit:10;stroke-dasharray:none;stroke-opacity:1"
         d="M 937.879,477.48 882.441,415.922 953,348.602 937.879,477.48" /><path
         id="path62"
         style="fill:none;stroke:#231f20;stroke-width:2.9763701;stroke-linecap:butt;stroke-linejoin:miter;stroke-miterlimit:10;stroke-dasharray:none;stroke-opacity:1"
         d="m 1088,606.719 81,55.441 -70.56,54 L 1088,606.719" /><path
         id="path64"
         style="fill:none;stroke:#231f20;stroke-width:2.9763701;stroke-linecap:butt;stroke-linejoin:miter;stroke-miterlimit:10;stroke-dasharray:none;stroke-opacity:1"
         d="m 1088,606.719 83.88,-75.239 -2.88,130.68 -81,-55.441" /><path
         id="path66"
         style="fill:none;stroke:#231f20;stroke-width:2.9763701;stroke-linecap:butt;stroke-linejoin:miter;stroke-miterlimit:10;stroke-dasharray:none;stroke-opacity:1"
         d="m 1169,662.16 92.88,65.879 -163.44,-11.879 70.56,-54" /><path
         id="path68"
         style="fill:none;stroke:#231f20;stroke-width:2.9763701;stroke-linecap:butt;stroke-linejoin:miter;stroke-miterlimit:10;stroke-dasharray:none;stroke-opacity:1"
         d="M 423.441,593.039 629,541.922 l -55.441,135 -150.118,-83.883" /><path
         id="path70"
         style="fill:none;stroke:#231f20;stroke-width:2.9763701;stroke-linecap:butt;stroke-linejoin:miter;stroke-miterlimit:10;stroke-dasharray:none;stroke-opacity:1"
         d="M 539,438.602 667.879,432.48 629,541.922 539,438.602" /><path
         id="path72"
         style="fill:none;stroke:#231f20;stroke-width:2.9763701;stroke-linecap:butt;stroke-linejoin:miter;stroke-miterlimit:10;stroke-dasharray:none;stroke-opacity:1"
         d="m 629,541.922 38.879,-109.442 90,118.442 -128.879,-9" /><path
         id="path74"
         style="fill:none;stroke:#231f20;stroke-width:2.9763701;stroke-linecap:butt;stroke-linejoin:miter;stroke-miterlimit:10;stroke-dasharray:none;stroke-opacity:1"
         d="m 777.68,415.922 h 104.761 l -124.562,135 19.801,-135" /><path
         id="path76"
         style="fill:none;stroke:#231f20;stroke-width:2.9763701;stroke-linecap:butt;stroke-linejoin:miter;stroke-miterlimit:10;stroke-dasharray:none;stroke-opacity:1"
         d="m 629,541.922 105.121,180 -160.562,-45 55.441,-135" /><path
         id="path78"
         style="fill:none;stroke:#231f20;stroke-width:2.9763701;stroke-linecap:butt;stroke-linejoin:miter;stroke-miterlimit:10;stroke-dasharray:none;stroke-opacity:1"
         d="m 757.879,550.922 169.562,70.558 -193.32,100.442 23.758,-171" /><path
         id="path80"
         style="fill:none;stroke:#231f20;stroke-width:2.9763701;stroke-linecap:butt;stroke-linejoin:miter;stroke-miterlimit:10;stroke-dasharray:none;stroke-opacity:1"
         d="m 734.121,721.922 199.438,79.558 -234,135 34.562,-214.558" /><path
         id="path82"
         style="fill:none;stroke:#231f20;stroke-width:2.9763701;stroke-linecap:butt;stroke-linejoin:miter;stroke-miterlimit:10;stroke-dasharray:none;stroke-opacity:1"
         d="M 1098.44,716.16 1126.88,816.602 933.559,801.48 1098.44,716.16" /><path
         id="path84"
         style="fill:none;stroke:#231f20;stroke-width:2.9763701;stroke-linecap:butt;stroke-linejoin:miter;stroke-miterlimit:10;stroke-dasharray:none;stroke-opacity:1"
         d="m 933.559,801.48 -40.68,159.122 -193.32,-24.122 234,-135" /><path
         id="path86"
         style="fill:none;stroke:#231f20;stroke-width:2.9763701;stroke-linecap:butt;stroke-linejoin:miter;stroke-miterlimit:10;stroke-dasharray:none;stroke-opacity:1"
         d="m 927.441,621.48 10.438,-144 L 1088,606.719 927.441,621.48" /><path
         id="path88"
         style="fill:none;stroke:#231f20;stroke-width:2.9763701;stroke-linecap:butt;stroke-linejoin:miter;stroke-miterlimit:10;stroke-dasharray:none;stroke-opacity:1"
         d="M 937.879,477.48 1068.56,368.039 1079,486.48 l -141.121,-9" /><path
         id="path90"
         style="fill:none;stroke:#231f20;stroke-width:2.9763701;stroke-linecap:butt;stroke-linejoin:miter;stroke-miterlimit:10;stroke-dasharray:none;stroke-opacity:1"
         d="M 937.879,477.48 953,348.602 1068.56,368.039 937.879,477.48" /><path
         id="path92"
         style="fill:none;stroke:#231f20;stroke-width:2.9763701;stroke-linecap:butt;stroke-linejoin:miter;stroke-miterlimit:10;stroke-dasharray:none;stroke-opacity:1"
         d="m 882.441,415.922 -28.441,-99 99,31.68 -70.559,67.32" /><path
         id="path94"
         style="fill:none;stroke:#231f20;stroke-width:2.9763701;stroke-linecap:butt;stroke-linejoin:miter;stroke-miterlimit:10;stroke-dasharray:none;stroke-opacity:1"
         d="m 953,348.602 10.441,-115.563 98.999,13.68 L 953,348.602" /><path
         id="path96"
         style="fill:none;stroke:#231f20;stroke-width:2.9763701;stroke-linecap:butt;stroke-linejoin:miter;stroke-miterlimit:10;stroke-dasharray:none;stroke-opacity:1"
         d="m 1068.56,368.039 -6.12,-121.32 126,34.203 -119.88,87.117" /><path
         id="path98"
         style="fill:none;stroke:#231f20;stroke-width:2.9763701;stroke-linecap:butt;stroke-linejoin:miter;stroke-miterlimit:10;stroke-dasharray:none;stroke-opacity:1"
         d="m 1169,662.16 2.88,-130.68 111.24,49.68 -114.12,81" /><path
         id="path100"
         style="fill:none;stroke:#231f20;stroke-width:2.9763701;stroke-linecap:butt;stroke-linejoin:miter;stroke-miterlimit:10;stroke-dasharray:none;stroke-opacity:1"
         d="m 1079,486.48 92.88,-59.761 V 531.48 l -92.88,-45" /><path
         id="path102"
         style="fill:none;stroke:#231f20;stroke-width:2.9763701;stroke-linecap:butt;stroke-linejoin:miter;stroke-miterlimit:10;stroke-dasharray:none;stroke-opacity:1"
         d="M 1171.88,531.48 V 426.719 l 177.12,45 -177.12,59.761" /><path
         id="path104"
         style="fill:none;stroke:#231f20;stroke-width:2.9763701;stroke-linecap:butt;stroke-linejoin:miter;stroke-miterlimit:10;stroke-dasharray:none;stroke-opacity:1"
         d="m 1188.44,280.922 124.56,42.117 -141.12,103.68 16.56,-145.797" /><path
         id="path106"
         style="fill:none;stroke:#231f20;stroke-width:2.9763701;stroke-linecap:butt;stroke-linejoin:miter;stroke-miterlimit:10;stroke-dasharray:none;stroke-opacity:1"
         d="m 1079,486.48 92.88,45 -83.88,74.879 -9,-119.879" /><path
         id="path108"
         style="fill:none;stroke:#231f20;stroke-width:2.9763701;stroke-linecap:butt;stroke-linejoin:miter;stroke-miterlimit:10;stroke-dasharray:none;stroke-opacity:1"
         d="m 1188.44,280.922 -16.56,145.797 -103.32,-58.68 119.88,-87.117" /><path
         id="path110"
         style="fill:none;stroke:#231f20;stroke-width:2.9763701;stroke-linecap:butt;stroke-linejoin:miter;stroke-miterlimit:10;stroke-dasharray:none;stroke-opacity:1"
         d="m 882.441,415.922 55.438,61.558 -180,73.442 124.562,-135" /><path
         id="path112"
         style="fill:none;stroke:#231f20;stroke-width:2.9763701;stroke-linecap:butt;stroke-linejoin:miter;stroke-miterlimit:10;stroke-dasharray:none;stroke-opacity:1"
         d="M 1088,606.719 1017.44,671.16 927.441,621.48 1088,606.719" /><path
         id="path114"
         style="fill:none;stroke:#231f20;stroke-width:2.9763701;stroke-linecap:butt;stroke-linejoin:miter;stroke-miterlimit:10;stroke-dasharray:none;stroke-opacity:1"
         d="m 1088,606.719 10.44,109.441 -81,-45 70.56,-64.441" /><path
         id="path116"
         style="fill:none;stroke:#231f20;stroke-width:2.9763701;stroke-linecap:butt;stroke-linejoin:miter;stroke-miterlimit:10;stroke-dasharray:none;stroke-opacity:1"
         d="m 1017.44,671.16 81,45 -164.881,85.32 83.881,-130.32" /><path
         id="path118"
         style="fill:none;stroke:#231f20;stroke-width:2.9763701;stroke-linecap:butt;stroke-linejoin:miter;stroke-miterlimit:10;stroke-dasharray:none;stroke-opacity:1"
         d="m 927.441,621.48 6.118,180 -199.438,-79.558 193.32,-100.442" /><path
         id="path120"
         style="fill:none;stroke:#231f20;stroke-width:2.9763701;stroke-linecap:butt;stroke-linejoin:miter;stroke-miterlimit:10;stroke-dasharray:none;stroke-opacity:1"
         d="m 854,316.922 -76.32,99 -30.239,-135 106.559,36" /><path
         id="path122"
         style="fill:none;stroke:#231f20;stroke-width:2.9763701;stroke-linecap:butt;stroke-linejoin:miter;stroke-miterlimit:10;stroke-dasharray:none;stroke-opacity:1"
         d="m 509.121,840.719 225,-118.797 -34.562,214.558 -190.438,-95.761" /><path
         id="path124"
         style="fill:none;stroke:#231f20;stroke-width:2.9763701;stroke-linecap:butt;stroke-linejoin:miter;stroke-miterlimit:10;stroke-dasharray:none;stroke-opacity:1"
         d="m 953,348.602 109.44,-101.883 6.12,121.32 L 953,348.602" /><path
         id="path126"
         style="fill:none;stroke:#231f20;stroke-width:2.9763701;stroke-linecap:butt;stroke-linejoin:miter;stroke-miterlimit:10;stroke-dasharray:none;stroke-opacity:1"
         d="m 777.68,415.922 76.32,-99 28.441,99 H 777.68" /><path
         id="path128"
         style="fill:none;stroke:#231f20;stroke-width:2.9763701;stroke-linecap:butt;stroke-linejoin:miter;stroke-miterlimit:10;stroke-dasharray:none;stroke-opacity:1"
         d="m 747.441,280.922 61.559,-58.32 45,94.32 -106.559,-36" /><path
         id="path130"
         style="fill:none;stroke:#231f20;stroke-width:2.9763701;stroke-linecap:butt;stroke-linejoin:miter;stroke-miterlimit:10;stroke-dasharray:none;stroke-opacity:1"
         d="m 854,316.922 22.68,-90 86.761,6.117 L 854,316.922" /><path
         id="path132"
         style="fill:none;stroke:#231f20;stroke-width:2.9763701;stroke-linecap:butt;stroke-linejoin:miter;stroke-miterlimit:10;stroke-dasharray:none;stroke-opacity:1"
         d="m 644.121,306.48 55.438,-92.878 47.882,67.32 -103.32,25.558" /><path
         id="path134"
         style="fill:none;stroke:#231f20;stroke-width:2.9763701;stroke-linecap:butt;stroke-linejoin:miter;stroke-miterlimit:10;stroke-dasharray:none;stroke-opacity:1"
         d="m 734.121,721.922 -225,118.797 64.438,-163.797 160.562,45" /><path
         id="path136"
         style="fill:none;stroke:#231f20;stroke-width:2.9763701;stroke-linecap:butt;stroke-linejoin:miter;stroke-miterlimit:10;stroke-dasharray:none;stroke-opacity:1"
         d="M 573.559,676.922 509.121,840.719 359,756.48 573.559,676.922" /><path
         id="path138"
         style="fill:none;stroke:#231f20;stroke-width:2.9763701;stroke-linecap:butt;stroke-linejoin:miter;stroke-miterlimit:10;stroke-dasharray:none;stroke-opacity:1"
         d="m 809,222.602 -61.559,58.32 6.118,-58.32 H 809" /><path
         id="path140"
         style="fill:none;stroke:#231f20;stroke-width:2.9763701;stroke-linecap:butt;stroke-linejoin:miter;stroke-miterlimit:10;stroke-dasharray:none;stroke-opacity:1"
         d="m 777.68,415.922 -75.239,-67.32 45,-67.68 30.239,135" /><path
         id="path142"
         style="fill:none;stroke:#231f20;stroke-width:2.9763701;stroke-linecap:butt;stroke-linejoin:miter;stroke-miterlimit:10;stroke-dasharray:none;stroke-opacity:1"
         d="m 777.68,415.922 -19.801,135 -90,-118.442 109.801,-16.558" /><path
         id="path144"
         style="fill:none;stroke:#231f20;stroke-width:2.9763701;stroke-linecap:butt;stroke-linejoin:miter;stroke-miterlimit:10;stroke-dasharray:none;stroke-opacity:1"
         d="M 699.559,213.602 644.121,306.48 548,252.48 699.559,213.602" /><path
         id="path146"
         style="fill:none;stroke:#231f20;stroke-width:2.9763701;stroke-linecap:butt;stroke-linejoin:miter;stroke-miterlimit:10;stroke-dasharray:none;stroke-opacity:1"
         d="m 702.441,348.602 -34.562,83.878 -23.758,-126 58.32,42.122" /><path
         id="path148"
         style="fill:none;stroke:#231f20;stroke-width:2.9763701;stroke-linecap:butt;stroke-linejoin:miter;stroke-miterlimit:10;stroke-dasharray:none;stroke-opacity:1"
         d="M 644.121,306.48 539,438.602 l 9,-186.122 96.121,54" /><path
         id="path150"
         style="fill:none;stroke:#231f20;stroke-width:2.9763701;stroke-linecap:butt;stroke-linejoin:miter;stroke-miterlimit:10;stroke-dasharray:none;stroke-opacity:1"
         d="m 747.441,280.922 -47.882,-67.32 54,9 -6.118,58.32" /><path
         id="path152"
         style="fill:none;stroke:#231f20;stroke-width:2.9763701;stroke-linecap:butt;stroke-linejoin:miter;stroke-miterlimit:10;stroke-dasharray:none;stroke-opacity:1"
         d="m 159.559,516.719 99,-45 36,90 -135,-45" /><path
         id="path154"
         style="fill:none;stroke:#231f20;stroke-width:2.9763701;stroke-linecap:butt;stroke-linejoin:miter;stroke-miterlimit:10;stroke-dasharray:none;stroke-opacity:1"
         d="M 183.68,441.48 269,370.922 258.559,471.719 183.68,441.48" /><path
         id="path156"
         style="fill:none;stroke:#231f20;stroke-width:2.9763701;stroke-linecap:butt;stroke-linejoin:miter;stroke-miterlimit:10;stroke-dasharray:none;stroke-opacity:1"
         d="M 258.559,471.719 269,370.922 l 115.559,87.117 -126,13.68" /><path
         id="path158"
         style="fill:none;stroke:#231f20;stroke-width:2.9763701;stroke-linecap:butt;stroke-linejoin:miter;stroke-miterlimit:10;stroke-dasharray:none;stroke-opacity:1"
         d="m 183.68,441.48 74.879,30.239 126,-13.68 -90,103.68 -36,-90 -99,45 24.121,-75.239" /><path
         id="path160"
         style="fill:none;stroke:#231f20;stroke-width:2.9763701;stroke-linecap:butt;stroke-linejoin:miter;stroke-miterlimit:10;stroke-dasharray:none;stroke-opacity:1"
         d="m 393.559,306.48 -9,151.559 L 269,370.922 393.559,306.48" /><path
         id="path162"
         style="fill:none;stroke:#231f20;stroke-width:2.9763701;stroke-linecap:butt;stroke-linejoin:miter;stroke-miterlimit:10;stroke-dasharray:none;stroke-opacity:1"
         d="M 393.559,306.48 548,252.48 539,438.602 393.559,306.48" /><path
         id="path164"
         style="fill:none;stroke:#231f20;stroke-width:2.9763701;stroke-linecap:butt;stroke-linejoin:miter;stroke-miterlimit:10;stroke-dasharray:none;stroke-opacity:1"
         d="M 249.559,676.922 423.441,593.039 359,756.48 249.559,676.922" /><path
         id="path166"
         style="fill:none;stroke:#231f20;stroke-width:2.9763701;stroke-linecap:butt;stroke-linejoin:miter;stroke-miterlimit:10;stroke-dasharray:none;stroke-opacity:1"
         d="M 384.559,458.039 539,438.602 423.441,593.039 l -38.882,-135" /><path
         id="path168"
         style="fill:none;stroke:#231f20;stroke-width:2.9763701;stroke-linecap:butt;stroke-linejoin:miter;stroke-miterlimit:10;stroke-dasharray:none;stroke-opacity:1"
         d="m 249.559,676.922 45,-115.203 128.882,31.32 150.118,83.883 L 359,756.48 423.441,593.039 249.559,676.922" /><path
         id="path170"
         style="fill:none;stroke:#231f20;stroke-width:2.9763701;stroke-linecap:butt;stroke-linejoin:miter;stroke-miterlimit:10;stroke-dasharray:none;stroke-opacity:1"
         d="m 183.68,595.922 -24.121,-79.203 135,45 -110.879,34.203" /><path
         id="path172"
         style="fill:none;stroke:#231f20;stroke-width:2.9763701;stroke-linecap:butt;stroke-linejoin:miter;stroke-miterlimit:10;stroke-dasharray:none;stroke-opacity:1"
         d="m 294.559,561.719 90,-103.68 38.882,135 -128.882,-31.32" /><path
         id="path174"
         style="fill:none;stroke:#231f20;stroke-width:2.9763701;stroke-linecap:butt;stroke-linejoin:miter;stroke-miterlimit:10;stroke-dasharray:none;stroke-opacity:1"
         d="M 423.441,593.039 539,438.602 l 90,103.32 -205.559,51.117" /><path
         id="path176"
         style="fill:none;stroke:#231f20;stroke-width:2.9763701;stroke-linecap:butt;stroke-linejoin:miter;stroke-miterlimit:10;stroke-dasharray:none;stroke-opacity:1"
         d="m 384.559,458.039 9,-151.559 L 539,438.602 384.559,458.039" /><path
         id="path178"
         style="fill:none;stroke:#231f20;stroke-width:2.9763701;stroke-linecap:butt;stroke-linejoin:miter;stroke-miterlimit:10;stroke-dasharray:none;stroke-opacity:1"
         d="m 747.441,280.922 -45,67.68 -58.32,-42.122 103.32,-25.558" /><path
         id="path180"
         style="fill:none;stroke:#231f20;stroke-width:2.9763701;stroke-linecap:butt;stroke-linejoin:miter;stroke-miterlimit:10;stroke-dasharray:none;stroke-opacity:1"
         d="m 183.68,595.922 110.879,-34.203 -45,115.203 -65.879,-81" /><path
         id="path182"
         style="fill:none;stroke:#231f20;stroke-width:2.9763701;stroke-linecap:butt;stroke-linejoin:miter;stroke-miterlimit:10;stroke-dasharray:none;stroke-opacity:1"
         d="m 809,222.602 67.68,4.32 -22.68,90 -45,-94.32" /><path
         id="path184"
         style="fill:none;stroke:#231f20;stroke-width:2.9763701;stroke-linecap:butt;stroke-linejoin:miter;stroke-miterlimit:10;stroke-dasharray:none;stroke-opacity:1"
         d="m 1787.12,721.922 -45,-36 70.56,-2.883 -25.56,38.883" /><path
         id="path186"
         style="fill:none;stroke:#231f20;stroke-width:2.9763701;stroke-linecap:butt;stroke-linejoin:miter;stroke-miterlimit:10;stroke-dasharray:none;stroke-opacity:1"
         d="m 1778.12,640.922 34.56,-2.883 v 45 l -34.56,-42.117" /><path
         id="path188"
         style="fill:none;stroke:#231f20;stroke-width:2.9763701;stroke-linecap:butt;stroke-linejoin:miter;stroke-miterlimit:10;stroke-dasharray:none;stroke-opacity:1"
         d="m 1664,782.039 19.44,-96.117 54,70.558 -73.44,25.559" /><path
         id="path190"
         style="fill:none;stroke:#231f20;stroke-width:2.9763701;stroke-linecap:butt;stroke-linejoin:miter;stroke-miterlimit:10;stroke-dasharray:none;stroke-opacity:1"
         d="m 1683.44,685.922 -25.56,-92.883 70.56,24.121 -45,68.762" /><path
         id="path192"
         style="fill:none;stroke:#231f20;stroke-width:2.9763701;stroke-linecap:butt;stroke-linejoin:miter;stroke-miterlimit:10;stroke-dasharray:none;stroke-opacity:1"
         d="m 1742.12,685.922 36,-45 34.56,42.117 -70.56,2.883" /><path
         id="path194"
         style="fill:none;stroke:#231f20;stroke-width:2.9763701;stroke-linecap:butt;stroke-linejoin:miter;stroke-miterlimit:10;stroke-dasharray:none;stroke-opacity:1"
         d="m 1812.68,638.039 -34.56,2.883 14.76,-47.883 19.8,45" /><path
         id="path196"
         style="fill:none;stroke:#231f20;stroke-width:2.9763701;stroke-linecap:butt;stroke-linejoin:miter;stroke-miterlimit:10;stroke-dasharray:none;stroke-opacity:1"
         d="m 1787.12,721.922 -49.68,34.558 4.68,-70.558 45,36" /><path
         id="path198"
         style="fill:none;stroke:#231f20;stroke-width:2.9763701;stroke-linecap:butt;stroke-linejoin:miter;stroke-miterlimit:10;stroke-dasharray:none;stroke-opacity:1"
         d="m 1657.88,593.039 25.56,92.883 -70.56,6.117 45,-99" /><path
         id="path200"
         style="fill:none;stroke:#231f20;stroke-width:2.9763701;stroke-linecap:butt;stroke-linejoin:miter;stroke-miterlimit:10;stroke-dasharray:none;stroke-opacity:1"
         d="m 1728.44,617.16 13.68,68.762 h -58.68 l 45,-68.762" /><path
         id="path202"
         style="fill:none;stroke:#231f20;stroke-width:2.9763701;stroke-linecap:butt;stroke-linejoin:miter;stroke-miterlimit:10;stroke-dasharray:none;stroke-opacity:1"
         d="m 1664,782.039 -51.12,-90 70.56,-6.117 h 58.68 l -4.68,70.558 -54,-70.558 -19.44,96.117" /><path
         id="path204"
         style="fill:none;stroke:#231f20;stroke-width:2.9763701;stroke-linecap:butt;stroke-linejoin:miter;stroke-miterlimit:10;stroke-dasharray:none;stroke-opacity:1"
         d="m 1778.12,640.922 -49.68,-23.762 64.44,-24.121 -14.76,47.883" /><path
         id="path206"
         style="fill:none;stroke:#231f20;stroke-width:2.9763701;stroke-linecap:butt;stroke-linejoin:miter;stroke-miterlimit:10;stroke-dasharray:none;stroke-opacity:1"
         d="m 1562.12,806.16 50.76,-114.121 51.12,90 -101.88,24.121" /><path
         id="path208"
         style="fill:none;stroke:#231f20;stroke-width:2.9763701;stroke-linecap:butt;stroke-linejoin:miter;stroke-miterlimit:10;stroke-dasharray:none;stroke-opacity:1"
         d="m 1562.12,806.16 -139.68,19.442 45,-163.442 94.68,144" /><path
         id="path210"
         style="fill:none;stroke:#231f20;stroke-width:2.9763701;stroke-linecap:butt;stroke-linejoin:miter;stroke-miterlimit:10;stroke-dasharray:none;stroke-opacity:1"
         d="m 1792.88,593.039 -64.44,24.121 28.44,-69.121 36,45" /><path
         id="path212"
         style="fill:none;stroke:#231f20;stroke-width:2.9763701;stroke-linecap:butt;stroke-linejoin:miter;stroke-miterlimit:10;stroke-dasharray:none;stroke-opacity:1"
         d="m 1778.12,640.922 -36,45 -13.68,-68.762 49.68,23.762" /><path
         id="path214"
         style="fill:none;stroke:#231f20;stroke-width:2.9763701;stroke-linecap:butt;stroke-linejoin:miter;stroke-miterlimit:10;stroke-dasharray:none;stroke-opacity:1"
         d="m 1728.44,617.16 -70.56,-24.121 99,-45 -28.44,69.121" /><path
         id="path216"
         style="fill:none;stroke:#231f20;stroke-width:2.9763701;stroke-linecap:butt;stroke-linejoin:miter;stroke-miterlimit:10;stroke-dasharray:none;stroke-opacity:1"
         d="m 1756.88,548.039 -99,45 39.24,-90 59.76,45" /><path
         id="path218"
         style="fill:none;stroke:#231f20;stroke-width:2.9763701;stroke-linecap:butt;stroke-linejoin:miter;stroke-miterlimit:10;stroke-dasharray:none;stroke-opacity:1"
         d="m 1612.88,692.039 -64.44,-85.32 109.44,-13.68 -45,99" /><path
         id="path220"
         style="fill:none;stroke:#231f20;stroke-width:2.9763701;stroke-linecap:butt;stroke-linejoin:miter;stroke-miterlimit:10;stroke-dasharray:none;stroke-opacity:1"
         d="m 1697.12,503.039 -39.24,90 -109.44,13.68 -5.76,-100.797 115.2,87.117 -36,-135 75.24,45" /><path
         id="path222"
         style="fill:none;stroke:#231f20;stroke-width:2.9763701;stroke-linecap:butt;stroke-linejoin:miter;stroke-miterlimit:10;stroke-dasharray:none;stroke-opacity:1"
         d="m 1283.12,581.16 184.32,81 -205.56,65.879 21.24,-146.879" /><path
         id="path224"
         style="fill:none;stroke:#231f20;stroke-width:2.9763701;stroke-linecap:butt;stroke-linejoin:miter;stroke-miterlimit:10;stroke-dasharray:none;stroke-opacity:1"
         d="m 1548.44,606.719 64.44,85.32 -145.44,-29.879 81,-55.441" /><path
         id="path226"
         style="fill:none;stroke:#231f20;stroke-width:2.9763701;stroke-linecap:butt;stroke-linejoin:miter;stroke-miterlimit:10;stroke-dasharray:none;stroke-opacity:1"
         d="m 1467.44,662.16 -45,163.442 -160.56,-97.563 205.56,-65.879" /><path
         id="path228"
         style="fill:none;stroke:#231f20;stroke-width:2.9763701;stroke-linecap:butt;stroke-linejoin:miter;stroke-miterlimit:10;stroke-dasharray:none;stroke-opacity:1"
         d="m 1621.88,458.039 36,135 -115.2,-87.117 79.2,-47.883" /><path
         id="path230"
         style="fill:none;stroke:#231f20;stroke-width:2.9763701;stroke-linecap:butt;stroke-linejoin:miter;stroke-miterlimit:10;stroke-dasharray:none;stroke-opacity:1"
         d="m 1612.88,692.039 -50.76,114.121 -94.68,-144 145.44,29.879" /><path
         id="path232"
         style="fill:none;stroke:#231f20;stroke-width:2.9763701;stroke-linecap:butt;stroke-linejoin:miter;stroke-miterlimit:10;stroke-dasharray:none;stroke-opacity:1"
         d="m 1467.44,662.16 -14.76,-171 14.76,171 -184.32,-81 169.56,-90 95.76,115.559 -81,55.441" /><path
         id="path234"
         style="fill:none;stroke:#231f20;stroke-width:2.9763701;stroke-linecap:butt;stroke-linejoin:miter;stroke-miterlimit:10;stroke-dasharray:none;stroke-opacity:1"
         d="m 1548.44,606.719 -95.76,-115.559 90,14.762 5.76,100.797" /><path
         id="path236"
         style="fill:none;stroke:#231f20;stroke-width:2.9763701;stroke-linecap:butt;stroke-linejoin:miter;stroke-miterlimit:10;stroke-dasharray:none;stroke-opacity:1"
         d="m 1349,471.719 83.88,-103.68 19.8,123.121 L 1349,471.719" /><path
         id="path238"
         style="fill:none;stroke:#231f20;stroke-width:2.9763701;stroke-linecap:butt;stroke-linejoin:miter;stroke-miterlimit:10;stroke-dasharray:none;stroke-opacity:1"
         d="m 1452.68,491.16 -19.8,-123.121 105.12,45 -85.32,78.121" /><path
         id="path240"
         style="fill:none;stroke:#231f20;stroke-width:2.9763701;stroke-linecap:butt;stroke-linejoin:miter;stroke-miterlimit:10;stroke-dasharray:none;stroke-opacity:1"
         d="m 1542.68,505.922 -4.68,-92.883 83.88,45 -79.2,47.883" /><path
         id="path242"
         style="fill:none;stroke:#231f20;stroke-width:13.49289989;stroke-linecap:butt;stroke-linejoin:miter;stroke-miterlimit:10;stroke-dasharray:none;stroke-opacity:1"
         d="m 1422.44,825.602 -180,56.878 -128.88,54 -90,36 -130.681,-11.878 -193.32,-24.122" /><path
         id="path244"
         style="fill:none;stroke:#231f20;stroke-width:13.49289989;stroke-linecap:butt;stroke-linejoin:miter;stroke-miterlimit:10;stroke-dasharray:none;stroke-opacity:1"
         d="m 1062.44,246.719 126,34.203 124.56,42.117 119.88,45 105.12,45 83.88,45 75.24,45 59.76,45 36,45 19.8,45 v 45 l -25.56,38.883 -49.68,34.558 -73.44,25.559 -101.88,24.121 -139.68,19.442" /><path
         id="path246"
         style="fill:none;stroke:#231f20;stroke-width:13.49289989;stroke-linecap:butt;stroke-linejoin:miter;stroke-miterlimit:10;stroke-dasharray:none;stroke-opacity:1"
         d="m 699.559,213.602 54,9 H 809 l 67.68,4.32 86.761,6.117 98.999,13.68" /><path
         id="path248"
         style="fill:none;stroke:#231f20;stroke-width:13.49289989;stroke-linecap:butt;stroke-linejoin:miter;stroke-miterlimit:10;stroke-dasharray:none;stroke-opacity:1"
         d="M 699.559,936.48 509.121,840.719 359,756.48 249.559,676.922 183.68,595.922 159.559,516.719 183.68,441.48 269,370.922 393.559,306.48 548,252.48 699.559,213.602" /><path
         id="path250"
         style="fill:none;stroke:#231f20;stroke-width:13.49289989;stroke-linecap:butt;stroke-linejoin:miter;stroke-miterlimit:10;stroke-dasharray:none;stroke-opacity:1"
         d="M 183.68,441.48 179,438.602" /><path
         id="path252"
         style="fill:none;stroke:#231f20;stroke-width:13.49289989;stroke-linecap:butt;stroke-linejoin:miter;stroke-miterlimit:10;stroke-dasharray:none;stroke-opacity:1"
         d="M 159.559,516.719 H 149.121" /><path
         id="path254"
         style="fill:none;stroke:#231f20;stroke-width:13.49289989;stroke-linecap:butt;stroke-linejoin:miter;stroke-miterlimit:10;stroke-dasharray:none;stroke-opacity:1"
         d="m 269,370.922 -4.32,-9" /><path
         id="path256"
         style="fill:none;stroke:#231f20;stroke-width:13.49289989;stroke-linecap:butt;stroke-linejoin:miter;stroke-miterlimit:10;stroke-dasharray:none;stroke-opacity:1"
         d="m 183.68,595.922 -9,6.117" /><path
         id="path258"
         style="fill:none;stroke:#231f20;stroke-width:13.49289989;stroke-linecap:butt;stroke-linejoin:miter;stroke-miterlimit:10;stroke-dasharray:none;stroke-opacity:1"
         d="m 393.559,306.48 -6.118,-9" /><path
         id="path260"
         style="fill:none;stroke:#231f20;stroke-width:13.49289989;stroke-linecap:butt;stroke-linejoin:miter;stroke-miterlimit:10;stroke-dasharray:none;stroke-opacity:1"
         d="m 249.559,676.922 -6.118,6.117" /><path
         id="path262"
         style="fill:none;stroke:#231f20;stroke-width:13.49289989;stroke-linecap:butt;stroke-linejoin:miter;stroke-miterlimit:10;stroke-dasharray:none;stroke-opacity:1"
         d="m 753.559,222.602 v -9" /><path
         id="path264"
         style="fill:none;stroke:#231f20;stroke-width:13.49289989;stroke-linecap:butt;stroke-linejoin:miter;stroke-miterlimit:10;stroke-dasharray:none;stroke-opacity:1"
         d="M 548,252.48 V 242.039" /><path
         id="path266"
         style="fill:none;stroke:#231f20;stroke-width:13.49289989;stroke-linecap:butt;stroke-linejoin:miter;stroke-miterlimit:10;stroke-dasharray:none;stroke-opacity:1"
         d="m 359,756.48 -6.121,4.68" /><path
         id="path268"
         style="fill:none;stroke:#231f20;stroke-width:13.49289989;stroke-linecap:butt;stroke-linejoin:miter;stroke-miterlimit:10;stroke-dasharray:none;stroke-opacity:1"
         d="m 809,222.602 v -9" /><path
         id="path270"
         style="fill:none;stroke:#231f20;stroke-width:13.49289989;stroke-linecap:butt;stroke-linejoin:miter;stroke-miterlimit:10;stroke-dasharray:none;stroke-opacity:1"
         d="M 876.68,226.922 V 216.48" /><path
         id="path272"
         style="fill:none;stroke:#231f20;stroke-width:13.49289989;stroke-linecap:butt;stroke-linejoin:miter;stroke-miterlimit:10;stroke-dasharray:none;stroke-opacity:1"
         d="M 509.121,840.719 V 851.16" /><path
         id="path274"
         style="fill:none;stroke:#231f20;stroke-width:13.49289989;stroke-linecap:butt;stroke-linejoin:miter;stroke-miterlimit:10;stroke-dasharray:none;stroke-opacity:1"
         d="M 963.441,233.039 V 222.602" /><path
         id="path276"
         style="fill:none;stroke:#231f20;stroke-width:13.49289989;stroke-linecap:butt;stroke-linejoin:miter;stroke-miterlimit:10;stroke-dasharray:none;stroke-opacity:1"
         d="m 699.559,936.48 v 4.68" /><path
         id="path278"
         style="fill:none;stroke:#231f20;stroke-width:13.49289989;stroke-linecap:butt;stroke-linejoin:miter;stroke-miterlimit:10;stroke-dasharray:none;stroke-opacity:1"
         d="M 1062.44,246.719 V 235.922" /><path
         id="path280"
         style="fill:none;stroke:#231f20;stroke-width:13.49289989;stroke-linecap:butt;stroke-linejoin:miter;stroke-miterlimit:10;stroke-dasharray:none;stroke-opacity:1"
         d="m 1023.56,972.48 v 9" /><path
         id="path282"
         style="fill:none;stroke:#231f20;stroke-width:13.49289989;stroke-linecap:butt;stroke-linejoin:miter;stroke-miterlimit:10;stroke-dasharray:none;stroke-opacity:1"
         d="M 892.879,960.602 V 972.48" /><path
         id="path284"
         style="fill:none;stroke:#231f20;stroke-width:13.49289989;stroke-linecap:butt;stroke-linejoin:miter;stroke-miterlimit:10;stroke-dasharray:none;stroke-opacity:1"
         d="m 1188.44,280.922 v -9" /><path
         id="path286"
         style="fill:none;stroke:#231f20;stroke-width:13.49289989;stroke-linecap:butt;stroke-linejoin:miter;stroke-miterlimit:10;stroke-dasharray:none;stroke-opacity:1"
         d="m 1113.56,936.48 4.32,10.442" /><path
         id="path288"
         style="fill:none;stroke:#231f20;stroke-width:13.49289989;stroke-linecap:butt;stroke-linejoin:miter;stroke-miterlimit:10;stroke-dasharray:none;stroke-opacity:1"
         d="m 1313,323.039 4.68,-10.437" /><path
         id="path290"
         style="fill:none;stroke:#231f20;stroke-width:13.49289989;stroke-linecap:butt;stroke-linejoin:miter;stroke-miterlimit:10;stroke-dasharray:none;stroke-opacity:1"
         d="m 1242.44,882.48 v 9" /><path
         id="path292"
         style="fill:none;stroke:#231f20;stroke-width:13.49289989;stroke-linecap:butt;stroke-linejoin:miter;stroke-miterlimit:10;stroke-dasharray:none;stroke-opacity:1"
         d="M 1432.88,368.039 V 357.602" /><path
         id="path294"
         style="fill:none;stroke:#231f20;stroke-width:13.49289989;stroke-linecap:butt;stroke-linejoin:miter;stroke-miterlimit:10;stroke-dasharray:none;stroke-opacity:1"
         d="M 1422.44,825.602 V 837.48" /><path
         id="path296"
         style="fill:none;stroke:#231f20;stroke-width:13.49289989;stroke-linecap:butt;stroke-linejoin:miter;stroke-miterlimit:10;stroke-dasharray:none;stroke-opacity:1"
         d="M 1538,413.039 V 402.602" /><path
         id="path298"
         style="fill:none;stroke:#231f20;stroke-width:13.49289989;stroke-linecap:butt;stroke-linejoin:miter;stroke-miterlimit:10;stroke-dasharray:none;stroke-opacity:1"
         d="m 1562.12,806.16 v 10.442" /><path
         id="path300"
         style="fill:none;stroke:#231f20;stroke-width:13.49289989;stroke-linecap:butt;stroke-linejoin:miter;stroke-miterlimit:10;stroke-dasharray:none;stroke-opacity:1"
         d="M 1621.88,458.039 1628,447.602" /><path
         id="path302"
         style="fill:none;stroke:#231f20;stroke-width:13.49289989;stroke-linecap:butt;stroke-linejoin:miter;stroke-miterlimit:10;stroke-dasharray:none;stroke-opacity:1"
         d="M 1664,782.039 V 792.48" /><path
         id="path304"
         style="fill:none;stroke:#231f20;stroke-width:13.49289989;stroke-linecap:butt;stroke-linejoin:miter;stroke-miterlimit:10;stroke-dasharray:none;stroke-opacity:1"
         d="m 1697.12,503.039 5.76,-11.879" /><path
         id="path306"
         style="fill:none;stroke:#231f20;stroke-width:13.49289989;stroke-linecap:butt;stroke-linejoin:miter;stroke-miterlimit:10;stroke-dasharray:none;stroke-opacity:1"
         d="m 1737.44,756.48 v 4.68" /><path
         id="path308"
         style="fill:none;stroke:#231f20;stroke-width:13.49289989;stroke-linecap:butt;stroke-linejoin:miter;stroke-miterlimit:10;stroke-dasharray:none;stroke-opacity:1"
         d="m 1756.88,548.039 4.68,-6.117" /><path
         id="path310"
         style="fill:none;stroke:#231f20;stroke-width:13.49289989;stroke-linecap:butt;stroke-linejoin:miter;stroke-miterlimit:10;stroke-dasharray:none;stroke-opacity:1"
         d="m 1787.12,721.922 5.76,6.117" /><path
         id="path312"
         style="fill:none;stroke:#231f20;stroke-width:13.49289989;stroke-linecap:butt;stroke-linejoin:miter;stroke-miterlimit:10;stroke-dasharray:none;stroke-opacity:1"
         d="m 1792.88,593.039 9,-6.117" /><path
         id="path314"
         style="fill:none;stroke:#231f20;stroke-width:13.49289989;stroke-linecap:butt;stroke-linejoin:miter;stroke-miterlimit:10;stroke-dasharray:none;stroke-opacity:1"
         d="m 1812.68,683.039 h 10.44" /><path
         id="path316"
         style="fill:none;stroke:#231f20;stroke-width:13.49289989;stroke-linecap:butt;stroke-linejoin:miter;stroke-miterlimit:10;stroke-dasharray:none;stroke-opacity:1"
         d="m 1812.68,638.039 h 10.44" /><g
         transform="scale(10)"
         id="g318"><text
           id="text322"
           style="font-variant:normal;font-weight:normal;font-size:14.00399971px;font-family:Arial;-inkscape-font-specification:Arial;writing-mode:lr-tb;fill:#231f20;fill-opacity:1;fill-rule:nonzero;stroke:none"
           transform="matrix(0.994859,0,0,-1,-0.387891,36.444)"><tspan
             id="tspan320"
             y="0"
             x="0">G</tspan></text>
<text
           id="text332"
           style="font-variant:normal;font-weight:normal;font-size:14.00399971px;font-family:Arial;-inkscape-font-specification:Arial;writing-mode:lr-tb;fill:#231f20;fill-opacity:1;fill-rule:nonzero;stroke:none"
           transform="matrix(0.994859,0,0,-1,10.448014,36.444)"><tspan
             id="tspan324"
             y="0"
             x="0">1</tspan><tspan
             id="tspan326"
             y="29.9879"
             x="64.483498 75.375435">G2</tspan><tspan
             id="tspan328"
             y="-27"
             x="173.65649 184.54843">G3</tspan><tspan
             id="tspan330"
             y="-67.823799"
             x="81.9608 92.85273">G4</tspan></text>
</g><path
         id="path334"
         style="fill:#231f20;fill-opacity:1;fill-rule:evenodd;stroke:none"
         d="m 703.879,956.641 c 13.121,0 23.762,-9.352 23.762,-20.879 0,-11.532 -10.641,-20.883 -23.762,-20.883 -13.117,0 -23.758,9.351 -23.758,20.883 0,11.527 10.641,20.879 23.758,20.879" /><path
         id="path336"
         style="fill:none;stroke:#231f20;stroke-width:0.36000001;stroke-linecap:butt;stroke-linejoin:miter;stroke-miterlimit:10;stroke-dasharray:none;stroke-opacity:1"
         d="m 703.879,956.641 c 13.121,0 23.762,-9.352 23.762,-20.879 0,-11.532 -10.641,-20.883 -23.762,-20.883 -13.117,0 -23.758,9.351 -23.758,20.883 0,11.527 10.641,20.879 23.758,20.879" /><path
         id="path338"
         style="fill:#231f20;fill-opacity:1;fill-rule:evenodd;stroke:none"
         d="m 756.078,243.84 c 13.121,0 23.762,-9.352 23.762,-20.879 0,-11.531 -10.641,-20.883 -23.762,-20.883 -13.117,0 -23.758,9.352 -23.758,20.883 0,11.527 10.641,20.879 23.758,20.879" /><path
         id="path340"
         style="fill:none;stroke:#231f20;stroke-width:0.36000001;stroke-linecap:butt;stroke-linejoin:miter;stroke-miterlimit:10;stroke-dasharray:none;stroke-opacity:1"
         d="m 756.078,243.84 c 13.121,0 23.762,-9.352 23.762,-20.879 0,-11.531 -10.641,-20.883 -23.762,-20.883 -13.117,0 -23.758,9.352 -23.758,20.883 0,11.527 10.641,20.879 23.758,20.879" /><path
         id="path342"
         style="fill:#231f20;fill-opacity:1;fill-rule:evenodd;stroke:none"
         d="m 1417.76,851.879 c 13.12,0 23.76,-9.352 23.76,-20.879 0,-11.527 -10.64,-20.879 -23.76,-20.879 -13.12,0 -23.76,9.352 -23.76,20.879 0,11.527 10.64,20.879 23.76,20.879" /><path
         id="path344"
         style="fill:none;stroke:#231f20;stroke-width:0.36000001;stroke-linecap:butt;stroke-linejoin:miter;stroke-miterlimit:10;stroke-dasharray:none;stroke-opacity:1"
         d="m 1417.76,851.879 c 13.12,0 23.76,-9.352 23.76,-20.879 0,-11.527 -10.64,-20.879 -23.76,-20.879 -13.12,0 -23.76,9.352 -23.76,20.879 0,11.527 10.64,20.879 23.76,20.879" /><path
         id="path346"
         style="fill:#231f20;fill-opacity:1;fill-rule:evenodd;stroke:none"
         d="m 1058.12,269.398 c 13.12,0 23.76,-9.351 23.76,-20.878 0,-11.528 -10.64,-20.879 -23.76,-20.879 -13.12,0 -23.76,9.351 -23.76,20.879 0,11.527 10.64,20.878 23.76,20.878" /><path
         id="path348"
         style="fill:none;stroke:#231f20;stroke-width:0.36000001;stroke-linecap:butt;stroke-linejoin:miter;stroke-miterlimit:10;stroke-dasharray:none;stroke-opacity:1"
         d="m 1058.12,269.398 c 13.12,0 23.76,-9.351 23.76,-20.878 0,-11.528 -10.64,-20.879 -23.76,-20.879 -13.12,0 -23.76,9.351 -23.76,20.879 0,11.527 10.64,20.878 23.76,20.878" /></g></g></svg>