<?xml version="1.0" encoding="UTF-8" standalone="no"?>
<svg
   xmlns:dc="http://purl.org/dc/elements/1.1/"
   xmlns:cc="http://creativecommons.org/ns#"
   xmlns:rdf="http://www.w3.org/1999/02/22-rdf-syntax-ns#"
   xmlns:svg="http://www.w3.org/2000/svg"
   xmlns="http://www.w3.org/2000/svg"
   viewBox="0 0 1228 629.33331"
   height="629.33331"
   width="1228"
   xml:space="preserve"
   id="svg2"
   version="1.1"><metadata
     id="metadata8"><rdf:RDF><cc:Work
         rdf:about=""><dc:format>image/svg+xml</dc:format><dc:type
           rdf:resource="http://purl.org/dc/dcmitype/StillImage" /></cc:Work></rdf:RDF></metadata><defs
     id="defs6"><clipPath
       id="clipPath38"
       clipPathUnits="userSpaceOnUse"><path
         style="clip-rule:evenodd"
         id="path36"
         d="M 0,0 H 9210 V 4720 H 0 Z m 3796,2480 h 264 v 108 h -264 v 0 l 216,-54 z" /></clipPath><clipPath
       id="clipPath52"
       clipPathUnits="userSpaceOnUse"><path
         style="clip-rule:evenodd"
         id="path50"
         d="M 0,0 H 9210 V 4720 H 0 Z m 4895.2,1055.6 165,52.2 -21.6,68.4 -165,-52.2 v 0 l 148.2,9 z" /></clipPath><clipPath
       id="clipPath64"
       clipPathUnits="userSpaceOnUse"><path
         style="clip-rule:evenodd"
         id="path62"
         d="M 0,0 H 9210 V 4720 H 0 Z m 4963,3650.6 170.4,-28.2 12,70.8 -170.4,28.2 v 0 l 136.2,-59.4 z" /></clipPath><clipPath
       id="clipPath76"
       clipPathUnits="userSpaceOnUse"><path
         style="clip-rule:evenodd"
         id="path74"
         d="M 0,0 H 9210 V 4720 H 0 Z m 6902.2,2417.6 -163.2,-56.4 23.4,-67.8 163.2,56.4 v 0 L 6778,2336.6 Z" /></clipPath></defs><g
     transform="matrix(1.3333333,0,0,-1.3333333,0,629.33333)"
     id="g10"><g
       transform="scale(0.1)"
       id="g12"><g
         transform="scale(10)"
         id="g14"><text
           id="text18"
           style="font-variant:normal;font-weight:normal;font-size:28.79999924px;font-family:'Times New Roman';-inkscape-font-specification:Times-Roman;writing-mode:lr-tb;fill:#000000;fill-opacity:1;fill-rule:nonzero;stroke:none"
           transform="matrix(1,0,0,-1,747.1,302.9)"><tspan
             id="tspan16"
             y="0"
             x="0 25.603201 33.6096 48.009602 62.409599 70.416 83.203201 90.403198 101.6064 116.0064 125.5968 135.18719 147.9744 160.7616">Middle surface</tspan></text>
</g><path
         id="path20"
         style="fill:none;stroke:#000000;stroke-width:4.5;stroke-linecap:butt;stroke-linejoin:miter;stroke-miterlimit:10;stroke-dasharray:none;stroke-opacity:1"
         d="M 6571,3254 V 734" /><path
         id="path22"
         style="fill:none;stroke:#000000;stroke-width:4.5;stroke-linecap:butt;stroke-linejoin:miter;stroke-miterlimit:10;stroke-dasharray:none;stroke-opacity:1"
         d="M 4321,3254 V 734" /><path
         id="path24"
         style="fill:none;stroke:#000000;stroke-width:4.5;stroke-linecap:butt;stroke-linejoin:miter;stroke-miterlimit:10;stroke-dasharray:none;stroke-opacity:1"
         d="M 6976,3839 V 1319 Z" /><path
         id="path26"
         style="fill:none;stroke:#000000;stroke-width:4.5;stroke-linecap:butt;stroke-linejoin:miter;stroke-miterlimit:10;stroke-dasharray:36;stroke-dashoffset:0;stroke-opacity:1"
         d="M 5491,4694 V 2129" /><path
         id="path28"
         style="fill:none;stroke:#000000;stroke-width:4.5;stroke-linecap:butt;stroke-linejoin:miter;stroke-miterlimit:10;stroke-dasharray:36;stroke-dashoffset:0;stroke-opacity:1"
         d="M 4771,4289 V 1769" /><path
         id="path30"
         style="fill:none;stroke:#000000;stroke-width:4.5;stroke-linecap:butt;stroke-linejoin:miter;stroke-miterlimit:10;stroke-dasharray:36;stroke-dashoffset:0;stroke-opacity:1"
         d="M 6211,4559 V 2039" /><g
         id="g32"><g
           clip-path="url(#clipPath38)"
           id="g34"><path
             id="path40"
             style="fill:none;stroke:#000000;stroke-width:18;stroke-linecap:butt;stroke-linejoin:miter;stroke-miterlimit:10;stroke-dasharray:none;stroke-opacity:1"
             d="M 2971,2534 H 4051" /></g></g><path
         id="path42"
         style="fill:#000000;fill-opacity:1;fill-rule:evenodd;stroke:none"
         d="m 3796,2480 216,54 -216,54 z" /><path
         id="path44"
         style="fill:none;stroke:#000000;stroke-width:18;stroke-linecap:butt;stroke-linejoin:miter;stroke-miterlimit:10;stroke-dasharray:none;stroke-opacity:1"
         d="m 3796,2480 216,54 -216,54 z" /><g
         id="g46"><g
           clip-path="url(#clipPath52)"
           id="g48"><path
             id="path54"
             style="fill:none;stroke:#000000;stroke-width:9;stroke-linecap:butt;stroke-linejoin:miter;stroke-miterlimit:10;stroke-dasharray:none;stroke-opacity:1"
             d="m 3331,599 1710,540" /></g></g><path
         id="path56"
         style="fill:none;stroke:#000000;stroke-width:9;stroke-linecap:butt;stroke-linejoin:miter;stroke-miterlimit:10;stroke-dasharray:none;stroke-opacity:1"
         d="m 4895.2,1055.6 126.6,77.4 -148.2,-9" /><g
         id="g58"><g
           clip-path="url(#clipPath64)"
           id="g60"><path
             id="path66"
             style="fill:none;stroke:#000000;stroke-width:9;stroke-linecap:butt;stroke-linejoin:miter;stroke-miterlimit:10;stroke-dasharray:none;stroke-opacity:1"
             d="M 2701,4064 5131,3659" /></g></g><path
         id="path68"
         style="fill:none;stroke:#000000;stroke-width:9;stroke-linecap:butt;stroke-linejoin:miter;stroke-miterlimit:10;stroke-dasharray:none;stroke-opacity:1"
         d="m 4963,3650.6 148.2,11.4 -136.2,59.4" /><g
         id="g70"><g
           clip-path="url(#clipPath76)"
           id="g72"><path
             id="path78"
             style="fill:none;stroke:#000000;stroke-width:9;stroke-linecap:butt;stroke-linejoin:miter;stroke-miterlimit:10;stroke-dasharray:none;stroke-opacity:1"
             d="m 8334.4,2870 -1575,-540" /></g></g><path
         id="path80"
         style="fill:none;stroke:#000000;stroke-width:9;stroke-linecap:butt;stroke-linejoin:miter;stroke-miterlimit:10;stroke-dasharray:none;stroke-opacity:1"
         d="m 6902.2,2417.6 -124.2,-81 147.6,13.2" /><path
         id="path82"
         style="fill:none;stroke:#000000;stroke-width:4.5;stroke-linecap:butt;stroke-linejoin:bevel;stroke-miterlimit:10;stroke-dasharray:none;stroke-opacity:1"
         d="m 4411,3974 0.6,0.6 0.6,0.6 1.8,1.8 3,2.4 3.6,4.2 5.4,5.4 7.2,6.6 8.4,8.4 10.2,9.6 12,11.4 14.4,13.8 15.6,14.4 18,16.8 19.2,18 21,19.2 22.8,21 24.6,21.6 25.8,22.8 27,24 28.8,24.6 29.4,24.6 30.6,25.8 31.2,25.2 32.4,25.8 33,25.8 34.2,25.8 34.2,25.2 34.8,24.6 36,24 36,24 36.6,23.4 37.2,22.2 38.4,21.6 38.4,20.4 39.6,19.8 40.2,18.6 41.4,17.4 42,16.2 43.2,15 43.8,13.2 45,12 46.2,10.2 47.4,8.4 48,6.6 49.2,4.2 49.8,1.8 h 50.4 l 51,-3 50.4,-6 45,-7.8 43.8,-9 43.2,-11.4 42,-12.6 40.8,-13.8 40.2,-14.4 38.4,-15.6 36.6,-15.6 36,-15.6 34.2,-16.2 33,-16.2 31.8,-16.2 30,-16.2 29.4,-15.6 27.6,-15.6 27,-15 25.8,-15 25.2,-14.4 24,-14.4 22.8,-13.8 22.2,-13.8 22.2,-13.2 21,-13.2 20.4,-13.2 19.8,-13.2 19.8,-12.6 19.2,-13.2 18.6,-13.2 18.6,-13.2 18,-13.8 18,-13.8 17.4,-14.4 16.8,-14.4 17.4,-15.6 16.8,-15.6 16.2,-16.8 16.2,-17.4 15.6,-18.6 15,-19.2 15,-20.4 13.8,-21.6 13.2,-22.8 12.6,-24 11.4,-25.2 10.8,-27 9,-28.2 7.8,-29.4 6,-30.6 3.6,-32.4 1.8,-33.6 -0.6,-34.8 -3.6,-36 -6.6,-36.6 -9.6,-37.8 -13.2,-38.4 -17.4,-38.4 -19.2,-34.8 -21.6,-34.8 -24.6,-34.2 -27,-33.6 -28.8,-33 -30.6,-32.4 -31.2,-31.8 -32.4,-30.6 -33.6,-30 -33.6,-28.8 -34.2,-28.2 -34.2,-27 -34.8,-25.8 -34.2,-25.2 -34.2,-24 -33.6,-23.4 -33.6,-22.2 -33.6,-21.6 -33,-21 -32.4,-20.4 -31.8,-19.2 -31.8,-19.2 -31.8,-18 -31.2,-18 -30.6,-16.8 -30.6,-16.8 -30.6,-16.8 -30.6,-15.6 -30,-16.2 -30.6,-15.6 -30,-15 -30.6,-15 -30.6,-15 -30.6,-15 -31.2,-14.4 -31.2,-14.4 -32.4,-14.4 -32.4,-15 -33,-14.4 -33.6,-13.8 -34.2,-14.4 -35.4,-14.4 -36,-13.8 -36.6,-14.4 -37.8,-13.8 -39,-13.8 -39,-13.2 -40.8,-13.2 -41.4,-12.6 -42,-12.6 -43.2,-11.4 -43.8,-11.4 -44.4,-10.2 -45,-9 -45.6,-8.4 -45.6,-7.2 -45.6,-5.4 -45.6,-3.6 -45,-2.4 h -43.8 l -43.2,1.8 -41.4,4.8 -49.2,9 -45.6,13.2 -42.6,16.2 -39,19.2 -36,22.2 -32.4,24.6 -29.4,27 -27,28.8 -23.4,31.2 -21,32.4 -18.6,34.2 -16.2,36 -13.8,36.6 -12,38.4 -9.6,39 -8.4,40.8 -6.6,41.4 -5.4,42 -3.6,43.2 -2.4,43.8 -1.2,44.4 v 44.4 l 0.6,45 1.8,45.6 2.4,45 3,45 3.6,45 4.2,43.8 4.2,43.2 5.4,42 4.8,40.8 5.4,39 4.8,37.2 5.4,35.4 4.8,33 4.8,30.6 4.8,27.6 4.2,25.2 3.6,22.8 3.6,19.2 3,16.8 2.4,13.8 1.8,11.4 1.8,8.4 1.2,6.6 0.6,4.8 0.6,2.4 0.6,1.8 z" /><path
         id="path84"
         style="fill:none;stroke:#000000;stroke-width:4.5;stroke-linecap:butt;stroke-linejoin:bevel;stroke-miterlimit:10;stroke-dasharray:none;stroke-opacity:1"
         d="m 4411,1454 0.6,0.6 0.6,0.6 1.8,1.8 3,2.4 3.6,4.2 5.4,5.4 7.2,6.6 8.4,8.4 10.2,9.6 12,11.4 14.4,13.8 15.6,14.4 18,16.8 19.2,18 21,19.2 22.8,21 24.6,21.6 25.8,22.8 27,24 28.8,24.6 29.4,24.6 30.6,25.8 31.2,25.2 32.4,25.8 33,25.8 34.2,25.8 34.2,25.2 34.8,24.6 36,24 36,24 36.6,23.4 37.2,22.2 38.4,21.6 38.4,20.4 39.6,19.8 40.2,18.6 41.4,17.4 42,16.2 43.2,15 43.8,13.2 45,12 46.2,10.2 47.4,8.4 48,6.6 49.2,4.2 49.8,1.8 h 50.4 l 51,-3 50.4,-6 45,-7.8 43.8,-9 43.2,-11.4 42,-12.6 40.8,-13.8 40.2,-14.4 38.4,-15.6 36.6,-15.6 36,-15.6 34.2,-16.2 33,-16.2 31.8,-16.2 30,-16.2 29.4,-15.6 27.6,-15.6 27,-15 25.8,-15 25.2,-14.4 24,-14.4 22.8,-13.8 22.2,-13.8 22.2,-13.2 21,-13.2 20.4,-13.2 19.8,-13.2 19.8,-12.6 19.2,-13.2 18.6,-13.2 18.6,-13.2 18,-13.8 18,-13.8 17.4,-14.4 16.8,-14.4 17.4,-15.6 16.8,-15.6 16.2,-16.8 16.2,-17.4 15.6,-18.6 15,-19.2 15,-20.4 13.8,-21.6 13.2,-22.8 12.6,-24 11.4,-25.2 10.8,-27 9,-28.2 7.8,-29.4 6,-30.6 3.6,-32.4 1.8,-33.6 -0.6,-34.8 -3.6,-36 -6.6,-36.6 -9.6,-37.8 -13.2,-38.4 -17.4,-38.4 -19.2,-34.8 -21.6,-34.8 -24.6,-34.201 -27,-33.597 -28.8,-33 -30.6,-32.403 -31.2,-31.797 -32.4,-30.601 -33.6,-30 -33.6,-28.801 -34.2,-28.199 -34.2,-27 -34.8,-25.801 -34.2,-25.199 -34.2,-24 -33.6,-23.399 -33.6,-22.203 -33.6,-21.597 -33,-21 -32.4,-20.403 -31.8,-19.199 -31.8,-19.199 -31.8,-18 -31.2,-18 -30.6,-16.801 -30.6,-16.801 -30.6,-16.797 -30.6,-15.601 -30,-16.199 L 6001,359 l -30,-15 -30.6,-15 -30.6,-15 -30.6,-15 -31.2,-14.398 -31.2,-14.403 -32.4,-14.398 -32.4,-15 -33,-14.399 -33.6,-13.8 -34.2,-14.403 -35.4,-14.398 -36,-13.801 -36.6,-14.398 -37.8,-13.801 -39,-13.801 -39,-13.199 -40.8,-13.199 L 5345.2,89 5303.2,76.4023 5260,65 l -43.8,-11.3984 -44.4,-10.1993 -45,-9 -45.6,-8.4023 -45.6,-7.1992 -45.6,-5.3985 -45.6,-3.60152 -45,-2.39844 h -43.8 L 4812.4,9.19922 4771,14 l -49.2,9 -45.6,13.1992 -42.6,16.2031 -39,19.1993 -36,22.1992 -32.4,24.6012 -29.4,27 -27,28.797 -23.4,31.203 -21,32.399 -18.6,34.199 -16.2,36 -13.8,36.602 -12,38.398 -9.6,39 -8.4,40.801 -6.6,41.398 -5.4,42 -3.6,43.203 -2.4,43.797 -1.2,44.403 V 722 l 0.6,45 1.8,45.602 2.4,45 3,45 3.6,45 4.2,43.8 4.2,43.198 5.4,42 4.8,40.8 5.4,39 4.8,37.2 5.4,35.4 4.8,33 4.8,30.6 4.8,27.6 4.2,25.2 3.6,22.8 3.6,19.2 3,16.8 2.4,13.8 1.8,11.4 1.8,8.4 1.2,6.6 0.6,4.8 0.6,2.4 0.6,1.8 z" /><path
         id="path86"
         style="fill:none;stroke:#000000;stroke-width:4.5;stroke-linecap:butt;stroke-linejoin:bevel;stroke-miterlimit:10;stroke-dasharray:none;stroke-opacity:1"
         d="m 91,2579 0.6016,0.6 0.5976,0.6 1.8008,1.8 3,2.4 3.602,4.2 5.398,5.4 7.199,6.6 8.403,8.4 10.199,9.6 12,11.4 14.398,13.8 15.602,14.4 18,16.8 19.199,18 21,19.2 22.801,21 24.597,21.6 25.801,22.8 27,24 28.801,24.6 29.398,24.6 30.602,25.8 31.199,25.2 32.403,25.8 33,25.8 34.199,25.8 34.199,25.2 34.801,24.6 36,24 36,24 36.597,23.4 37.204,22.2 38.398,21.6 38.398,20.4 39.602,19.8 40.199,18.6 41.403,17.4 41.998,16.2 43.2,15 43.8,13.2 45,12 46.2,10.2 47.4,8.4 48,6.6 49.2,4.2 49.8,1.8 h 50.4 l 51,-3 50.4,-6 45,-7.8 43.8,-9 43.2,-11.4 42,-12.6 40.8,-13.8 40.2,-14.4 38.4,-15.6 36.6,-15.6 36,-15.6 34.2,-16.2 33,-16.2 31.8,-16.2 30,-16.2 29.4,-15.6 27.6,-15.6 27,-15 25.8,-15 25.2,-14.4 24,-14.4 22.8,-13.8 22.2,-13.8 22.2,-13.2 21,-13.2 20.4,-13.2 19.8,-13.2 19.8,-12.6 19.2,-13.2 18.6,-13.2 18.6,-13.2 18,-13.8 18,-13.8 17.4,-14.4 16.8,-14.4 17.4,-15.6 16.8,-15.6 16.2,-16.8 16.2,-17.4 15.6,-18.6 15,-19.2 15,-20.4 13.8,-21.6 13.2,-22.8 12.6,-24 11.4,-25.2 10.8,-27 9,-28.2 7.8,-29.4 6,-30.6 3.6,-32.4 1.8,-33.6 -0.6,-34.8 -3.6,-36 -6.6,-36.6 -9.6,-37.8 -13.2,-38.4 -17.4,-38.4 -19.2,-34.8 -21.6,-34.8 -24.6,-34.2 -27,-33.6 -28.8,-33 -30.6,-32.4 -31.2,-31.8 -32.4,-30.6 -33.6,-30 -33.6,-28.8 -34.2,-28.2 -34.2,-27 -34.8,-25.8 -34.2,-25.2 -34.2,-24 -33.6,-23.4 -33.6,-22.2 -33.6,-21.6 -33,-21 -32.4,-20.4 -31.8,-19.2 -31.8,-19.2 -31.8,-18 -31.2,-18 -30.6,-16.8 -30.6,-16.8 -30.6,-16.8 -30.6,-15.6 -30,-16.2 -30.6,-15.6 -30,-15 -30.6,-15 -30.6,-15 -30.6,-15 -31.2,-14.4 -31.2,-14.4 -32.4,-14.4 -32.4,-15 -33,-14.4 -33.6,-13.8 -34.2,-14.4 -35.4,-14.4 -36,-13.8 -36.6,-14.4 -37.8,-13.8 -39,-13.8 -39,-13.2 -40.8,-13.2 -41.4,-12.6 -42.001,-12.6 L 940,1190 l -43.801,-11.4 -44.398,-10.2 -45,-9 -45.602,-8.4 -45.597,-7.2 -45.602,-5.4 -45.602,-3.6 -45,-2.4 h -43.796 l -43.204,1.8 -41.398,4.8 -49.199,9 -45.602,13.2 -42.597,16.2 -39,19.2 -36,22.2 -32.403,24.6 -29.398,27 -27,28.8 -23.403,31.2 -21,32.4 -18.5972,34.2 -16.1992,36 -13.8008,36.6 -12,38.4 -9.6016,39 -8.3984,40.8 -6.6016,41.4 -5.3984,42 -3.6016,43.2 -2.39842,43.8 -1.19922,44.4 v 44.4 l 0.59766,45 1.80078,45.6 2.3984,45 3,45 3.6016,45 4.1992,43.8 4.1992,43.2 5.4024,42 4.8008,40.8 5.3984,39 4.8008,37.2 5.3984,35.4 4.8008,33 4.8008,30.6 4.8008,27.6 4.1992,25.2 3.5976,22.8 3.6016,19.2 3,16.8 2.3984,13.8 1.8008,11.4 1.8008,8.4 1.1992,6.6 0.6016,4.8 0.5976,2.4 0.6016,1.8 z" /><g
         transform="scale(10)"
         id="g88"><text
           id="text94"
           style="font-variant:normal;font-weight:normal;font-size:28.79999924px;font-family:'Times New Roman';-inkscape-font-specification:Times-Roman;writing-mode:lr-tb;fill:#000000;fill-opacity:1;fill-rule:nonzero;stroke:none"
           transform="matrix(1,0,0,-1,247.6,86.9)"><tspan
             id="tspan90"
             y="0"
             x="0 17.5968 31.996799 52.790401 65.577599 75.167999 82.367996 93.571198 107.9712 117.5616 127.152 139.93919 152.72639">Lower surface</tspan><tspan
             id="tspan92"
             y="-328.5"
             x="-49.5 -35.099998 -20.700001 -6.3000002 6.4871998 16.0776 23.277599 34.480801 48.880798 58.471199 68.0616 80.848801 93.636002">upper surface</tspan></text>
</g><path
         id="path96"
         style="fill:none;stroke:#000000;stroke-width:4.5;stroke-linecap:butt;stroke-linejoin:miter;stroke-miterlimit:10;stroke-dasharray:none;stroke-opacity:1"
         d="M 5131,2534 V 14" /></g></g></svg>