<?xml version="1.0" encoding="UTF-8" standalone="no"?>
<svg
   xmlns:dc="http://purl.org/dc/elements/1.1/"
   xmlns:cc="http://creativecommons.org/ns#"
   xmlns:rdf="http://www.w3.org/1999/02/22-rdf-syntax-ns#"
   xmlns:svg="http://www.w3.org/2000/svg"
   xmlns="http://www.w3.org/2000/svg"
   viewBox="0 0 1056 816"
   height="816"
   width="1056"
   xml:space="preserve"
   id="svg2"
   version="1.1"><metadata
     id="metadata8"><rdf:RDF><cc:Work
         rdf:about=""><dc:format>image/svg+xml</dc:format><dc:type
           rdf:resource="http://purl.org/dc/dcmitype/StillImage" /></cc:Work></rdf:RDF></metadata><defs
     id="defs6"><clipPath
       id="clipPath14"
       clipPathUnits="userSpaceOnUse"><path
         id="path12"
         d="M 0,0 H 612 V 792 H 0 Z" /></clipPath></defs><g
     clip-path="url(#clipPath14)"
     transform="matrix(0,1.3333333,1.3333333,0,0,0)"
     id="g10"><g
       transform="scale(0.1)"
       id="g16"><path
         id="path18"
         style="fill:none;stroke:#000000;stroke-width:10;stroke-linecap:butt;stroke-linejoin:miter;stroke-miterlimit:10;stroke-dasharray:none;stroke-opacity:1"
         d="m 5260,1074 v 63 m 0,6325 v -63" /><g
         transform="scale(10)"
         id="g20"><text
           id="text24"
           style="font-variant:normal;font-weight:normal;font-size:14px;font-family:Helvetica;-inkscape-font-specification:Helvetica;writing-mode:lr-tb;fill:#000000;fill-opacity:1;fill-rule:nonzero;stroke:none"
           transform="matrix(0,1,1,0,530.6,91.2162)"><tspan
             id="tspan22"
             y="0"
             x="0">0</tspan></text>
</g><path
         id="path26"
         style="fill:none;stroke:#000000;stroke-width:10;stroke-linecap:butt;stroke-linejoin:miter;stroke-miterlimit:10;stroke-dasharray:none;stroke-opacity:1"
         d="m 5260,1074 v 63 m 0,6325 v -63 M 4112,1074 v 63 m 0,6325 v -63" /><g
         transform="scale(10)"
         id="g28"><text
           id="text32"
           style="font-variant:normal;font-weight:normal;font-size:14px;font-family:Helvetica;-inkscape-font-specification:Helvetica;writing-mode:lr-tb;fill:#000000;fill-opacity:1;fill-rule:nonzero;stroke:none"
           transform="matrix(0,1,1,0,415.8,79.5404)"><tspan
             id="tspan30"
             y="0"
             x="0 7.7839999 11.676">0.5</tspan></text>
</g><path
         id="path34"
         style="fill:none;stroke:#000000;stroke-width:10;stroke-linecap:butt;stroke-linejoin:miter;stroke-miterlimit:10;stroke-dasharray:none;stroke-opacity:1"
         d="m 5260,1074 v 63 m 0,6325 v -63 M 4112,1074 v 63 m 0,6325 v -63 M 2964,1074 v 63 m 0,6325 v -63" /><g
         transform="scale(10)"
         id="g36"><text
           id="text40"
           style="font-variant:normal;font-weight:normal;font-size:14px;font-family:Helvetica;-inkscape-font-specification:Helvetica;writing-mode:lr-tb;fill:#000000;fill-opacity:1;fill-rule:nonzero;stroke:none"
           transform="matrix(0,1,1,0,301,91.2162)"><tspan
             id="tspan38"
             y="0"
             x="0">1</tspan></text>
</g><path
         id="path42"
         style="fill:none;stroke:#000000;stroke-width:10;stroke-linecap:butt;stroke-linejoin:miter;stroke-miterlimit:10;stroke-dasharray:none;stroke-opacity:1"
         d="m 5260,1074 v 63 m 0,6325 v -63 M 4112,1074 v 63 m 0,6325 v -63 M 2964,1074 v 63 m 0,6325 v -63 M 1816,1074 v 63 m 0,6325 v -63" /><g
         transform="scale(10)"
         id="g44"><text
           id="text48"
           style="font-variant:normal;font-weight:normal;font-size:14px;font-family:Helvetica;-inkscape-font-specification:Helvetica;writing-mode:lr-tb;fill:#000000;fill-opacity:1;fill-rule:nonzero;stroke:none"
           transform="matrix(0,1,1,0,186.2,79.5404)"><tspan
             id="tspan46"
             y="0"
             x="0 7.7839999 11.676">1.5</tspan></text>
</g><path
         id="path50"
         style="fill:none;stroke:#000000;stroke-width:10;stroke-linecap:butt;stroke-linejoin:miter;stroke-miterlimit:10;stroke-dasharray:none;stroke-opacity:1"
         d="m 5260,1074 v 63 m 0,6325 v -63 M 4112,1074 v 63 m 0,6325 v -63 M 2964,1074 v 63 m 0,6325 v -63 M 1816,1074 v 63 m 0,6325 v -63 M 668,1074 v 63 m 0,6325 v -63" /><g
         transform="scale(10)"
         id="g52"><text
           id="text56"
           style="font-variant:normal;font-weight:normal;font-size:14px;font-family:Helvetica;-inkscape-font-specification:Helvetica;writing-mode:lr-tb;fill:#000000;fill-opacity:1;fill-rule:nonzero;stroke:none"
           transform="matrix(0,1,1,0,71.4,91.2162)"><tspan
             id="tspan54"
             y="0"
             x="0">2</tspan></text>
</g><path
         id="path58"
         style="fill:none;stroke:#000000;stroke-width:10;stroke-linecap:butt;stroke-linejoin:miter;stroke-miterlimit:10;stroke-dasharray:none;stroke-opacity:1"
         d="m 5260,1074 v 63 m 0,6325 v -63 M 4112,1074 v 63 m 0,6325 v -63 M 2964,1074 v 63 m 0,6325 v -63 M 1816,1074 v 63 m 0,6325 v -63 M 668,1074 v 63 m 0,6325 v -63 M 5260,1074 h -63 m -4529,0 h 63" /><g
         transform="scale(10)"
         id="g60"><text
           id="text64"
           style="font-variant:normal;font-weight:normal;font-size:14px;font-family:Helvetica;-inkscape-font-specification:Helvetica;writing-mode:lr-tb;fill:#000000;fill-opacity:1;fill-rule:nonzero;stroke:none"
           transform="matrix(0,1,1,0,544.6,105.454)"><tspan
             id="tspan62"
             y="0"
             x="0">0</tspan></text>
</g><path
         id="path66"
         style="fill:none;stroke:#000000;stroke-width:10;stroke-linecap:butt;stroke-linejoin:miter;stroke-miterlimit:10;stroke-dasharray:none;stroke-opacity:1"
         d="m 5260,1074 v 63 m 0,6325 v -63 M 4112,1074 v 63 m 0,6325 v -63 M 2964,1074 v 63 m 0,6325 v -63 M 1816,1074 v 63 m 0,6325 v -63 M 668,1074 v 63 m 0,6325 v -63 M 5260,1074 h -63 m -4529,0 h 63 m 4529,1597 h -63 m -4529,0 h 63" /><g
         transform="scale(10)"
         id="g68"><text
           id="text72"
           style="font-variant:normal;font-weight:normal;font-size:14px;font-family:Helvetica;-inkscape-font-specification:Helvetica;writing-mode:lr-tb;fill:#000000;fill-opacity:1;fill-rule:nonzero;stroke:none"
           transform="matrix(0,1,1,0,544.6,265.154)"><tspan
             id="tspan70"
             y="0"
             x="0">5</tspan></text>
</g><path
         id="path74"
         style="fill:none;stroke:#000000;stroke-width:10;stroke-linecap:butt;stroke-linejoin:miter;stroke-miterlimit:10;stroke-dasharray:none;stroke-opacity:1"
         d="m 5260,1074 v 63 m 0,6325 v -63 M 4112,1074 v 63 m 0,6325 v -63 M 2964,1074 v 63 m 0,6325 v -63 M 1816,1074 v 63 m 0,6325 v -63 M 668,1074 v 63 m 0,6325 v -63 M 5260,1074 h -63 m -4529,0 h 63 m 4529,1597 h -63 m -4529,0 h 63 m 4529,1597 h -63 m -4529,0 h 63" /><g
         transform="scale(10)"
         id="g76"><text
           id="text80"
           style="font-variant:normal;font-weight:normal;font-size:14px;font-family:Helvetica;-inkscape-font-specification:Helvetica;writing-mode:lr-tb;fill:#000000;fill-opacity:1;fill-rule:nonzero;stroke:none"
           transform="matrix(0,1,1,0,544.6,420.962)"><tspan
             id="tspan78"
             y="0"
             x="0 7.7839999">10</tspan></text>
</g><path
         id="path82"
         style="fill:none;stroke:#000000;stroke-width:10;stroke-linecap:butt;stroke-linejoin:miter;stroke-miterlimit:10;stroke-dasharray:none;stroke-opacity:1"
         d="m 5260,1074 v 63 m 0,6325 v -63 M 4112,1074 v 63 m 0,6325 v -63 M 2964,1074 v 63 m 0,6325 v -63 M 1816,1074 v 63 m 0,6325 v -63 M 668,1074 v 63 m 0,6325 v -63 M 5260,1074 h -63 m -4529,0 h 63 m 4529,1597 h -63 m -4529,0 h 63 m 4529,1597 h -63 m -4529,0 h 63 m 4529,1597 h -63 m -4529,0 h 63" /><g
         transform="scale(10)"
         id="g84"><text
           id="text88"
           style="font-variant:normal;font-weight:normal;font-size:14px;font-family:Helvetica;-inkscape-font-specification:Helvetica;writing-mode:lr-tb;fill:#000000;fill-opacity:1;fill-rule:nonzero;stroke:none"
           transform="matrix(0,1,1,0,544.6,580.662)"><tspan
             id="tspan86"
             y="0"
             x="0 7.7839999">15</tspan></text>
</g><path
         id="path90"
         style="fill:none;stroke:#000000;stroke-width:10;stroke-linecap:butt;stroke-linejoin:miter;stroke-miterlimit:10;stroke-dasharray:none;stroke-opacity:1"
         d="m 5260,1074 v 63 m 0,6325 v -63 M 4112,1074 v 63 m 0,6325 v -63 M 2964,1074 v 63 m 0,6325 v -63 M 1816,1074 v 63 m 0,6325 v -63 M 668,1074 v 63 m 0,6325 v -63 M 5260,1074 h -63 m -4529,0 h 63 m 4529,1597 h -63 m -4529,0 h 63 m 4529,1597 h -63 m -4529,0 h 63 m 4529,1597 h -63 m -4529,0 h 63 m 4529,1597 h -63 m -4529,0 h 63" /><g
         transform="scale(10)"
         id="g92"><text
           id="text96"
           style="font-variant:normal;font-weight:normal;font-size:14px;font-family:Helvetica;-inkscape-font-specification:Helvetica;writing-mode:lr-tb;fill:#000000;fill-opacity:1;fill-rule:nonzero;stroke:none"
           transform="matrix(0,1,1,0,544.6,740.362)"><tspan
             id="tspan94"
             y="0"
             x="0 7.7839999">20</tspan></text>
</g><path
         id="path98"
         style="fill:none;stroke:#000000;stroke-width:10;stroke-linecap:butt;stroke-linejoin:miter;stroke-miterlimit:10;stroke-dasharray:none;stroke-opacity:1"
         d="m 5260,1074 v 63 m 0,6325 v -63 M 4112,1074 v 63 m 0,6325 v -63 M 2964,1074 v 63 m 0,6325 v -63 M 1816,1074 v 63 m 0,6325 v -63 M 668,1074 v 63 m 0,6325 v -63 M 5260,1074 h -63 m -4529,0 h 63 m 4529,1597 h -63 m -4529,0 h 63 m 4529,1597 h -63 m -4529,0 h 63 m 4529,1597 h -63 m -4529,0 h 63 m 4529,1597 h -63 m -4529,0 h 63" /><path
         id="path100"
         style="fill:none;stroke:#000000;stroke-width:10;stroke-linecap:butt;stroke-linejoin:miter;stroke-miterlimit:10;stroke-dasharray:none;stroke-opacity:1"
         d="M 5260,1074 V 7462 H 668 V 1074 h 4592" /><g
         transform="scale(10)"
         id="g102"><text
           id="text106"
           style="font-variant:normal;font-weight:normal;font-size:14px;font-family:Helvetica;-inkscape-font-specification:Helvetica;writing-mode:lr-tb;fill:#000000;fill-opacity:1;fill-rule:nonzero;stroke:none"
           transform="matrix(0,1,1,0,84.7,629.133)"><tspan
             id="tspan104"
             y="0"
             x="0 4.9699998 12.754 15.862 23.646 27.538 31.43 39.214001 46.998001">&quot;plot.gp&quot;</tspan></text>
</g><path
         id="path108"
         style="fill:none;stroke:#000000;stroke-width:5;stroke-linecap:butt;stroke-linejoin:miter;stroke-miterlimit:10;stroke-dasharray:none;stroke-opacity:1"
         d="m 801,6895 v 399 m 4459,-6220 -11,319 -35,320 -57,319 -81,320 -103,319 -126,319 -150,320 -172,319 -195,320 -218,319 -241,319 -264,320 -287,319 -310,320 -333,319 -356,319 -379,320 -402,319 -424,320 -448,319" /></g></g></svg>