<?xml version="1.0" encoding="UTF-8" standalone="no"?>
<svg
   xmlns:dc="http://purl.org/dc/elements/1.1/"
   xmlns:cc="http://creativecommons.org/ns#"
   xmlns:rdf="http://www.w3.org/1999/02/22-rdf-syntax-ns#"
   xmlns:svg="http://www.w3.org/2000/svg"
   xmlns="http://www.w3.org/2000/svg"
   viewBox="0 0 676 290.66666"
   height="290.66666"
   width="676"
   xml:space="preserve"
   id="svg2"
   version="1.1"><metadata
     id="metadata8"><rdf:RDF><cc:Work
         rdf:about=""><dc:format>image/svg+xml</dc:format><dc:type
           rdf:resource="http://purl.org/dc/dcmitype/StillImage" /></cc:Work></rdf:RDF></metadata><defs
     id="defs6" /><g
     transform="matrix(1.3333333,0,0,-1.3333333,0,290.66667)"
     id="g10"><g
       transform="scale(0.1)"
       id="g12"><path
         id="path14"
         style="fill:#ffffff;fill-opacity:1;fill-rule:evenodd;stroke:none"
         d="M 1982.96,364.879 1138.4,1776.08 338.48,338.961 Z" /><path
         id="path16"
         style="fill:none;stroke:#231f20;stroke-width:10.00629997;stroke-linecap:butt;stroke-linejoin:miter;stroke-miterlimit:10;stroke-dasharray:none;stroke-opacity:1"
         d="M 1982.96,364.879 1138.4,1776.08 338.48,338.961 Z" /><path
         id="path18"
         style="fill:#ffffff;fill-opacity:1;fill-rule:evenodd;stroke:none"
         d="m 1138.04,1787.96 c 19.88,0 36,-16.12 36,-36 0,-19.88 -16.12,-36 -36,-36 -19.88,0 -36,16.12 -36,36 0,19.88 16.12,36 36,36" /><path
         id="path20"
         style="fill:none;stroke:#231f20;stroke-width:10.00629997;stroke-linecap:butt;stroke-linejoin:miter;stroke-miterlimit:10;stroke-dasharray:none;stroke-opacity:1"
         d="m 1138.04,1787.96 c 19.88,0 36,-16.12 36,-36 0,-19.88 -16.12,-36 -36,-36 -19.88,0 -36,16.12 -36,36 0,19.88 16.12,36 36,36" /><path
         id="path22"
         style="fill:#ffffff;fill-opacity:1;fill-rule:evenodd;stroke:none"
         d="M 4728.68,382.52 3884.48,1793.72 3084.56,356.961 Z" /><path
         id="path24"
         style="fill:none;stroke:#231f20;stroke-width:10.00629997;stroke-linecap:butt;stroke-linejoin:miter;stroke-miterlimit:10;stroke-dasharray:none;stroke-opacity:1"
         d="M 4728.68,382.52 3884.48,1793.72 3084.56,356.961 Z" /><path
         id="path26"
         style="fill:#ffffff;fill-opacity:1;fill-rule:evenodd;stroke:none"
         d="m 3884.12,1805.96 c 19.88,0 36,-16.12 36,-36 0,-19.88 -16.12,-36 -36,-36 -19.88,0 -36,16.12 -36,36 0,19.88 16.12,36 36,36" /><path
         id="path28"
         style="fill:none;stroke:#231f20;stroke-width:10.00629997;stroke-linecap:butt;stroke-linejoin:miter;stroke-miterlimit:10;stroke-dasharray:none;stroke-opacity:1"
         d="m 3884.12,1805.96 c 19.88,0 36,-16.12 36,-36 0,-19.88 -16.12,-36 -36,-36 -19.88,0 -36,16.12 -36,36 0,19.88 16.12,36 36,36" /><path
         id="path30"
         style="fill:#ffffff;fill-opacity:1;fill-rule:evenodd;stroke:none"
         d="m 3088.16,394.398 c 19.88,0 36,-16.121 36,-36 0,-19.878 -16.12,-36 -36,-36 -19.88,0 -36,16.122 -36,36 0,19.879 16.12,36 36,36" /><path
         id="path32"
         style="fill:none;stroke:#231f20;stroke-width:10.00629997;stroke-linecap:butt;stroke-linejoin:miter;stroke-miterlimit:10;stroke-dasharray:none;stroke-opacity:1"
         d="m 3088.16,394.398 c 19.88,0 36,-16.121 36,-36 0,-19.878 -16.12,-36 -36,-36 -19.88,0 -36,16.122 -36,36 0,19.879 16.12,36 36,36" /><path
         id="path34"
         style="fill:#ffffff;fill-opacity:1;fill-rule:evenodd;stroke:none"
         d="m 4716.44,418.52 c 19.88,0 36,-16.122 36,-36 0,-19.879 -16.12,-36 -36,-36 -19.88,0 -36,16.121 -36,36 0,19.878 16.12,36 36,36" /><path
         id="path36"
         style="fill:none;stroke:#231f20;stroke-width:10.00629997;stroke-linecap:butt;stroke-linejoin:miter;stroke-miterlimit:10;stroke-dasharray:none;stroke-opacity:1"
         d="m 4716.44,418.52 c 19.88,0 36,-16.122 36,-36 0,-19.879 -16.12,-36 -36,-36 -19.88,0 -36,16.121 -36,36 0,19.878 16.12,36 36,36" /><path
         id="path38"
         style="fill:#ffffff;fill-opacity:1;fill-rule:evenodd;stroke:none"
         d="m 3478.04,1094.24 c 19.88,0 36,-16.12 36,-36 0,-19.88 -16.12,-36 -36,-36 -19.88,0 -36,16.12 -36,36 0,19.88 16.12,36 36,36" /><path
         id="path40"
         style="fill:none;stroke:#231f20;stroke-width:10.00629997;stroke-linecap:butt;stroke-linejoin:miter;stroke-miterlimit:10;stroke-dasharray:none;stroke-opacity:1"
         d="m 3478.04,1094.24 c 19.88,0 36,-16.12 36,-36 0,-19.88 -16.12,-36 -36,-36 -19.88,0 -36,16.12 -36,36 0,19.88 16.12,36 36,36" /><path
         id="path42"
         style="fill:#ffffff;fill-opacity:1;fill-rule:evenodd;stroke:none"
         d="m 3920.84,412.398 c 19.88,0 36,-16.121 36,-36 0,-19.878 -16.12,-36 -36,-36 -19.88,0 -36,16.122 -36,36 0,19.879 16.12,36 36,36" /><path
         id="path44"
         style="fill:none;stroke:#231f20;stroke-width:10.00629997;stroke-linecap:butt;stroke-linejoin:miter;stroke-miterlimit:10;stroke-dasharray:none;stroke-opacity:1"
         d="m 3920.84,412.398 c 19.88,0 36,-16.121 36,-36 0,-19.878 -16.12,-36 -36,-36 -19.88,0 -36,16.122 -36,36 0,19.879 16.12,36 36,36" /><path
         id="path46"
         style="fill:#ffffff;fill-opacity:1;fill-rule:evenodd;stroke:none"
         d="m 4328.36,1094.24 c 19.88,0 36,-16.12 36,-36 0,-19.88 -16.12,-36 -36,-36 -19.88,0 -36,16.12 -36,36 0,19.88 16.12,36 36,36" /><path
         id="path48"
         style="fill:none;stroke:#231f20;stroke-width:10.00629997;stroke-linecap:butt;stroke-linejoin:miter;stroke-miterlimit:10;stroke-dasharray:none;stroke-opacity:1"
         d="m 4328.36,1094.24 c 19.88,0 36,-16.12 36,-36 0,-19.88 -16.12,-36 -36,-36 -19.88,0 -36,16.12 -36,36 0,19.88 16.12,36 36,36" /><path
         id="path50"
         style="fill:none;stroke:#231f20;stroke-width:10.00629997;stroke-linecap:butt;stroke-linejoin:miter;stroke-miterlimit:10;stroke-dasharray:none;stroke-opacity:1"
         d="M 342.078,340.762 944,813.801 2006.72,364.879" /><g
         transform="scale(10)"
         id="g52"><text
           id="text56"
           style="font-variant:normal;font-weight:normal;font-size:10.15200043px;font-family:'Times New Roman';-inkscape-font-specification:Times_New_Roman;writing-mode:lr-tb;fill:#231f20;fill-opacity:1;fill-rule:nonzero;stroke:none"
           transform="matrix(1,0,0,-1,118.052,200.972)"><tspan
             id="tspan54"
             y="0"
             x="0">1</tspan></text>
<text
           id="text60"
           style="font-variant:normal;font-weight:normal;font-size:14.00399971px;font-family:'Times New Roman';-inkscape-font-specification:Times_New_RomanITALIC;writing-mode:lr-tb;fill:#231f20;fill-opacity:1;fill-rule:nonzero;stroke:none"
           transform="matrix(1,0,0,-1,112.7602,204.53592)"><tspan
             id="tspan58"
             y="0"
             x="0">k</tspan></text>
<text
           id="text64"
           style="font-variant:normal;font-weight:normal;font-size:24.19199944px;font-family:'Times New Roman';-inkscape-font-specification:Times_New_RomanITALIC;writing-mode:lr-tb;fill:#231f20;fill-opacity:1;fill-rule:nonzero;stroke:none"
           transform="matrix(1,0,0,-1,99.5481,193.59162)"><tspan
             id="tspan62"
             y="0"
             x="0">q</tspan></text>
<text
           id="text68"
           style="font-variant:normal;font-weight:normal;font-size:10.15200043px;font-family:'Times New Roman';-inkscape-font-specification:Times_New_Roman;writing-mode:lr-tb;fill:#231f20;fill-opacity:1;fill-rule:nonzero;stroke:none"
           transform="matrix(1,0,0,-1,21.8961,46.85562)"><tspan
             id="tspan66"
             y="0"
             x="0">2</tspan></text>
<text
           id="text72"
           style="font-variant:normal;font-weight:normal;font-size:14.00399971px;font-family:'Times New Roman';-inkscape-font-specification:Times_New_RomanITALIC;writing-mode:lr-tb;fill:#231f20;fill-opacity:1;fill-rule:nonzero;stroke:none"
           transform="matrix(1,0,0,-1,15.45196,50.41954)"><tspan
             id="tspan70"
             y="0"
             x="0">k</tspan></text>
<text
           id="text76"
           style="font-variant:normal;font-weight:normal;font-size:24.19199944px;font-family:'Times New Roman';-inkscape-font-specification:Times_New_RomanITALIC;writing-mode:lr-tb;fill:#231f20;fill-opacity:1;fill-rule:nonzero;stroke:none"
           transform="matrix(1,0,0,-1,2.09606,39.47524)"><tspan
             id="tspan74"
             y="0"
             x="0">q</tspan></text>
<text
           id="text80"
           style="font-variant:normal;font-weight:normal;font-size:10.15200043px;font-family:'Times New Roman';-inkscape-font-specification:Times_New_Roman;writing-mode:lr-tb;fill:#231f20;fill-opacity:1;fill-rule:nonzero;stroke:none"
           transform="matrix(1,0,0,-1,223.71206,43.4716)"><tspan
             id="tspan78"
             y="0"
             x="0">3</tspan></text>
<text
           id="text84"
           style="font-variant:normal;font-weight:normal;font-size:14.00399971px;font-family:'Times New Roman';-inkscape-font-specification:Times_New_RomanITALIC;writing-mode:lr-tb;fill:#231f20;fill-opacity:1;fill-rule:nonzero;stroke:none"
           transform="matrix(1,0,0,-1,217.51987,47.1074)"><tspan
             id="tspan82"
             y="0"
             x="0">k</tspan></text>
<text
           id="text88"
           style="font-variant:normal;font-weight:normal;font-size:24.19199944px;font-family:'Times New Roman';-inkscape-font-specification:Times_New_RomanITALIC;writing-mode:lr-tb;fill:#231f20;fill-opacity:1;fill-rule:nonzero;stroke:none"
           transform="matrix(1,0,0,-1,204.09217,35.9475)"><tspan
             id="tspan86"
             y="0"
             x="0">q</tspan></text>
<text
           id="text92"
           style="font-variant:normal;font-weight:normal;font-size:13.89599991px;font-family:'Times New Roman';-inkscape-font-specification:Times_New_RomanITALIC;writing-mode:lr-tb;fill:#231f20;fill-opacity:1;fill-rule:nonzero;stroke:none"
           transform="matrix(1,0,0,-1,113.58787,112.6275)"><tspan
             id="tspan90"
             y="0"
             x="0">k</tspan></text>
<text
           id="text96"
           style="font-variant:normal;font-weight:normal;font-size:23.97599983px;font-family:'Times New Roman';-inkscape-font-specification:Times_New_RomanITALIC;writing-mode:lr-tb;fill:#231f20;fill-opacity:1;fill-rule:nonzero;stroke:none"
           transform="matrix(1,0,0,-1,101.59997,118.81936)"><tspan
             id="tspan94"
             y="0"
             x="0">T</tspan></text>
</g><path
         id="path98"
         style="fill:#ffffff;fill-opacity:1;fill-rule:evenodd;stroke:none"
         d="m 342.078,376.762 c 19.879,0 36,-16.121 36,-36 0,-19.879 -16.121,-36 -36,-36 -19.879,0 -36,16.121 -36,36 0,19.879 16.121,36 36,36" /><path
         id="path100"
         style="fill:none;stroke:#231f20;stroke-width:10.00629997;stroke-linecap:butt;stroke-linejoin:miter;stroke-miterlimit:10;stroke-dasharray:none;stroke-opacity:1"
         d="m 342.078,376.762 c 19.879,0 36,-16.121 36,-36 0,-19.879 -16.121,-36 -36,-36 -19.879,0 -36,16.121 -36,36 0,19.879 16.121,36 36,36" /><path
         id="path102"
         style="fill:#ffffff;fill-opacity:1;fill-rule:evenodd;stroke:none"
         d="m 1970.36,400.879 c 19.88,0 36,-16.121 36,-36 0,-19.879 -16.12,-36 -36,-36 -19.88,0 -36,16.121 -36,36 0,19.879 16.12,36 36,36" /><path
         id="path104"
         style="fill:none;stroke:#231f20;stroke-width:10.00629997;stroke-linecap:butt;stroke-linejoin:miter;stroke-miterlimit:10;stroke-dasharray:none;stroke-opacity:1"
         d="m 1970.36,400.879 c 19.88,0 36,-16.121 36,-36 0,-19.879 -16.12,-36 -36,-36 -19.88,0 -36,16.121 -36,36 0,19.879 16.12,36 36,36" /><g
         transform="scale(10)"
         id="g106"><text
           id="text110"
           style="font-variant:normal;font-weight:normal;font-size:23.97599983px;font-family:'Times New Roman';-inkscape-font-specification:Times_New_RomanITALIC;writing-mode:lr-tb;fill:#231f20;fill-opacity:1;fill-rule:nonzero;stroke:none"
           transform="matrix(1,0,0,-1,97.1719,96.752)"><tspan
             id="tspan108"
             y="0"
             x="0">p</tspan></text>
<text
           id="text114"
           style="font-variant:normal;font-weight:normal;font-size:10.15200043px;font-family:'Times New Roman';-inkscape-font-specification:Times_New_Roman;writing-mode:lr-tb;fill:#231f20;fill-opacity:1;fill-rule:nonzero;stroke:none"
           transform="matrix(1,0,0,-1,399.7519,197.444)"><tspan
             id="tspan112"
             y="0"
             x="0">1</tspan></text>
<text
           id="text118"
           style="font-variant:normal;font-weight:normal;font-size:14.00399971px;font-family:'Times New Roman';-inkscape-font-specification:Times_New_RomanITALIC;writing-mode:lr-tb;fill:#231f20;fill-opacity:1;fill-rule:nonzero;stroke:none"
           transform="matrix(1,0,0,-1,394.4601,201.00792)"><tspan
             id="tspan116"
             y="0"
             x="0">k</tspan></text>
<text
           id="text122"
           style="font-variant:normal;font-weight:normal;font-size:24.19199944px;font-family:'Times New Roman';-inkscape-font-specification:Times_New_RomanITALIC;writing-mode:lr-tb;fill:#231f20;fill-opacity:1;fill-rule:nonzero;stroke:none"
           transform="matrix(1,0,0,-1,381.248,190.06402)"><tspan
             id="tspan120"
             y="0"
             x="0">q</tspan></text>
<text
           id="text126"
           style="font-variant:normal;font-weight:normal;font-size:10.15200043px;font-family:'Times New Roman';-inkscape-font-specification:Times_New_Roman;writing-mode:lr-tb;fill:#231f20;fill-opacity:1;fill-rule:nonzero;stroke:none"
           transform="matrix(1,0,0,-1,330.164,108.84792)"><tspan
             id="tspan124"
             y="0"
             x="0">2</tspan></text>
<text
           id="text130"
           style="font-variant:normal;font-weight:normal;font-size:14.00399971px;font-family:'Times New Roman';-inkscape-font-specification:Times_New_RomanITALIC;writing-mode:lr-tb;fill:#231f20;fill-opacity:1;fill-rule:nonzero;stroke:none"
           transform="matrix(1,0,0,-1,323.71986,112.41184)"><tspan
             id="tspan128"
             y="0"
             x="0">k</tspan></text>
<text
           id="text134"
           style="font-variant:normal;font-weight:normal;font-size:24.19199944px;font-family:'Times New Roman';-inkscape-font-specification:Times_New_RomanITALIC;writing-mode:lr-tb;fill:#231f20;fill-opacity:1;fill-rule:nonzero;stroke:none"
           transform="matrix(1,0,0,-1,310.36396,101.46794)"><tspan
             id="tspan132"
             y="0"
             x="0">q</tspan></text>
<text
           id="text138"
           style="font-variant:normal;font-weight:normal;font-size:10.15200043px;font-family:'Times New Roman';-inkscape-font-specification:Times_New_Roman;writing-mode:lr-tb;fill:#231f20;fill-opacity:1;fill-rule:nonzero;stroke:none"
           transform="matrix(1,0,0,-1,462.89596,112.59204)"><tspan
             id="tspan136"
             y="0"
             x="0">3</tspan></text>
<text
           id="text142"
           style="font-variant:normal;font-weight:normal;font-size:14.00399971px;font-family:'Times New Roman';-inkscape-font-specification:Times_New_RomanITALIC;writing-mode:lr-tb;fill:#231f20;fill-opacity:1;fill-rule:nonzero;stroke:none"
           transform="matrix(1,0,0,-1,456.70377,116.19189)"><tspan
             id="tspan140"
             y="0"
             x="0">k</tspan></text>
<text
           id="text146"
           style="font-variant:normal;font-weight:normal;font-size:24.19199944px;font-family:'Times New Roman';-inkscape-font-specification:Times_New_RomanITALIC;writing-mode:lr-tb;fill:#231f20;fill-opacity:1;fill-rule:nonzero;stroke:none"
           transform="matrix(1,0,0,-1,443.27607,105.03199)"><tspan
             id="tspan144"
             y="0"
             x="0">q</tspan></text>
<text
           id="text150"
           style="font-variant:normal;font-weight:normal;font-size:10.15200043px;font-family:'Times New Roman';-inkscape-font-specification:Times_New_Roman;writing-mode:lr-tb;fill:#231f20;fill-opacity:1;fill-rule:nonzero;stroke:none"
           transform="matrix(1,0,0,-1,294.74007,29.14399)"><tspan
             id="tspan148"
             y="0"
             x="0">4</tspan></text>
<text
           id="text154"
           style="font-variant:normal;font-weight:normal;font-size:14.00399971px;font-family:'Times New Roman';-inkscape-font-specification:Times_New_RomanITALIC;writing-mode:lr-tb;fill:#231f20;fill-opacity:1;fill-rule:nonzero;stroke:none"
           transform="matrix(1,0,0,-1,288.29632,32.74385)"><tspan
             id="tspan152"
             y="0"
             x="0">k</tspan></text>
<text
           id="text158"
           style="font-variant:normal;font-weight:normal;font-size:24.19199944px;font-family:'Times New Roman';-inkscape-font-specification:Times_New_RomanITALIC;writing-mode:lr-tb;fill:#231f20;fill-opacity:1;fill-rule:nonzero;stroke:none"
           transform="matrix(1,0,0,-1,274.94012,21.76405)"><tspan
             id="tspan156"
             y="0"
             x="0">q</tspan></text>
<text
           id="text162"
           style="font-variant:normal;font-weight:normal;font-size:10.15200043px;font-family:'Times New Roman';-inkscape-font-specification:Times_New_Roman;writing-mode:lr-tb;fill:#231f20;fill-opacity:1;fill-rule:nonzero;stroke:none"
           transform="matrix(1,0,0,-1,395.57612,15.1401)"><tspan
             id="tspan160"
             y="0"
             x="0">5</tspan></text>
<text
           id="text166"
           style="font-variant:normal;font-weight:normal;font-size:14.00399971px;font-family:'Times New Roman';-inkscape-font-specification:Times_New_RomanITALIC;writing-mode:lr-tb;fill:#231f20;fill-opacity:1;fill-rule:nonzero;stroke:none"
           transform="matrix(1,0,0,-1,389.38393,18.73996)"><tspan
             id="tspan164"
             y="0"
             x="0">k</tspan></text>
<text
           id="text170"
           style="font-variant:normal;font-weight:normal;font-size:24.19199944px;font-family:'Times New Roman';-inkscape-font-specification:Times_New_RomanITALIC;writing-mode:lr-tb;fill:#231f20;fill-opacity:1;fill-rule:nonzero;stroke:none"
           transform="matrix(1,0,0,-1,375.95583,7.58006)"><tspan
             id="tspan168"
             y="0"
             x="0">q</tspan></text>
<text
           id="text174"
           style="font-variant:normal;font-weight:normal;font-size:10.15200043px;font-family:'Times New Roman';-inkscape-font-specification:Times_New_Roman;writing-mode:lr-tb;fill:#231f20;fill-opacity:1;fill-rule:nonzero;stroke:none"
           transform="matrix(1,0,0,-1,498.28383,38.17996)"><tspan
             id="tspan172"
             y="0"
             x="0">6</tspan></text>
<text
           id="text178"
           style="font-variant:normal;font-weight:normal;font-size:14.00399971px;font-family:'Times New Roman';-inkscape-font-specification:Times_New_RomanITALIC;writing-mode:lr-tb;fill:#231f20;fill-opacity:1;fill-rule:nonzero;stroke:none"
           transform="matrix(1,0,0,-1,492.01977,41.77982)"><tspan
             id="tspan176"
             y="0"
             x="0">k</tspan></text>
<text
           id="text182"
           style="font-variant:normal;font-weight:normal;font-size:24.19199944px;font-family:'Times New Roman';-inkscape-font-specification:Times_New_RomanITALIC;writing-mode:lr-tb;fill:#231f20;fill-opacity:1;fill-rule:nonzero;stroke:none"
           transform="matrix(1,0,0,-1,478.66387,30.61992)"><tspan
             id="tspan180"
             y="0"
             x="0">q</tspan></text>
<text
           id="text186"
           style="font-variant:normal;font-weight:normal;font-size:13.89599991px;font-family:'Times New Roman';-inkscape-font-specification:Times_New_RomanITALIC;writing-mode:lr-tb;fill:#231f20;fill-opacity:1;fill-rule:nonzero;stroke:none"
           transform="matrix(1,0,0,-1,384.66777,80.73192)"><tspan
             id="tspan184"
             y="0"
             x="0">k</tspan></text>
<text
           id="text190"
           style="font-variant:normal;font-weight:normal;font-size:23.97599983px;font-family:'Times New Roman';-inkscape-font-specification:Times_New_RomanITALIC;writing-mode:lr-tb;fill:#231f20;fill-opacity:1;fill-rule:nonzero;stroke:none"
           transform="matrix(1,0,0,-1,372.64397,86.96011)"><tspan
             id="tspan188"
             y="0"
             x="0">T</tspan></text>
<text
           id="text194"
           style="font-variant:normal;font-weight:normal;font-size:21.99600029px;font-family:Arial;-inkscape-font-specification:Arial;writing-mode:lr-tb;fill:#231f20;fill-opacity:1;fill-rule:nonzero;stroke:none"
           transform="matrix(0.996727,0,0,-1,177.668,143.804)"><tspan
             id="tspan192"
             y="0"
             x="0">(</tspan></text>
<text
           id="text200"
           style="font-variant:normal;font-weight:normal;font-size:21.99600029px;font-family:Arial;-inkscape-font-specification:Arial;writing-mode:lr-tb;fill:#231f20;fill-opacity:1;fill-rule:nonzero;stroke:none"
           transform="matrix(0.996727,0,0,-1,184.9762,143.804)"><tspan
             id="tspan196"
             y="0"
             x="0 12.243985">a)</tspan><tspan
             id="tspan198"
             y="-5.2918"
             x="278.83301 286.16483 298.40881">(b)</tspan></text>
</g></g></g></svg>